<svg width="32" height="32" viewBox="0 0 32 32" fill="none" xmlns="http://www.w3.org/2000/svg">
<g clip-path="url(#clip0)">
<path d="M31.506 7.42742C31.1876 7.12008 30.7679 6.95963 30.3251 6.97527C29.4514 7.00629 28.7671 7.72794 28.7671 8.61807V9.66701H21.3892C21.1269 9.66701 20.9143 9.87964 20.9143 10.1419C20.9143 10.4042 21.1269 10.6168 21.3892 10.6168H28.7671V11.6354H3.233V10.6168H19.4897C19.7519 10.6168 19.9646 10.4042 19.9646 10.1419C19.9646 9.87964 19.7519 9.66701 19.4897 9.66701H3.233V8.59066C3.233 7.86458 2.75171 7.2488 2.09142 7.04549V2.28923H8.24481V3.74556H7.54634C6.53779 3.74556 5.71731 4.56605 5.71731 5.57459V5.77284C5.17644 5.98768 4.79279 6.51595 4.79279 7.13249C4.79279 7.93904 5.44896 8.59521 6.25552 8.59521C7.06207 8.59521 7.71825 7.93904 7.71825 7.13249C7.71825 6.46884 7.27388 5.90739 6.66709 5.72915V5.57459C6.66709 5.08976 7.0615 4.69534 7.54634 4.69534H9.81942C10.3043 4.69534 10.6987 5.08976 10.6987 5.57459V5.77284C10.1578 5.98768 9.77415 6.51595 9.77415 7.13249C9.77415 7.93904 10.4303 8.59521 11.2369 8.59521C12.0434 8.59521 12.6996 7.93904 12.6996 7.13249C12.6996 6.46884 12.2552 5.90739 11.6484 5.72915V5.57459C11.6484 4.56605 10.828 3.74556 9.81942 3.74556H9.19453V1.81434C9.19453 1.55207 8.9819 1.33945 8.71964 1.33945H1.61647C1.3542 1.33945 1.14157 1.55207 1.14157 1.81434V7.04549C0.481286 7.24887 0 7.86458 0 8.59072V29.2441C0 30.0252 0.635404 30.6606 1.41644 30.6606H1.81655C2.59753 30.6606 3.233 30.0252 3.233 29.2441V25.7754C3.25864 25.7761 3.28428 25.7775 3.30993 25.7775C4.91411 25.7775 6.22323 24.4943 6.26704 22.9005H11.7013C11.9636 22.9005 12.1762 22.6879 12.1762 22.4256C12.1762 22.1634 11.9636 21.9507 11.7013 21.9507H2.7581C2.49584 21.9507 2.28321 22.1634 2.28321 22.4256V29.2441C2.28321 29.5014 2.07388 29.7108 1.81655 29.7108H1.41644C1.15911 29.7108 0.949782 29.5014 0.949782 29.2441V8.59072C0.949782 8.22309 1.2489 7.92403 1.61647 7.92403C1.9841 7.92403 2.28315 8.22315 2.28315 8.59072V19.9457C2.28315 20.208 2.49577 20.4206 2.75804 20.4206H29.2419C29.5042 20.4206 29.7168 20.208 29.7168 19.9457V8.61807C29.7168 8.24816 30.0048 7.93701 30.3588 7.92441C30.5416 7.91872 30.7151 7.98412 30.8464 8.11083C30.9778 8.23765 31.0502 8.40811 31.0502 8.59066V29.2441C31.0502 29.5014 30.8409 29.7107 30.5836 29.7107H30.1834C29.9261 29.7107 29.7168 29.5014 29.7168 29.2441V22.4256C29.7168 22.1634 29.5042 21.9507 29.2419 21.9507H13.6009C13.3386 21.9507 13.126 22.1634 13.126 22.4256C13.126 22.6879 13.3386 22.9005 13.6009 22.9005H25.7077C25.7515 24.4943 27.0607 25.7775 28.6649 25.7775C28.699 25.7775 28.733 25.776 28.7671 25.7747V29.2441C28.7671 30.0251 29.4025 30.6605 30.1835 30.6605H30.5836C31.3647 30.6605 32.0001 30.0251 32.0001 29.2441V8.59072C32 8.14806 31.8245 7.7349 31.506 7.42742ZM6.25546 7.64543C5.97261 7.64543 5.74251 7.41533 5.74251 7.13249C5.74251 6.84964 5.97261 6.61954 6.25546 6.61954C6.5383 6.61954 6.7684 6.84964 6.7684 7.13249C6.7684 7.41533 6.5383 7.64543 6.25546 7.64543ZM11.2369 7.64543C10.954 7.64543 10.7239 7.41533 10.7239 7.13249C10.7239 6.84964 10.954 6.61954 11.2369 6.61954C11.5197 6.61954 11.7498 6.84964 11.7498 7.13249C11.7498 7.41533 11.5197 7.64543 11.2369 7.64543ZM5.31726 22.9005C5.27395 23.9705 4.39034 24.8278 3.30993 24.8278C3.28428 24.8278 3.25864 24.8266 3.233 24.8257V22.9005H5.31726ZM6.43104 12.5852H7.52702V19.4708H6.43104V12.5852ZM9.99241 15.8758H8.47681V12.5852H9.99241V15.8758ZM8.47681 16.8256H9.99241V19.4708H8.47681V16.8256ZM10.9422 12.5852H12.0382V19.4708H10.9422V12.5852ZM14.5036 15.8758H13.0001C12.9959 15.8758 12.992 15.8763 12.988 15.8764V12.5852H14.5036V15.8758ZM12.988 16.825C12.992 16.8251 12.996 16.8256 13.0001 16.8256H14.5036V19.4708H12.988V16.825ZM15.4533 12.5852H16.5493V19.4708H15.4533V12.5852ZM19.0147 15.8758H17.4991V12.5852H19.0147V15.8758ZM17.4991 16.8256H19.0147V19.4708H17.4991V16.8256ZM19.9645 12.5852H21.0605V19.4708H19.9645V12.5852ZM23.5259 15.8758H22.0103V12.5852H23.5259V15.8758ZM22.0103 16.8256H23.5259V19.4708H22.0103V16.8256ZM24.4756 12.5852H25.5716V19.4708H24.4756V12.5852ZM26.5213 12.5852H28.767V16.763C28.203 16.2145 27.434 15.8757 26.5869 15.8757H26.5334C26.5293 15.8757 26.5254 15.8762 26.5213 15.8764V12.5852ZM5.48126 12.5852V15.8758H5.38767C4.5613 15.8758 3.79894 16.1966 3.23293 16.733V12.5852H5.48126ZM3.233 18.5806C3.24864 18.5494 3.26225 18.5169 3.27092 18.4816C3.51128 17.5066 4.38173 16.8256 5.38773 16.8256H5.48132V19.4708H3.233V18.5806ZM28.7671 19.4708H26.5214V16.825C26.5255 16.8251 26.5294 16.8256 26.5335 16.8256H26.587C27.789 16.8256 28.7671 17.8035 28.7671 19.0057V19.4708ZM28.6649 24.8278C27.5844 24.8278 26.7008 23.9705 26.6575 22.9005H28.7671V24.825C28.7331 24.8267 28.6989 24.8278 28.6649 24.8278Z" fill="#50CCCD"/>
</g>
<defs>
<clipPath id="clip0">
<rect width="32" height="32" fill="white"/>
</clipPath>
</defs>
</svg>
