<svg width="32" height="32" viewBox="0 0 32 32" fill="none" xmlns="http://www.w3.org/2000/svg">
<g clip-path="url(#clip0)">
<path d="M28.6968 30.6296V31.3877C28.6968 32.2036 29.9676 32.2047 29.9676 31.3877V30.6296H30.9495C31.3004 30.6296 31.5849 30.3451 31.5849 29.9942V10.3648C31.5849 10.0139 31.3004 9.7294 30.9495 9.7294C30.5987 9.7294 30.3141 10.0139 30.3141 10.3648V29.3588H23.3823V1.27081H30.3141V5.21478C30.3141 6.03064 31.5849 6.03178 31.5849 5.21478V0.635406C31.5849 0.284535 31.3004 0 30.9495 0H1.05045C0.699574 0 0.415039 0.284535 0.415039 0.635406V29.9942C0.415039 30.3451 0.699574 30.6296 1.05045 30.6296H2.03227V31.3877C2.03227 32.2036 3.30309 32.2047 3.30309 31.3877V30.6296H15.5261V31.3877C15.5261 32.2036 16.7969 32.2047 16.7969 31.3877V30.6296H28.6968ZM1.68585 1.27081H8.40883V29.3588H1.68585V1.27081ZM9.67964 1.27081H22.1115V29.3588H9.67964V1.27081Z" fill="#50CCCD"/>
<path d="M6.43082 16.8472C6.78169 16.8472 7.06622 16.5627 7.06622 16.2118V14.4179C7.06622 13.6021 5.79541 13.6009 5.79541 14.4179V16.2118C5.79541 16.5627 6.07994 16.8472 6.43082 16.8472Z" fill="#50CCCD"/>
<path d="M24.7644 14.4179V16.2118C24.7644 17.0276 26.0352 17.0288 26.0352 16.2118V14.4179C26.0352 13.602 24.7644 13.6009 24.7644 14.4179Z" fill="#50CCCD"/>
<path d="M31.5362 7.56431C31.405 7.24387 31.0256 7.08839 30.7064 7.22055C30.3865 7.35297 30.2302 7.7306 30.3626 8.05046C30.4951 8.37033 30.8729 8.52613 31.1925 8.39415C31.5118 8.26218 31.6693 7.88354 31.5362 7.56431Z" fill="#50CCCD"/>
</g>
<defs>
<clipPath id="clip0">
<rect width="32" height="32" fill="white"/>
</clipPath>
</defs>
</svg>
