<svg width="80" height="80" viewBox="0 0 80 80" fill="none" xmlns="http://www.w3.org/2000/svg">
<g clip-path="url(#clip0)">
<path d="M65.5411 39.2714C66.3451 39.2714 66.9969 38.6197 66.9969 37.8157C66.9969 37.0116 66.3451 36.3599 65.5411 36.3599C64.7371 36.3599 64.0853 37.0116 64.0853 37.8157C64.0853 38.6197 64.7371 39.2714 65.5411 39.2714Z" fill="#50CCCD"/>
<path d="M13.1327 39.2714C13.9367 39.2714 14.5885 38.6197 14.5885 37.8157C14.5885 37.0116 13.9367 36.3599 13.1327 36.3599C12.3287 36.3599 11.6769 37.0116 11.6769 37.8157C11.6769 38.6197 12.3287 39.2714 13.1327 39.2714Z" fill="#50CCCD"/>
<path d="M17.5 43.6386C18.3041 43.6386 18.9558 42.9869 18.9558 42.1828C18.9558 41.3788 18.3041 40.7271 17.5 40.7271C16.696 40.7271 16.0443 41.3788 16.0443 42.1828C16.0443 42.9869 16.696 43.6386 17.5 43.6386Z" fill="#50CCCD"/>
<path d="M26.2348 43.6386C27.0388 43.6386 27.6906 42.9869 27.6906 42.1828C27.6906 41.3788 27.0388 40.7271 26.2348 40.7271C25.4308 40.7271 24.779 41.3788 24.779 42.1828C24.779 42.9869 25.4308 43.6386 26.2348 43.6386Z" fill="#50CCCD"/>
<path d="M21.8674 48.0063C22.6714 48.0063 23.3232 47.3545 23.3232 46.5505C23.3232 45.7465 22.6714 45.0947 21.8674 45.0947C21.0634 45.0947 20.4116 45.7465 20.4116 46.5505C20.4116 47.3545 21.0634 48.0063 21.8674 48.0063Z" fill="#50CCCD"/>
<path d="M30.6022 48.0063C31.4062 48.0063 32.0579 47.3545 32.0579 46.5505C32.0579 45.7465 31.4062 45.0947 30.6022 45.0947C29.7981 45.0947 29.1464 45.7465 29.1464 46.5505C29.1464 47.3545 29.7981 48.0063 30.6022 48.0063Z" fill="#50CCCD"/>
<path d="M34.9695 52.3735C35.7735 52.3735 36.4253 51.7217 36.4253 50.9177C36.4253 50.1137 35.7735 49.4619 34.9695 49.4619C34.1655 49.4619 33.5137 50.1137 33.5137 50.9177C33.5137 51.7217 34.1655 52.3735 34.9695 52.3735Z" fill="#50CCCD"/>
<path d="M43.7043 52.3735C44.5083 52.3735 45.1601 51.7217 45.1601 50.9177C45.1601 50.1137 44.5083 49.4619 43.7043 49.4619C42.9003 49.4619 42.2485 50.1137 42.2485 50.9177C42.2485 51.7217 42.9003 52.3735 43.7043 52.3735Z" fill="#50CCCD"/>
<path d="M48.0716 48.0063C48.8756 48.0063 49.5274 47.3545 49.5274 46.5505C49.5274 45.7465 48.8756 45.0947 48.0716 45.0947C47.2676 45.0947 46.6158 45.7465 46.6158 46.5505C46.6158 47.3545 47.2676 48.0063 48.0716 48.0063Z" fill="#50CCCD"/>
<path d="M39.3369 56.7412C40.1409 56.7412 40.7927 56.0894 40.7927 55.2854C40.7927 54.4814 40.1409 53.8296 39.3369 53.8296C38.5329 53.8296 37.8811 54.4814 37.8811 55.2854C37.8811 56.0894 38.5329 56.7412 39.3369 56.7412Z" fill="#50CCCD"/>
<path d="M52.439 43.6386C53.243 43.6386 53.8948 42.9869 53.8948 42.1828C53.8948 41.3788 53.243 40.7271 52.439 40.7271C51.635 40.7271 50.9832 41.3788 50.9832 42.1828C50.9832 42.9869 51.635 43.6386 52.439 43.6386Z" fill="#50CCCD"/>
<path d="M61.1737 43.6386C61.9778 43.6386 62.6295 42.9869 62.6295 42.1828C62.6295 41.3788 61.9778 40.7271 61.1737 40.7271C60.3697 40.7271 59.718 41.3788 59.718 42.1828C59.718 42.9869 60.3697 43.6386 61.1737 43.6386Z" fill="#50CCCD"/>
<path d="M56.8064 48.0063C57.6104 48.0063 58.2622 47.3545 58.2622 46.5505C58.2622 45.7465 57.6104 45.0947 56.8064 45.0947C56.0024 45.0947 55.3506 45.7465 55.3506 46.5505C55.3506 47.3545 56.0024 48.0063 56.8064 48.0063Z" fill="#50CCCD"/>
<path d="M66.3243 47.7442L80 39.931L65.9429 31.9489L80 23.9173L40.0007 1.20264L0 23.9173L14.0571 31.9489L0 39.931L14.0571 47.9626L0 55.9447L40.0007 78.7977L80.0014 55.9447L65.9444 47.9626L66.0477 47.9029C66.1496 47.8651 66.234 47.8039 66.3243 47.7442ZM40.0007 4.5495L74.1186 23.9246L63.0007 30.2777L40.0022 43.4176L5.88284 23.9246L40.0007 4.5495ZM16.2015 34.0787C16.4373 34.5635 16.925 34.9042 17.5 34.9042C17.8931 34.9042 18.2454 34.7455 18.5075 34.4922L21.8004 36.3731C21.0289 36.4095 20.4116 37.0354 20.4116 37.8157C20.4116 38.6193 21.0638 39.2715 21.8674 39.2715C22.671 39.2715 23.3232 38.6193 23.3232 37.8157C23.3232 37.5639 23.2431 37.3397 23.131 37.133L38.1693 45.725C38.0005 45.9623 37.8811 46.2375 37.8811 46.5505C37.8811 47.3541 38.5333 48.0063 39.3369 48.0063C40.1405 48.0063 40.7927 47.3541 40.7927 46.5505C40.7927 46.4762 40.7621 46.4136 40.7505 46.3423L55.3841 37.9817C55.4699 38.7038 56.061 39.2701 56.8064 39.2701C57.61 39.2701 58.2621 38.6179 58.2621 37.8143C58.2621 37.3412 58.0219 36.9394 57.6711 36.6744L60.8768 34.843C60.9757 34.8649 61.0689 34.9027 61.1737 34.9027C61.8201 34.9027 62.3485 34.4747 62.5393 33.8924L63.0051 33.626L74.1186 39.9368L71.2318 41.5862C71.0032 41.0811 70.4995 40.7259 69.9099 40.7259C69.1063 40.7259 68.4541 41.3781 68.4541 42.1817C68.4541 42.4961 68.575 42.7712 68.7438 43.0085L63.0007 46.2899L53.7012 51.6035C53.8147 51.3968 53.8962 51.1697 53.8962 50.9164C53.8962 50.1128 53.244 49.4606 52.4404 49.4606C51.6369 49.4606 50.9847 50.1128 50.9847 50.9164C50.9847 51.6981 51.6048 52.3241 52.3778 52.3591L49.0834 54.2414C48.8214 53.9881 48.4676 53.828 48.0731 53.828C47.2695 53.828 46.6173 54.4802 46.6173 55.2838C46.6173 55.4002 46.6581 55.5036 46.6843 55.6128L40.0022 59.4298L31.9706 54.8412C31.7813 54.2574 31.2514 53.828 30.6036 53.828C30.4973 53.828 30.4027 53.8673 30.3037 53.8891L27.0995 52.0592C27.4504 51.7928 27.692 51.3924 27.692 50.9178C27.692 50.1143 27.0398 49.4621 26.2362 49.4621C25.4909 49.4621 24.8984 50.0313 24.8139 50.7533L10.1774 42.3927C10.1876 42.3214 10.2196 42.2574 10.2196 42.1831C10.2196 41.3795 9.56745 40.7273 8.76385 40.7273C8.41592 40.7273 8.1102 40.8656 7.85981 41.0694L5.88139 39.9397L16.2015 34.0787ZM74.1171 55.952L39.9993 75.445L5.88284 55.952L16.9949 49.6411L40.0007 62.784L63.0051 49.6411L74.1171 55.952Z" fill="#50CCCD"/>
</g>
<defs>
<clipPath id="clip0">
<rect width="80" height="80" fill="white"/>
</clipPath>
</defs>
</svg>
