<svg width="80" height="80" viewBox="0 0 80 80" fill="none" xmlns="http://www.w3.org/2000/svg">
<path d="M4.06843 9.92153L0.0684329 22.052C0.00161611 22.2546 -0.0166128 22.4703 0.0152482 22.6815C0.0471092 22.8926 0.128148 23.0931 0.251686 23.2663C0.375224 23.4396 0.537725 23.5807 0.725796 23.678C0.913867 23.7753 1.12212 23.8261 1.3334 23.8261H4.00007V69.6522C4.00008 70.0096 4.14056 70.3525 4.39061 70.6052C4.64065 70.858 4.97978 71 5.3334 71H74.6666C75.0202 71 75.3594 70.858 75.6094 70.6052C75.8594 70.3525 75.9999 70.0096 75.9999 69.6522V23.8261H78.6666C78.8779 23.8261 79.0861 23.7753 79.2742 23.678C79.4623 23.5807 79.6248 23.4396 79.7483 23.2663C79.8719 23.0931 79.9529 22.8926 79.9848 22.6815C80.0166 22.4703 79.9984 22.2546 79.9316 22.052L75.9316 9.92153C75.8431 9.65317 75.6733 9.41976 75.4462 9.25437C75.2192 9.08898 74.9464 8.99999 74.6666 9H5.3334C5.05355 8.99999 4.7808 9.08898 4.55377 9.25437C4.32674 9.41976 4.15694 9.65317 4.06843 9.92153ZM6.66673 23.8261H45.3333C45.6132 23.8261 45.8859 23.7371 46.1129 23.5717C46.34 23.4063 46.5098 23.1729 46.5983 22.9046L48 18.6538V68.3043H6.66673V23.8261ZM73.3333 68.3043H50.6666V18.6538L52.0683 22.9046C52.1569 23.1729 52.3267 23.4063 52.5537 23.5717C52.7807 23.7371 53.0535 23.8261 53.3333 23.8261H73.3333V68.3043ZM73.7057 11.6957L76.8167 21.1304H54.2942L51.1833 11.6957H73.7057ZM47.4834 11.6957L44.3724 21.1304H3.18334L6.29433 11.6957H47.4834Z" fill="#50CCCD"/>
<path d="M28 53H33V56H28V53Z" fill="#50CCCD"/>
<path d="M20 53H25V56H20V53Z" fill="#50CCCD"/>
<path d="M32 59H37V62H32V59Z" fill="#50CCCD"/>
<path d="M14 59H29V62H14V59Z" fill="#50CCCD"/>
<path d="M17.5429 43.6572L22.9715 47.7286C23.2064 47.9048 23.4921 48 23.7857 48H29.2143C29.5079 48 29.7936 47.9048 30.0285 47.7286L35.4571 43.6572C35.6257 43.5308 35.7625 43.3668 35.8567 43.1784C35.9509 42.9899 36 42.7821 36 42.5714V35.7857C36 35.5622 35.9448 35.3423 35.8394 35.1453C35.734 34.9483 35.5816 34.7804 35.3956 34.6565L27.2528 29.2279C27.0298 29.0793 26.7679 29 26.5 29C26.2321 29 25.9702 29.0793 25.7472 29.2279L17.6044 34.6565C17.4184 34.7804 17.266 34.9483 17.1606 35.1453C17.0552 35.3423 17 35.5622 17 35.7857V42.5714C17 42.7821 17.0491 42.9899 17.1433 43.1784C17.2375 43.3668 17.3743 43.5308 17.5429 43.6572ZM28.7618 45.2857H24.2382L19.7143 41.8928V38.3215L25.7472 42.3434C25.9701 42.4921 26.2321 42.5714 26.5 42.5714C26.7679 42.5714 27.0299 42.4921 27.2528 42.3434L33.2857 38.3215V41.8928L28.7618 45.2857ZM26.5 31.9882L32.1963 35.7857L26.5 39.5831L20.8037 35.7857L26.5 31.9882Z" fill="#50CCCD"/>
</svg>
