<svg width="98" height="67" viewBox="0 0 98 67" fill="none" xmlns="http://www.w3.org/2000/svg">
<path d="M0.843919 58.5385H0V57.4434H3.70026C5.12843 57.4434 6.23202 57.8299 7.07594 58.6673C7.91986 59.4403 8.37428 60.5998 8.37428 62.017C8.37428 63.4342 7.91986 64.5293 7.07594 65.3667C6.23202 66.2042 5.12843 66.5907 3.70026 66.5907H1.68784C1.10359 66.5907 0.843919 66.333 0.843919 65.7532V58.5385ZM2.14226 65.1735C2.14226 65.3667 2.20717 65.4312 2.40192 65.4312H3.57043C5.64777 65.4312 6.9461 64.2072 6.9461 61.9526C6.9461 59.7624 5.64777 58.5385 3.57043 58.5385H2.07734V65.1735H2.14226Z" fill="white"/>
<path d="M9.93231 66.5263V65.4312H10.8411V58.5385H9.93231V57.4434H12.9834V58.5385H12.0746V65.4312H12.9834V66.5263H9.93231Z" fill="white"/>
<path d="M17.7872 66.5263L14.9309 58.8605C14.866 58.6673 14.7362 58.6029 14.4765 58.6029H14.2817V57.4434H14.9958C15.645 57.4434 15.8397 57.5722 16.0345 58.2164L18.0469 63.8207L18.3715 65.0446C18.5013 64.5293 18.6312 64.1428 18.6961 63.8207L20.8383 58.2164C21.0331 57.6366 21.2278 57.4434 21.9419 57.4434H22.656V58.5385H22.4613C22.2665 58.5385 22.0718 58.6029 22.0068 58.7961L19.1505 66.4618H17.7872V66.5263Z" fill="white"/>
<path d="M22.1367 66.5273V65.4322H22.3314C22.5262 65.4322 22.7209 65.3677 22.7858 65.1745L25.6422 57.5088H27.0054L29.8618 65.1745C29.9267 65.3677 30.0565 65.4322 30.3162 65.4322H30.5109V66.5273H29.7968C29.1477 66.5273 28.9529 66.3984 28.6933 65.7543L27.9792 63.9506H24.6035L23.8894 65.8187C23.6947 66.3984 23.435 66.5917 22.7858 66.5917H22.1367V66.5273ZM24.9281 62.8555H27.6546L26.6808 60.0855L26.2913 58.7971C26.1615 59.3125 26.0317 59.7634 25.9668 60.0855L24.9281 62.8555Z" fill="white"/>
<path d="M31.6794 66.5263V65.4312H32.2637C32.4584 65.4312 32.5234 65.3667 32.5234 65.1735V57.4434H33.6919L37.7816 63.1765L38.5606 64.4005C38.4957 63.8851 38.4957 63.4986 38.4957 63.1765V58.2808C38.4957 57.701 38.7554 57.4434 39.3396 57.4434H40.638V58.5385H40.0537C39.859 58.5385 39.794 58.6029 39.794 58.7961V66.4618H38.6255L34.5358 60.7287L33.7568 59.5047C33.8217 60.0201 33.8217 60.4066 33.8217 60.7287V65.6888C33.8217 66.2686 33.562 66.5263 32.9778 66.5263H31.6794Z" fill="white"/>
<path d="M42.3907 66.5266V65.1738H43.689V66.5266H42.3907Z" fill="white"/>
<path d="M46.6103 58.6028C47.5191 57.7009 48.5578 57.25 49.9211 57.25C51.1545 57.25 53.3617 57.7653 53.3617 59.2469V60.1488H52.1932V59.6335C52.1932 59.3114 51.9335 58.9893 51.4791 58.796C51.0246 58.6028 50.5053 58.4739 49.986 58.4739C49.0771 58.4739 48.2981 58.796 47.649 59.4402C46.9998 60.0844 46.7401 60.9218 46.7401 61.8881C46.7401 62.8543 47.0647 63.7562 47.7139 64.4004C48.3631 65.109 49.1421 65.431 50.0509 65.431C51.4791 65.431 52.5177 64.658 52.8423 64.3359L52.9722 64.2071L53.6862 65.109C53.6213 65.1734 53.5564 65.3022 53.102 65.6243C52.9072 65.8176 52.6476 65.9464 52.3879 66.0752C51.8686 66.3329 50.9597 66.5906 50.1158 66.5906C48.7526 66.5906 47.649 66.1396 46.8051 65.2378C45.9611 64.3359 45.5067 63.1764 45.5067 61.8237C45.2471 60.5997 45.7015 59.5046 46.6103 58.6028Z" fill="white"/>
<path d="M56.2181 58.6672C57.1269 57.7654 58.2305 57.3145 59.5937 57.3145C60.8921 57.3145 62.0606 57.7654 62.9694 58.6672C63.8782 59.5691 64.3327 60.6642 64.3327 61.9525C64.3327 63.3053 63.8782 64.4004 62.9694 65.3667C62.0606 66.2685 60.957 66.7194 59.5937 66.7194C58.2954 66.7194 57.1269 66.2685 56.2181 65.3667C55.3092 64.4648 54.8548 63.3053 54.8548 61.9525C54.8548 60.6642 55.3092 59.5047 56.2181 58.6672ZM57.1918 64.4648C57.841 65.1734 58.62 65.4955 59.5937 65.4955C60.5026 65.4955 61.3465 65.1734 61.9957 64.4648C62.6448 63.7562 62.9694 62.9188 62.9694 61.9525C62.9694 60.9863 62.6448 60.1488 61.9957 59.5047C61.3465 58.8605 60.5675 58.5384 59.5937 58.5384C58.6849 58.5384 57.841 58.8605 57.1918 59.5047C56.5426 60.1488 56.2181 60.9863 56.2181 61.9525C56.2181 62.9188 56.5426 63.7562 57.1918 64.4648Z" fill="white"/>
<path d="M65.6959 66.5273V65.4322H66.1503C66.345 65.4322 66.4099 65.3677 66.4099 65.1745L67.0591 57.5088H68.4224L70.5646 62.3401L71.019 63.4996C71.1489 63.0487 71.3436 62.6622 71.4734 62.3401L73.6157 57.5088H74.9789L75.6281 65.1745C75.6281 65.3677 75.7579 65.4322 75.8878 65.4322H76.3422V66.5273H75.1737C74.5894 66.5273 74.3947 66.334 74.3298 65.6898L73.9403 60.8585V59.5057C73.7455 60.0855 73.6157 60.5364 73.4209 60.8585L71.5384 64.8524H70.4348L68.6171 60.8585C68.4873 60.6008 68.2925 60.0211 68.1627 59.7634L68.0978 59.5057C68.0978 60.0211 68.0978 60.472 68.0978 60.8585L67.7083 65.6898C67.6434 66.2696 67.4486 66.5273 66.8644 66.5273H65.6959Z" fill="white"/>
<path d="M77.9651 66.5266V65.1738H79.2635V66.5266H77.9651Z" fill="white"/>
<path d="M80.7566 58.8605C80.7566 58.6673 80.6917 58.6029 80.4969 58.6029H79.9127V57.4434H81.211C81.7952 57.4434 82.0549 57.701 82.0549 58.2808V63.3054C82.0549 64.6581 82.8988 65.4956 84.2621 65.4956C85.6253 65.4956 86.4693 64.6581 86.4693 63.3054V58.2808C86.4693 57.701 86.7289 57.4434 87.3132 57.4434H88.6115V58.5385H88.0273C87.8325 58.5385 87.7676 58.6029 87.7676 58.7961V63.3054C87.7676 64.2716 87.443 65.1091 86.7938 65.7532C86.1447 66.333 85.3007 66.6551 84.2621 66.6551C83.2234 66.6551 82.3795 66.333 81.7303 65.7532C81.0812 65.1091 80.7566 64.3361 80.7566 63.3054V58.8605Z" fill="white"/>
<path d="M89.3906 66.5263V65.4312H89.5853C89.7801 65.4312 89.9748 65.3667 90.0397 65.1735L92.8961 57.4434H94.2593L97.1157 65.1091C97.1806 65.3023 97.3104 65.3667 97.5701 65.3667H97.7649V66.4618H97.0508C96.4016 66.4618 96.2069 66.333 95.9472 65.6888L95.2331 63.8207H91.8574L91.1433 65.6888C90.9486 66.2686 90.6889 66.4618 90.0397 66.4618H89.3906V66.5263ZM92.182 62.8544H94.9085L93.9348 60.0845L93.5453 58.7961C93.4154 59.3115 93.2856 59.7624 93.2207 60.0845L92.182 62.8544Z" fill="white"/>
<path d="M78.7595 30.1826L78.9139 30.0294C80.7667 29.1102 81.8475 27.1184 81.8475 24.9734C81.8475 21.756 79.3771 18.9982 76.2891 18.5386H75.9803V18.2321C76.1347 17.6193 76.1347 16.8532 76.1347 16.3936C76.1347 9.65231 70.5764 4.13671 63.7828 4.13671C62.3933 4.13671 61.1581 4.28992 59.9229 4.74955H59.7685L59.6141 4.59634C56.8349 1.53211 52.9749 0 48.9606 0H48.8062C44.7918 0 40.9319 1.68532 38.1527 4.59634L37.9983 4.74955H37.8439C36.6087 4.28992 35.2191 4.13671 33.9839 4.13671C27.1904 4.13671 21.632 9.65231 21.632 16.3936C21.632 17.0065 21.632 17.6193 21.7864 18.2321V18.5386H21.4776C18.2353 19.1514 15.7649 21.9092 15.7649 25.1267C15.7649 27.2716 16.8457 29.1102 18.6985 30.1826H18.8529V36.3111C18.8529 37.9964 20.2425 39.2221 21.7864 39.2221H22.2496V39.6817L21.0144 43.0524C20.86 43.512 20.86 43.9716 21.1688 44.2781C21.3232 44.7377 21.7864 45.0441 22.0952 45.1973C22.5584 45.3506 23.0216 45.3506 23.3304 45.0441C23.7936 44.8909 24.1024 44.4313 24.2568 44.1249L25.9552 39.2221H71.6572L73.3556 44.1249C73.6644 45.0441 74.5908 45.5038 75.5171 45.1973C76.4435 44.8909 76.9067 43.9716 76.5979 43.0524L75.3627 39.2221H75.8259C77.5243 39.2221 78.9139 37.8432 78.9139 36.3111V30.1826H78.7595ZM76.2891 27.2716C75.8259 27.2716 75.3627 26.9652 75.2083 26.812C74.5907 26.0459 73.51 26.0459 72.738 26.6588C72.4292 26.9652 72.1204 27.4248 72.1204 27.8845C72.1204 28.3441 72.2748 28.8037 72.5836 29.1102C73.2012 29.8762 74.1276 30.3358 75.0539 30.6423H75.3627V35.8514H22.2496V30.6423H22.5584C23.4848 30.3358 24.2568 29.8762 25.0288 29.1102C25.3376 28.8037 25.492 28.3441 25.492 27.8845C25.492 27.4248 25.1832 26.9652 24.8744 26.6588C24.5656 26.3523 24.1024 26.1991 23.6392 26.1991C23.176 26.1991 22.7128 26.5056 22.404 26.812C22.2496 26.9652 21.9408 27.2716 21.3232 27.2716C20.0881 27.2716 19.1617 26.1991 19.1617 24.9734C19.1617 23.2881 20.5512 21.9092 22.2496 21.9092C24.5656 21.9092 26.5728 23.901 26.5728 26.3523V27.4248C26.5728 28.6505 27.6536 29.723 28.8888 29.723H29.9696V26.3523C30.124 22.9817 28.1168 20.0707 25.0288 18.9982H24.8744V18.845C24.72 18.0789 24.5656 17.3129 24.5656 16.3936C24.5656 11.3376 28.7344 7.20093 33.8295 7.20093C34.4471 7.20093 35.0647 7.20093 35.6823 7.35414C36.7631 7.50735 37.8439 7.96699 38.9247 8.57983C39.5423 7.66057 40.3143 6.7413 41.0863 5.97524C43.2478 3.98349 46.027 3.06423 48.9606 2.91102C51.8942 2.91102 54.6733 3.98349 56.8349 5.82203C57.7613 6.58809 58.3789 7.50735 58.9965 8.42662C59.9229 7.81378 61.0037 7.35414 62.2389 7.20093C62.8565 7.04772 63.474 7.04772 64.0916 7.04772C69.1868 7.04772 73.3556 11.1844 73.3556 16.2404C73.3556 17.0065 73.2012 17.9257 73.0468 18.6918V18.845H72.8924C69.8044 19.9175 67.7972 22.9817 67.7972 26.1991V29.5698H68.878C70.1132 29.5698 71.194 28.4973 71.194 27.2716V26.1991C71.194 23.7478 73.2012 21.756 75.5171 21.756C77.2155 21.756 78.6051 23.1349 78.6051 24.8202C78.4507 26.3523 77.5243 27.2716 76.2891 27.2716Z" fill="white"/>
<path d="M62.2389 26.9653C56.8349 30.9488 48.8062 30.7956 48.8062 30.7956C48.8062 30.7956 40.7775 30.9488 35.3735 26.9653C34.9103 26.6589 34.7559 26.9653 34.7559 26.9653C34.7559 26.9653 34.1383 27.5781 34.7559 28.3442C36.1455 29.8763 40.4687 33.5534 48.8062 33.5534C57.1437 33.5534 61.4669 29.7231 62.8565 28.3442C63.4741 27.5781 62.8565 26.9653 62.8565 26.9653C62.8565 26.9653 62.7021 26.6589 62.2389 26.9653Z" fill="white"/>
</svg>
