<svg width="13" height="13" viewBox="0 0 13 13" fill="none" xmlns="http://www.w3.org/2000/svg">
<g clip-path="url(#clip0)">
<path d="M0.271371 2.41607C2.05557 3.92709 5.18628 6.58544 6.10644 7.41432C6.22996 7.52619 6.36245 7.58306 6.49999 7.58306C6.63725 7.58306 6.76951 7.52672 6.89276 7.41538C7.8137 6.58569 10.9444 3.92709 12.7286 2.41607C12.8397 2.32218 12.8567 2.15714 12.7667 2.04235C12.5588 1.77709 12.2489 1.625 11.9166 1.625H1.08334C0.751152 1.625 0.441158 1.77709 0.233285 2.04237C0.143352 2.15714 0.160287 2.32218 0.271371 2.41607Z" fill="#248081"/>
<path d="M12.8429 3.23472C12.7469 3.19003 12.634 3.20562 12.5541 3.27387C11.3856 4.26436 9.84603 5.57305 8.68494 6.57174C8.62385 6.62412 8.58947 6.70108 8.59079 6.78174C8.59211 6.86215 8.62941 6.93805 8.69235 6.98829C9.77121 7.85236 11.397 9.04097 12.571 9.88575C12.6179 9.91959 12.6734 9.93678 12.7292 9.93678C12.7715 9.93678 12.8138 9.92701 12.8527 9.9069C12.9432 9.86061 13 9.7675 13 9.66594V3.48043C13 3.3749 12.9386 3.2789 12.8429 3.23472Z" fill="#248081"/>
<path d="M0.429 9.886C1.60332 9.04123 3.22938 7.85264 4.30795 6.98855C4.37089 6.9383 4.40819 6.86238 4.40951 6.782C4.41083 6.70133 4.37645 6.62437 4.31537 6.57199C3.15425 5.5733 1.61441 4.26462 0.445936 3.27413C0.365523 3.20588 0.252332 3.19082 0.157117 3.23498C0.0613691 3.27916 0 3.37516 0 3.48068V9.66622C0 9.76778 0.056875 9.86089 0.147316 9.90718C0.186189 9.92729 0.228516 9.93706 0.270842 9.93706C0.32665 9.93706 0.38218 9.91987 0.429 9.886Z" fill="#248081"/>
<path d="M12.6681 10.6228C11.5342 9.81163 9.44557 8.2993 8.19879 7.28736C8.09723 7.20458 7.95016 7.20723 7.8502 7.29345C7.60556 7.50689 7.40084 7.68675 7.25563 7.81739C6.80969 8.21993 6.1908 8.21993 5.74382 7.81686C5.59914 7.68647 5.39445 7.50607 5.14978 7.29343C5.05061 7.20667 4.90329 7.20403 4.80145 7.28733C3.55888 8.29583 1.46786 9.81 0.332164 10.6228C0.268941 10.6683 0.228214 10.7384 0.220293 10.8159C0.212625 10.8933 0.238269 10.9703 0.291437 11.0274C0.496441 11.2483 0.785259 11.375 1.08335 11.375H11.9167C12.2148 11.375 12.5033 11.2483 12.7088 11.0275C12.7617 10.9706 12.7876 10.8936 12.78 10.8161C12.772 10.7387 12.7313 10.6683 12.6681 10.6228Z" fill="#248081"/>
</g>
<defs>
<clipPath id="clip0">
<rect width="13" height="13" fill="white"/>
</clipPath>
</defs>
</svg>
