<svg width="13" height="13" viewBox="0 0 13 13" fill="none" xmlns="http://www.w3.org/2000/svg">
<path d="M6.38978 0.399902C4.05389 0.399902 2.15346 2.30033 2.15346 4.63622C2.15346 7.57218 6.39394 12.5874 6.39394 12.5874C6.39394 12.5874 10.6261 7.4278 10.6261 4.63622C10.6261 2.30033 8.72574 0.399902 6.38978 0.399902ZM7.66796 5.87662C7.31552 6.22898 6.85268 6.40521 6.38978 6.40521C5.92694 6.40521 5.46396 6.22898 5.11167 5.87662C4.40685 5.17188 4.40685 4.02513 5.11167 3.32032C5.45295 2.97889 5.90693 2.79084 6.38978 2.79084C6.87262 2.79084 7.32653 2.97896 7.66796 3.32032C8.37277 4.02513 8.37277 5.17188 7.66796 5.87662Z" fill="#248081"/>
</svg>
