<svg width="24" height="24" viewBox="0 0 24 24" fill="none" xmlns="http://www.w3.org/2000/svg">
<g clip-path="url(#clip0)">
<path d="M16.7408 14.0742C16.003 14.0742 15.2889 13.9556 14.6252 13.7364C14.4208 13.6712 14.1867 13.7186 14.0238 13.8816L12.7201 15.1882C11.0401 14.3349 9.6682 12.9631 8.81487 11.286L10.1186 9.97639C10.2815 9.81341 10.3289 9.57936 10.2638 9.37491C10.0445 8.71122 9.92598 7.99714 9.92598 7.25936C9.92595 6.93044 9.66226 6.66675 9.33337 6.66675H7.25929C6.93337 6.66675 6.6667 6.93044 6.6667 7.25933C6.6667 12.8238 11.1763 17.3334 16.7408 17.3334C17.0697 17.3334 17.3334 17.0697 17.3334 16.7408V14.6667C17.3334 14.3379 17.0697 14.0742 16.7408 14.0742Z" fill="white"/>
</g>
<circle cx="12" cy="12" r="11.5" stroke="white"/>
<defs>
<clipPath id="clip0">
<rect width="10.6667" height="10.6667" fill="white" transform="translate(6.6667 6.66675)"/>
</clipPath>
</defs>
</svg>
