<svg width="41" height="28" viewBox="0 0 41 28" fill="none" xmlns="http://www.w3.org/2000/svg">
<path d="M38.9119 18.6439L39.0073 18.5492C40.1518 17.9814 40.8194 16.7511 40.8194 15.4262C40.8194 13.4387 39.2934 11.7352 37.386 11.4513H37.1952V11.262C37.2906 10.8835 37.2906 10.4103 37.2906 10.1264C37.2906 5.96226 33.8572 2.55525 29.6608 2.55525C28.8025 2.55525 28.0395 2.64989 27.2765 2.93381H27.1811L27.0858 2.83917C25.3691 0.94639 22.9847 0 20.5051 0H20.4097C17.93 0 15.5457 1.04103 13.829 2.83917L13.7336 2.93381H13.6382C12.8753 2.64989 12.0169 2.55525 11.2539 2.55525C7.05756 2.55525 3.62415 5.96226 3.62415 10.1264C3.62415 10.5049 3.62415 10.8835 3.71952 11.262V11.4513H3.52878C1.52596 11.8299 0 13.5334 0 15.5208C0 16.8457 0.667607 17.9814 1.81208 18.6439H1.90745V22.4294C1.90745 23.4705 2.7658 24.2276 3.71952 24.2276H4.00564V24.5115L3.24266 26.5936C3.14729 26.8775 3.14729 27.1614 3.33803 27.3507C3.43341 27.6346 3.71952 27.8239 3.91027 27.9185C4.19638 28.0131 4.4825 28.0131 4.67325 27.8239C4.95936 27.7292 5.15011 27.4453 5.24548 27.256L6.29458 24.2276H34.5248L35.5739 27.256C35.7646 27.8239 36.3369 28.1078 36.9091 27.9185C37.4813 27.7292 37.7675 27.1614 37.5767 26.5936L36.8137 24.2276H37.0999C38.149 24.2276 39.0073 23.3758 39.0073 22.4294V18.6439H38.9119ZM37.386 16.8457C37.0999 16.8457 36.8137 16.6565 36.7184 16.5618C36.3369 16.0886 35.6693 16.0886 35.1924 16.4672C35.0017 16.6565 34.8109 16.9404 34.8109 17.2243C34.8109 17.5082 34.9063 17.7921 35.097 17.9814C35.4785 18.4546 36.0508 18.7385 36.623 18.9278H36.8137V22.1455H4.00564V18.9278H4.19638C4.76862 18.7385 5.24548 18.4546 5.72234 17.9814C5.91309 17.7921 6.00846 17.5082 6.00846 17.2243C6.00846 16.9404 5.81771 16.6565 5.62697 16.4672C5.43623 16.2779 5.15011 16.1833 4.86399 16.1833C4.57787 16.1833 4.29176 16.3725 4.10101 16.5618C4.00564 16.6565 3.81489 16.8457 3.43341 16.8457C2.67043 16.8457 2.09819 16.1833 2.09819 15.4262C2.09819 14.3851 2.95654 13.5334 4.00564 13.5334C5.43622 13.5334 6.67607 14.7637 6.67607 16.2779V16.9404C6.67607 17.6975 7.34367 18.36 8.10665 18.36H8.77426V16.2779C8.86963 14.1959 7.62979 12.3977 5.72234 11.7352H5.62697V11.6406C5.5316 11.1674 5.43622 10.6942 5.43622 10.1264C5.43622 7.00329 8.01128 4.44803 11.1586 4.44803C11.5401 4.44803 11.9215 4.44803 12.303 4.54267C12.9706 4.63731 13.6382 4.92123 14.3059 5.29978C14.6873 4.73195 15.1642 4.16412 15.6411 3.69092C16.9763 2.46061 18.693 1.89278 20.5051 1.79814C22.3171 1.79814 24.0338 2.46061 25.3691 3.59628C25.9413 4.06948 26.3228 4.63731 26.7043 5.20515C27.2765 4.82659 27.9441 4.54267 28.7071 4.44803C29.0886 4.35339 29.4701 4.35339 29.8516 4.35339C32.9988 4.35339 35.5739 6.90865 35.5739 10.0317C35.5739 10.5049 35.4785 11.0728 35.3831 11.546V11.6406H35.2878C33.3803 12.3031 32.1405 14.1959 32.1405 16.1833V18.2653H32.8081C33.5711 18.2653 34.2387 17.6029 34.2387 16.8457V16.1833C34.2387 14.669 35.4785 13.4387 36.9091 13.4387C37.9582 13.4387 38.8166 14.2905 38.8166 15.3315C38.7212 16.2779 38.1489 16.8457 37.386 16.8457Z" fill="white"/>
<path d="M28.7071 16.6566C25.369 19.1172 20.4097 19.0226 20.4097 19.0226C20.4097 19.0226 15.4503 19.1172 12.1123 16.6566C11.8262 16.4674 11.7308 16.6566 11.7308 16.6566C11.7308 16.6566 11.3493 17.0352 11.7308 17.5084C12.5891 18.4548 15.2596 20.7261 20.4097 20.7261C25.5598 20.7261 28.2302 18.3601 29.0886 17.5084C29.47 17.0352 29.0886 16.6566 29.0886 16.6566C29.0886 16.6566 28.9932 16.4674 28.7071 16.6566Z" fill="white"/>
</svg>
