<svg width="304" height="61" viewBox="0 0 304 61" fill="none" xmlns="http://www.w3.org/2000/svg">
<path d="M114.179 23.5232H112.526V21.3785H119.773C122.57 21.3785 124.732 22.1355 126.385 23.7756C128.037 25.2895 128.927 27.5605 128.927 30.336C128.927 33.1116 128.037 35.2564 126.385 36.8965C124.732 38.5366 122.57 39.2936 119.773 39.2936H115.832C114.688 39.2936 114.179 38.789 114.179 37.6535V23.5232ZM116.722 36.518C116.722 36.8965 116.849 37.0227 117.23 37.0227H119.519C123.587 37.0227 126.13 34.6256 126.13 30.2099C126.13 25.9203 123.587 23.5232 119.519 23.5232H116.595V36.518H116.722Z" fill="#666666"/>
<path d="M131.979 39.1674V37.0227H133.759V23.5232H131.979V21.3785H137.954V23.5232H136.174V37.0227H137.954V39.1674H131.979Z" fill="#666666"/>
<path d="M147.363 39.1674L141.769 24.1541C141.641 23.7756 141.387 23.6494 140.879 23.6494H140.497V21.3785H141.896C143.167 21.3785 143.549 21.6308 143.93 22.8924L147.871 33.8686L148.507 36.2657C148.761 35.2564 149.016 34.4994 149.143 33.8686L153.338 22.8924C153.72 21.757 154.101 21.3785 155.5 21.3785H156.898V23.5232H156.517C156.135 23.5232 155.754 23.6494 155.627 24.0279L150.033 39.0413H147.363V39.1674Z" fill="#666666"/>
<path d="M155.881 39.1674V37.0227H156.263C156.644 37.0227 157.025 36.8965 157.153 36.518L162.747 21.5046H165.417L171.011 36.518C171.138 36.8965 171.392 37.0227 171.901 37.0227H172.282V39.1674H170.884C169.612 39.1674 169.231 38.9151 168.722 37.6535L167.324 34.1209H160.713L159.314 37.7797C158.933 38.9151 158.424 39.2936 157.153 39.2936H155.881V39.1674ZM161.348 31.9762H166.688L164.781 26.5512L164.018 24.0279C163.764 25.0372 163.51 25.9203 163.382 26.5512L161.348 31.9762Z" fill="#666666"/>
<path d="M174.571 39.1674V37.0227H175.715C176.097 37.0227 176.224 36.8965 176.224 36.518V21.3785H178.512L186.522 32.607L188.048 35.0041C187.921 33.9948 187.921 33.2378 187.921 32.607V23.0186C187.921 21.8831 188.429 21.3785 189.573 21.3785H192.116V23.5232H190.972C190.591 23.5232 190.463 23.6494 190.463 24.0279V39.0413H188.175L180.165 27.8128L178.639 25.4157C178.767 26.425 178.767 27.182 178.767 27.8128V37.5273C178.767 38.6628 178.258 39.1674 177.114 39.1674H174.571Z" fill="#666666"/>
<path d="M195.549 39.1674V36.518H198.092V39.1674H195.549Z" fill="#666666"/>
<path d="M203.813 23.6494C205.593 21.8831 207.627 21 210.297 21C212.713 21 217.036 22.0093 217.036 24.9111V26.6773H214.747V25.668C214.747 25.0372 214.239 24.4064 213.349 24.0279C212.459 23.6494 211.442 23.3971 210.424 23.3971C208.645 23.3971 207.119 24.0279 205.847 25.2895C204.576 26.5512 204.067 28.1913 204.067 30.0837C204.067 31.9762 204.703 33.7425 205.975 35.0041C207.246 36.3919 208.772 37.0227 210.552 37.0227C213.349 37.0227 215.383 35.5087 216.019 34.8779L216.273 34.6256L217.671 36.3919C217.544 36.518 217.417 36.7704 216.527 37.4012C216.146 37.7797 215.637 38.032 215.129 38.2843C214.112 38.789 212.332 39.2936 210.679 39.2936C208.009 39.2936 205.847 38.4105 204.195 36.6442C202.542 34.8779 201.652 32.607 201.652 29.9576C201.143 27.5605 202.033 25.4157 203.813 23.6494Z" fill="#666666"/>
<path d="M222.63 23.7756C224.41 22.0093 226.571 21.1262 229.241 21.1262C231.784 21.1262 234.073 22.0093 235.853 23.7756C237.633 25.5419 238.523 27.6866 238.523 30.2099C238.523 32.8593 237.633 35.0041 235.853 36.8965C234.073 38.6628 231.911 39.5459 229.241 39.5459C226.699 39.5459 224.41 38.6628 222.63 36.8965C220.85 35.1302 219.96 32.8593 219.96 30.2099C219.96 27.6866 220.85 25.4157 222.63 23.7756ZM224.537 35.1302C225.809 36.518 227.334 37.1489 229.241 37.1489C231.021 37.1489 232.674 36.518 233.946 35.1302C235.217 33.7425 235.853 32.1023 235.853 30.2099C235.853 28.3174 235.217 26.6773 233.946 25.4157C232.674 24.1541 231.148 23.5233 229.241 23.5233C227.461 23.5233 225.809 24.1541 224.537 25.4157C223.266 26.6773 222.63 28.3174 222.63 30.2099C222.63 32.1023 223.266 33.7425 224.537 35.1302Z" fill="#666666"/>
<path d="M241.192 39.1674V37.0227H242.082C242.464 37.0227 242.591 36.8965 242.591 36.518L243.862 21.5046H246.532L250.728 30.9669L251.618 33.2378C251.872 32.3547 252.254 31.5977 252.508 30.9669L256.704 21.5046H259.374L260.645 36.518C260.645 36.8965 260.899 37.0227 261.153 37.0227H262.043V39.1674H259.755C258.611 39.1674 258.229 38.789 258.102 37.5273L257.339 28.0651V25.4157C256.958 26.5512 256.704 27.4343 256.322 28.0651L252.635 35.8872H250.474L246.914 28.0651C246.66 27.5605 246.278 26.425 246.024 25.9203L245.897 25.4157C245.897 26.425 245.897 27.3081 245.897 28.0651L245.134 37.5273C245.007 38.6628 244.625 39.1674 243.481 39.1674H241.192Z" fill="#666666"/>
<path d="M265.222 39.1674V36.518H267.765V39.1674H265.222Z" fill="#666666"/>
<path d="M270.689 24.1541C270.689 23.7756 270.562 23.6494 270.18 23.6494H269.036V21.3785H271.579C272.723 21.3785 273.232 21.8831 273.232 23.0186V32.8593C273.232 35.5087 274.885 37.1488 277.555 37.1488C280.225 37.1488 281.877 35.5087 281.877 32.8593V23.0186C281.877 21.8831 282.386 21.3785 283.53 21.3785H286.073V23.5232H284.929C284.547 23.5232 284.42 23.6494 284.42 24.0279V32.8593C284.42 34.7517 283.784 36.3919 282.513 37.6535C281.242 38.789 279.589 39.4198 277.555 39.4198C275.52 39.4198 273.868 38.789 272.596 37.6535C271.325 36.3919 270.689 34.8779 270.689 32.8593V24.1541Z" fill="#666666"/>
<path d="M287.599 39.1674V37.0227H287.98C288.362 37.0227 288.743 36.8965 288.87 36.518L294.464 21.3785H297.134L302.729 36.3919C302.856 36.7704 303.11 36.8965 303.619 36.8965H304V39.0413H302.601C301.33 39.0413 300.949 38.789 300.44 37.5273L299.042 33.8686H292.43L291.032 37.5273C290.65 38.6628 290.142 39.0413 288.87 39.0413H287.599V39.1674ZM293.066 31.9762H298.406L296.499 26.5512L295.736 24.0279C295.482 25.0372 295.227 25.9203 295.1 26.5512L293.066 31.9762Z" fill="#666666"/>
<path d="M83.6261 40.0678L83.8311 39.8644C86.2907 38.6441 87.7254 36 87.7254 33.1525C87.7254 28.8814 84.446 25.2203 80.3466 24.6102H79.9367V24.2034C80.1417 23.3898 80.1417 22.3729 80.1417 21.7627C80.1417 12.8136 72.7629 5.49153 63.7444 5.49153C61.8997 5.49153 60.26 5.69491 58.6203 6.30508H58.4153L58.2103 6.10169C54.5209 2.0339 49.3968 0 44.0677 0H43.8627C38.5336 0 33.4094 2.23729 29.7201 6.10169L29.5151 6.30508H29.3101C27.6704 5.69491 25.8257 5.49153 24.186 5.49153C15.1675 5.49153 7.7887 12.8136 7.7887 21.7627C7.7887 22.5763 7.78871 23.3898 7.99367 24.2034V24.6102H7.58374C3.27946 25.4237 0 29.0847 0 33.3559C0 36.2034 1.43476 38.6441 3.89435 40.0678H4.09932V48.2034C4.09932 50.4407 5.94401 52.0678 7.99367 52.0678H8.60857V52.678L6.96884 57.1525C6.76388 57.7627 6.76388 58.3729 7.17381 58.7797C7.37877 59.3898 7.99367 59.7966 8.4036 60C9.0185 60.2034 9.6334 60.2034 10.0433 59.7966C10.6582 59.5932 11.0682 58.983 11.2731 58.5763L13.5278 52.0678H74.1977L76.4523 58.5763C76.8622 59.7966 78.092 60.4068 79.3218 60C80.5516 59.5932 81.1665 58.3729 80.7566 57.1525L79.1168 52.0678H79.7318C81.9864 52.0678 83.8311 50.2373 83.8311 48.2034V40.0678H83.6261ZM80.3466 36.2034C79.7317 36.2034 79.1168 35.7966 78.9119 35.5932C78.092 34.5763 76.6573 34.5763 75.6324 35.3898C75.2225 35.7966 74.8126 36.4068 74.8126 37.0169C74.8126 37.6271 75.0175 38.2373 75.4275 38.6441C76.2473 39.661 77.4771 40.2712 78.7069 40.678H79.1168V47.5932H8.60857V40.678H9.0185C10.2483 40.2712 11.2731 39.661 12.298 38.6441C12.7079 38.2373 12.9129 37.6271 12.9129 37.0169C12.9129 36.4068 12.5029 35.7966 12.093 35.3898C11.6831 34.983 11.0682 34.7797 10.4533 34.7797C9.83836 34.7797 9.22347 35.1864 8.81353 35.5932C8.60857 35.7966 8.19864 36.2034 7.37877 36.2034C5.73905 36.2034 4.50925 34.7797 4.50925 33.1525C4.50925 30.9152 6.35394 29.0847 8.60857 29.0847C11.6831 29.0847 14.3476 31.7288 14.3476 34.983V36.4068C14.3476 38.0339 15.7824 39.4576 17.4221 39.4576H18.8569V34.983C19.0618 30.5085 16.3973 26.6441 12.298 25.2203H12.093V25.0169C11.888 24 11.6831 22.983 11.6831 21.7627C11.6831 15.0508 17.2171 9.55932 23.981 9.55932C24.8009 9.55932 25.6207 9.55932 26.4406 9.76271C27.8754 9.9661 29.3101 10.5763 30.7449 11.3898C31.5648 10.1695 32.5896 8.94915 33.6144 7.9322C36.4839 5.28814 40.1733 4.0678 44.0677 3.86441C47.962 3.86441 51.6514 5.28814 54.5209 7.72881C55.7507 8.74576 56.5706 9.9661 57.3905 11.1864C58.6203 10.3729 60.055 9.76271 61.6947 9.55932C62.5146 9.35593 63.3345 9.35593 64.1543 9.35593C70.9182 9.35593 76.4523 14.8475 76.4523 21.5593C76.4523 22.5763 76.2473 23.7966 76.0424 24.8136V25.0169H75.8374C71.7381 26.4407 69.0735 30.5085 69.0735 34.7797V39.2542H70.5083C72.148 39.2542 73.5828 37.8305 73.5828 36.2034V34.7797C73.5828 31.5254 76.2473 28.8814 79.3218 28.8814C81.5764 28.8814 83.4211 30.7119 83.4211 32.9492C83.2162 34.983 81.9864 36.2034 80.3466 36.2034Z" fill="#50CCCD"/>
<path d="M61.6947 35.7966C54.5209 41.0847 43.8627 40.8814 43.8627 40.8814C43.8627 40.8814 33.2045 41.0847 26.0307 35.7966C25.4158 35.3898 25.2108 35.7966 25.2108 35.7966C25.2108 35.7966 24.391 36.6102 25.2108 37.6271C27.0555 39.661 32.7946 44.5424 43.8627 44.5424C54.9309 44.5424 60.6699 39.4576 62.5146 37.6271C63.3345 36.6102 62.5146 35.7966 62.5146 35.7966C62.5146 35.7966 62.3096 35.3898 61.6947 35.7966Z" fill="#50CCCD"/>
</svg>
