<svg width="112" height="32" viewBox="0 0 112 32" fill="none" xmlns="http://www.w3.org/2000/svg">
<g opacity="0.67" clip-path="url(#clip0)">
<path d="M93.0287 0V4.83333H92.2455V4.5C92.0715 4.66667 91.9845 4.75 91.7234 4.83333C91.5493 4.91667 91.2883 4.91667 91.0272 4.91667C90.6791 4.91667 90.418 4.83333 90.157 4.66667C89.8959 4.5 89.7218 4.33333 89.5478 4.08333C89.3737 3.83333 89.2867 3.5 89.2867 3.16667C89.2867 2.83333 89.3737 2.5 89.5478 2.25C89.7218 2 89.8959 1.83333 90.157 1.66667C90.418 1.5 90.7661 1.41667 91.0272 1.41667C91.2883 1.41667 91.4623 1.41667 91.6364 1.5C91.8104 1.58333 91.9845 1.66667 92.1585 1.83333V0H93.0287ZM91.7234 4.16667C91.8974 4.08333 91.9845 4 92.0715 3.83333C92.1585 3.66667 92.2455 3.5 92.2455 3.25C92.2455 3.08333 92.1585 2.83333 92.0715 2.66667C91.9845 2.5 91.8974 2.41667 91.7234 2.33333C91.5493 2.25 91.3753 2.16667 91.2012 2.16667C91.0272 2.16667 90.8531 2.25 90.6791 2.33333C90.505 2.41667 90.418 2.5 90.331 2.66667C90.244 2.83333 90.157 3 90.157 3.25C90.157 3.5 90.244 3.66667 90.331 3.83333C90.418 4 90.505 4.08333 90.6791 4.16667C90.8531 4.25 91.0272 4.33333 91.2012 4.33333C91.3753 4.25 91.5493 4.25 91.7234 4.16667Z" fill="#248081"/>
<path d="M97.2929 3.50016H94.5952C94.6822 3.75016 94.7692 3.91683 94.9433 4.0835C95.1173 4.25016 95.3784 4.3335 95.7265 4.3335C96.0746 4.3335 96.4227 4.25016 96.6838 4.00016L97.1189 4.50016C96.9448 4.66683 96.7708 4.8335 96.5097 4.91683C96.2486 5.00016 95.9876 5.0835 95.7265 5.0835C95.3784 5.0835 95.0303 5.00016 94.6822 4.8335C94.4211 4.66683 94.1601 4.50016 93.986 4.25016C93.812 4.00016 93.7249 3.66683 93.7249 3.3335C93.7249 3.00016 93.812 2.75016 93.986 2.41683C94.1601 2.16683 94.3341 1.91683 94.5952 1.8335C94.8563 1.66683 95.2044 1.5835 95.5525 1.5835C95.9006 1.5835 96.1616 1.66683 96.4227 1.8335C96.6838 2.00016 96.8578 2.16683 97.0319 2.41683C97.2059 2.66683 97.2929 3.00016 97.2929 3.3335C97.38 3.3335 97.38 3.3335 97.2929 3.50016ZM94.9433 2.3335C94.7692 2.50016 94.6822 2.66683 94.5952 2.91683H96.5967C96.5967 2.66683 96.4227 2.50016 96.2486 2.3335C96.0746 2.16683 95.8135 2.0835 95.5525 2.0835C95.2914 2.16683 95.1173 2.25016 94.9433 2.3335Z" fill="#248081"/>
<path d="M98.4242 4.8335C98.1632 4.75016 97.9021 4.66683 97.8151 4.5835L98.1632 4.00016C98.3372 4.0835 98.5113 4.16683 98.7723 4.25016C99.0334 4.3335 99.2074 4.3335 99.3815 4.3335C99.9036 4.3335 100.078 4.25016 100.078 4.00016C100.078 3.91683 99.9907 3.8335 99.9036 3.75016C99.8166 3.66683 99.5555 3.66683 99.2945 3.5835C99.0334 3.50016 98.7723 3.50016 98.5983 3.41683C98.4242 3.3335 98.2502 3.25016 98.1632 3.16683C97.9891 3.00016 97.9891 2.8335 97.9891 2.5835C97.9891 2.25016 98.1632 2.00016 98.4242 1.8335C98.6853 1.66683 99.0334 1.5835 99.5555 1.5835C99.8166 1.5835 99.9907 1.5835 100.252 1.66683C100.513 1.75016 100.687 1.75016 100.861 1.91683L100.513 2.50016C100.252 2.3335 99.9036 2.25016 99.5555 2.25016C99.2945 2.25016 99.1204 2.25016 99.0334 2.3335C98.9464 2.41683 98.8593 2.50016 98.8593 2.5835C98.8593 2.75016 98.9464 2.8335 99.0334 2.8335C99.2075 2.91683 99.3815 2.91683 99.6426 3.00016C99.9036 3.00016 100.165 3.0835 100.339 3.16683C100.513 3.25016 100.687 3.3335 100.774 3.41683C100.861 3.5835 100.948 3.75016 100.948 4.00016C100.948 4.3335 100.774 4.5835 100.513 4.75016C100.252 4.91683 99.8166 5.00016 99.3815 5.00016C98.9464 4.91683 98.6853 4.91683 98.4242 4.8335Z" fill="#248081"/>
<path d="M101.557 0.833333C101.47 0.75 101.383 0.666667 101.383 0.5C101.383 0.333333 101.47 0.25 101.557 0.166667C101.644 0.0833333 101.818 0 101.905 0C102.079 0 102.166 0.0833333 102.253 0.166667C102.34 0.25 102.427 0.333333 102.427 0.5C102.427 0.666667 102.34 0.75 102.253 0.833333C102.166 0.916667 101.992 1 101.905 1C101.731 1 101.644 0.916667 101.557 0.833333ZM101.47 1.58333H102.253V4.91667H101.47V1.58333Z" fill="#248081"/>
<path d="M106.866 1.5835V4.41683C106.866 5.5835 106.256 6.16683 104.951 6.16683C104.603 6.16683 104.255 6.16683 103.994 6.0835C103.733 6.00016 103.472 5.91683 103.211 5.75016L103.559 5.16683C103.733 5.25016 103.907 5.41683 104.168 5.41683C104.429 5.50016 104.603 5.50016 104.864 5.50016C105.212 5.50016 105.56 5.41683 105.734 5.25016C105.908 5.0835 105.995 4.8335 105.995 4.50016V4.3335C105.821 4.50016 105.647 4.5835 105.473 4.66683C105.299 4.75016 105.038 4.75016 104.777 4.75016C104.429 4.75016 104.168 4.66683 103.907 4.5835C103.646 4.41683 103.472 4.25016 103.298 4.00016C103.124 3.75016 103.037 3.50016 103.037 3.16683C103.037 2.8335 103.124 2.5835 103.298 2.3335C103.472 2.0835 103.646 1.91683 103.907 1.75016C104.168 1.5835 104.516 1.5835 104.777 1.5835C105.038 1.5835 105.299 1.5835 105.473 1.66683C105.647 1.75016 105.821 1.8335 105.995 2.00016V1.5835H106.866ZM105.734 3.8335C105.908 3.66683 105.995 3.41683 105.995 3.16683C105.995 2.91683 105.908 2.66683 105.734 2.50016C105.56 2.3335 105.299 2.25016 104.951 2.25016C104.603 2.25016 104.342 2.3335 104.168 2.50016C103.994 2.66683 103.907 2.91683 103.907 3.16683C103.907 3.41683 103.994 3.66683 104.168 3.8335C104.342 4.00016 104.603 4.0835 104.951 4.0835C105.299 4.0835 105.56 4.00016 105.734 3.8335Z" fill="#248081"/>
<path d="M110.956 1.91667C111.217 2.16667 111.391 2.5 111.391 3V4.91667H110.521V3.08333C110.521 2.75 110.434 2.58333 110.347 2.41667C110.172 2.25 109.998 2.16667 109.737 2.16667C109.476 2.16667 109.215 2.25 109.041 2.41667C108.867 2.58333 108.78 2.83333 108.78 3.16667V4.83333H107.91V1.5H108.693V1.91667C108.867 1.75 109.041 1.66667 109.215 1.58333C109.389 1.5 109.65 1.5 109.911 1.5C110.347 1.5 110.695 1.66667 110.956 1.91667Z" fill="#248081"/>
<path d="M0 2.41667V0H5.22145C7.91919 0 9.92075 1.5 9.92075 4V8.16667C9.92075 9.83333 9.13753 11 7.65812 11.6667C9.31158 12.3333 10.0948 13.5 10.0948 15.25V20.1667C10.0948 22.6667 8.09324 24.1667 5.48252 24.1667H0V21.6667H0.696193V2.41667H0ZM3.82906 10.5H5.22145C6.09169 10.5 6.78788 9.91667 6.78788 8.91667V3.91667C6.78788 3 6.09169 2.41667 5.22145 2.41667H3.82906V10.5ZM3.82906 12.9167V21.6667H5.30847C6.17871 21.6667 6.8749 21.0833 6.8749 20.0833V14.4167C6.8749 13.5 6.17871 12.8333 5.30847 12.8333H3.82906V12.9167Z" fill="#248081"/>
<path d="M12.3574 12.6667V8C13.5758 7.16667 15.0552 6.75 16.9697 6.75C19.5804 6.75 21.582 8.25 21.582 10.75V21.6667H22.2782V24.0833H18.4491V22.6667C17.5789 23.75 16.4476 24.25 15.0552 24.25C13.4887 24.25 12.2704 23.1667 12.2704 21.5V18C12.2704 15.5833 13.8368 14.3333 16.2735 14L18.4491 13.75V10.5833C18.4491 9.66667 17.8399 9 16.9697 9C16.4476 9 15.9254 9.16667 15.6643 9.33333L15.4903 9.41667V12.5H12.3574V12.6667ZM18.4491 16.25L16.9697 16.4167C15.9254 16.5 15.4033 17.0833 15.4033 18V20.6667C15.4033 21.3333 15.8384 21.8333 16.4476 21.8333C17.4918 21.8333 18.4491 21.0833 18.4491 19.8333V16.25Z" fill="#248081"/>
<path d="M24.1057 12.6665V6.9165H33.2432V8.33317L27.7607 21.6665H30.8936V18.3332H33.3302V24.0832H24.1057V22.6665L29.6752 9.24984H26.4553V12.5832H24.1057V12.6665Z" fill="#248081"/>
<path d="M35.3318 24.0833V21.6667H36.028V9.33333H35.3318V6.91667H39.1608V21.6667H39.857V24.0833H35.3318ZM36.115 3.75V0H39.2479V3.75H36.115Z" fill="#248081"/>
<path d="M41.7716 2.41667V0H45.6006V21.6667H46.2968V24.0833H41.7716V21.6667H42.4678V2.41667H41.7716Z" fill="#248081"/>
<path d="M57.697 16.4165H51.5183V20.2498C51.5183 21.2498 52.1274 21.8332 52.9977 21.8332C53.8679 21.8332 54.5641 21.2498 54.5641 20.2498V18.3332H57.697V20.3332C57.697 22.8332 55.6954 24.3332 52.9977 24.3332C50.387 24.3332 48.3854 22.8332 48.3854 20.3332V10.6665C48.3854 8.1665 50.387 6.6665 52.9977 6.6665C55.6084 6.6665 57.697 8.1665 57.697 10.6665V16.4165ZM51.5183 14.0832H54.5641V10.7498C54.5641 9.74984 53.955 9.1665 52.9977 9.1665C52.1274 9.1665 51.5183 9.74984 51.5183 10.7498V14.0832Z" fill="#248081"/>
<path d="M66.0513 9.33317V6.9165H70.5765V9.33317H69.7063L66.8345 24.1665H62.7444L59.8726 9.33317H59.0023V6.9165H62.6573L64.7459 21.5832H64.8329L66.6604 9.24984H66.0513V9.33317Z" fill="#248081"/>
<path d="M77.9736 9.5835C77.5385 9.25016 77.1033 9.16683 76.5812 9.16683C75.798 9.16683 75.1888 9.75016 75.1888 10.6668V12.5002C75.1888 13.4168 76.6682 14.0835 78.1476 14.5002C79.7141 14.9168 81.1935 16.0835 81.1935 18.0002V20.3335C81.1935 22.7502 79.1919 24.2502 76.5812 24.2502C74.9277 24.2502 73.2743 23.6668 72.5781 23.2502L72.0559 22.9168V18.3335H75.1888V21.4168C75.6239 21.7502 76.059 21.8335 76.6682 21.8335C77.5385 21.8335 78.1476 21.2502 78.1476 20.3335V18.0002C78.1476 15.8335 72.143 16.6668 72.143 12.4168V10.5002C72.143 8.16683 74.0575 6.5835 76.6682 6.5835C78.3217 6.5835 79.9751 7.16683 80.6713 7.5835L81.1935 7.91683V12.5835H78.0606V9.5835H77.9736Z" fill="#248081"/>
<path d="M83.2821 24.0833V21.6667H83.9783V2.41667H83.2821V0H87.1111V14.0833H88.0684L89.8089 9.33333H89.1997V6.91667H93.725V9.33333H92.8547L90.331 15.25L92.9417 21.75H93.812V24.1667H90.5921L88.0684 16.4167H87.1111V21.6667H87.8073V24.0833H83.2821Z" fill="#248081"/>
<path d="M101.383 9.33317V6.9165H105.212V28.0832C105.212 30.5832 103.211 32.0832 100.6 32.0832C98.9464 32.0832 97.2059 31.5832 96.5097 31.0832L95.9876 30.7498V26.6665H99.1204V29.1665C99.5556 29.4998 99.9907 29.5832 100.6 29.5832C101.383 29.5832 102.079 28.9998 102.079 27.9998V22.5832C101.209 23.6665 100.078 24.1665 98.7723 24.1665C97.1189 24.1665 95.9005 23.0832 95.9005 21.3332V9.33317H95.2044V6.9165H99.0334V20.6665C99.0334 21.4165 99.5556 21.8332 100.165 21.8332C101.296 21.8332 102.079 21.0832 102.079 19.8332V9.33317H101.383Z" fill="#248081"/>
<path d="M107.388 24.0832V21.6665H108.171V9.33317H107.388V6.9165H111.304V21.6665H112V24.0832H107.388Z" fill="#248081"/>
</g>
<defs>
<clipPath id="clip0">
<rect width="112" height="32" fill="white"/>
</clipPath>
</defs>
</svg>
