<svg width="80" height="80" viewBox="0 0 80 80" fill="none" xmlns="http://www.w3.org/2000/svg">
<g clip-path="url(#clip0)">
<path fill-rule="evenodd" clip-rule="evenodd" d="M40.108 0C41.9867 0 43.2831 1.48132 44.5673 2.94861C45.3277 3.81775 46.0815 4.67896 46.543 4.76257C47.0154 4.84863 48.0298 4.28528 49.0381 3.72498C50.7062 2.79785 52.3651 1.87683 54.0637 2.50916C55.7812 3.1488 56.4246 4.94934 57.0654 6.74377C57.4451 7.80579 57.8229 8.86414 58.1842 9.07593C58.5461 9.28772 59.6588 9.09302 60.7696 8.89893C62.6349 8.57239 64.4977 8.24646 65.8807 9.41284C67.2565 10.5737 67.2479 12.4689 67.2394 14.364C67.2345 15.4828 67.229 16.6016 67.4994 16.922C67.7698 17.243 68.8721 17.4286 69.975 17.6141C71.8469 17.9297 73.7219 18.2452 74.6393 19.8108C75.5542 21.3727 74.9231 23.1543 74.2895 24.942C73.9093 26.0144 73.5278 27.0905 73.6816 27.5037C73.8354 27.9156 74.8114 28.4833 75.7922 29.054C77.4548 30.0208 79.1272 30.993 79.4586 32.8186C79.7845 34.613 78.5986 36.1053 77.4023 37.6117C76.6687 38.5358 75.9283 39.4678 75.9283 40C75.9283 40.5328 76.6687 41.4648 77.4023 42.3889C78.5986 43.8947 79.7845 45.387 79.4586 47.1814C79.1272 49.007 77.4548 49.9799 75.7922 50.9467C74.8114 51.5167 73.8354 52.0844 73.6816 52.4969C73.5278 52.9102 73.9093 53.9862 74.2895 55.0586C74.9231 56.8463 75.5542 58.6279 74.6393 60.1892C73.7219 61.7554 71.8469 62.0709 69.975 62.3859C68.8721 62.572 67.7698 62.7576 67.4994 63.078C67.229 63.399 67.2345 64.5178 67.2394 65.6366C67.2479 67.5317 67.2565 69.4269 65.8807 70.5878C64.4977 71.7542 62.6349 71.4282 60.7696 71.1017C59.6588 70.9076 58.5461 70.7129 58.1842 70.9247C57.8229 71.1365 57.4451 72.1948 57.0654 73.2568C56.4246 75.0513 55.7812 76.8518 54.0637 77.4915C52.3651 78.1238 50.7062 77.2021 49.0381 76.2756C48.0298 75.7153 47.016 75.152 46.543 75.238C46.0815 75.3217 45.3277 76.1829 44.5673 77.0514C43.2831 78.5187 41.9867 80 40.108 80C38.23 80 36.9336 78.5187 35.6488 77.0514C34.8889 76.1823 34.1351 75.321 33.6731 75.2374C33.2007 75.1514 32.1869 75.7147 31.178 76.275C29.5099 77.2021 27.8516 78.1232 26.1529 77.4908C24.4348 76.8512 23.7921 75.0507 23.1506 73.2562C22.7716 72.1948 22.3932 71.1359 22.0319 70.9241C21.6705 70.7123 20.5579 70.907 19.4464 71.1017C17.5812 71.4276 15.7184 71.7535 14.3353 70.5872C12.9596 69.4263 12.9681 67.5311 12.9767 65.636C12.9822 64.5172 12.9871 63.3984 12.7167 63.078C12.4463 62.757 11.3446 62.5714 10.2411 62.3859C8.36913 62.0709 6.49413 61.7548 5.57677 60.1892C4.66247 58.6273 5.29357 56.8457 5.92712 55.058C6.30736 53.9856 6.68822 52.9095 6.53442 52.4963C6.38122 52.0844 5.40526 51.5167 4.42382 50.946C2.76183 49.9792 1.08886 49.007 0.758048 47.1814C0.43212 45.387 1.61742 43.894 2.81371 42.3883C3.54797 41.4642 4.28832 40.5322 4.28832 39.9994C4.28832 39.4672 3.54797 38.5352 2.81371 37.6111C1.61742 36.1047 0.43212 34.613 0.758048 32.818C1.08886 30.9924 2.76183 30.0201 4.42382 29.0533C5.40526 28.4827 6.38122 27.915 6.53442 27.5031C6.68822 27.0898 6.30736 26.0138 5.92712 24.9414C5.29357 23.1537 4.66186 21.3721 5.57677 19.8108C6.49413 18.2446 8.36913 17.9291 10.2411 17.6141C11.3446 17.428 12.4463 17.2424 12.7167 16.922C12.9871 16.601 12.9822 15.4822 12.9767 14.3634C12.9681 12.4683 12.9596 10.5725 14.3353 9.41284C15.7184 8.24646 17.5812 8.57178 19.4464 8.89832C20.5579 9.09241 21.6705 9.28711 22.0319 9.07532C22.3932 8.86414 22.7716 7.80518 23.1506 6.74316C23.7915 4.94934 24.4354 3.14819 26.1529 2.50854C27.8516 1.87622 29.5099 2.79785 31.178 3.72437C32.1869 4.28467 33.2007 4.84802 33.6731 4.76196C34.1351 4.67834 34.8889 3.81714 35.6488 2.94861C36.9336 1.48132 38.23 0 40.108 0V0ZM59.4708 20.1837C58.6078 20.1837 57.9083 20.8832 57.9083 21.7462C57.9083 22.1307 58.0475 22.4829 58.2782 22.7551V22.7557L58.2776 22.7551L58.2825 22.7606C58.3142 22.7979 58.3478 22.8333 58.3826 22.8668C62.5848 27.3468 65.1581 33.3728 65.1581 40C65.1581 46.9177 62.3547 53.1799 57.8216 57.713C53.2886 62.2467 47.0257 65.05 40.108 65.05C37.1466 65.05 34.3054 64.5361 31.6687 63.5925C31.6217 63.573 31.5729 63.5559 31.5234 63.5406L31.5198 63.5388V63.5394C31.3763 63.4961 31.2237 63.4723 31.0663 63.4723C30.2038 63.4723 29.5038 64.1718 29.5038 65.0348C29.5038 65.7428 29.975 66.3403 30.6201 66.5326C33.5846 67.5928 36.7792 68.1708 40.108 68.1708C47.887 68.1708 54.9298 65.0171 60.0275 59.9194C65.1257 54.8212 68.2788 47.7789 68.2788 40C68.2788 32.5562 65.3912 25.7874 60.6763 20.7513C60.3894 20.4047 59.956 20.1837 59.4708 20.1837ZM54.7552 16.2177C53.8928 16.2177 53.1927 16.9171 53.1927 17.7802C53.1927 18.6426 53.8928 19.3427 54.7552 19.3427C55.6183 19.3427 56.3177 18.6426 56.3177 17.7802C56.3177 16.9171 55.6183 16.2177 54.7552 16.2177ZM49.6838 13.4991C46.6943 12.4188 43.4705 11.8292 40.108 11.8292C32.3291 11.8292 25.2869 14.9823 20.1886 20.0806C15.0909 25.1782 11.9372 32.2211 11.9372 40C11.9372 47.428 14.8126 54.184 19.5099 59.2169C19.7967 59.5599 20.2277 59.7784 20.7098 59.7784C21.5729 59.7784 22.2723 59.079 22.2723 58.2159C22.2723 57.8326 22.1344 57.4817 21.9049 57.2101V57.2089L21.8988 57.2021C21.8683 57.1661 21.8359 57.132 21.8024 57.0996C17.619 52.6227 15.058 46.6107 15.058 40C15.058 33.0823 17.8619 26.8195 22.395 22.287C26.9281 17.7533 33.1909 14.95 40.108 14.95C43.0975 14.95 45.9643 15.4736 48.6224 16.4343H48.623C48.811 16.5143 49.0173 16.5582 49.2346 16.5582C50.0976 16.5582 50.7971 15.8588 50.7971 14.9957C50.7971 14.2889 50.3278 13.692 49.6838 13.4991ZM25.4608 60.6573C24.5984 60.6573 23.8983 61.3568 23.8983 62.2198C23.8983 63.0829 24.5984 63.7823 25.4608 63.7823C26.3238 63.7823 27.0233 63.0829 27.0233 62.2198C27.0233 61.3568 26.3238 60.6573 25.4608 60.6573ZM31.0113 24.6436C29.22 24.6436 27.5983 25.3693 26.4239 26.5436C25.2502 27.7179 24.5239 29.3396 24.5239 31.131C24.5239 32.9218 25.2502 34.5441 26.4239 35.7178C27.5983 36.8921 29.22 37.6184 31.0113 37.6184C32.8027 37.6184 34.4244 36.8921 35.5987 35.7178C36.7725 34.5441 37.4988 32.9218 37.4988 31.131C37.4988 29.3396 36.7725 27.7179 35.5987 26.5436C34.4244 25.3693 32.8027 24.6436 31.0113 24.6436ZM33.3923 28.75C32.7832 28.1409 31.9415 27.7637 31.0113 27.7637C30.0818 27.7637 29.2395 28.1409 28.6304 28.75C28.0212 29.3591 27.6446 30.2008 27.6446 31.131C27.6446 32.0605 28.0212 32.9028 28.6304 33.512C29.2395 34.1205 30.0818 34.4977 31.0113 34.4977C31.9415 34.4977 32.7832 34.1211 33.3923 33.512C34.0015 32.9028 34.378 32.0605 34.378 31.131C34.378 30.2008 34.0015 29.3591 33.3923 28.75ZM47.9071 25.3503L29.7131 52.9431C29.2419 53.6603 29.4409 54.6234 30.1581 55.0946C30.8752 55.5658 31.8384 55.3668 32.3096 54.6497L50.5035 27.0569C50.9747 26.3397 50.7757 25.3766 50.0586 24.9054C49.3414 24.4342 48.3783 24.6332 47.9071 25.3503ZM49.2053 42.3816C47.4139 42.3816 45.7916 43.1079 44.6179 44.2816C43.4442 45.4559 42.7179 47.0782 42.7179 48.869C42.7179 50.6604 43.4442 52.2821 44.6179 53.4564C45.7922 54.6301 47.4139 55.3564 49.2053 55.3564C50.9967 55.3564 52.6184 54.6301 53.7921 53.4564C54.9664 52.2821 55.6927 50.6604 55.6927 48.869C55.6927 47.0776 54.9664 45.4559 53.7921 44.2816C52.6184 43.1079 50.9967 42.3816 49.2053 42.3816ZM51.5857 46.488C50.9772 45.8795 50.1349 45.5023 49.2053 45.5023C48.2751 45.5023 47.4335 45.8789 46.8243 46.488C46.2152 47.0972 45.838 47.9395 45.838 48.869C45.838 49.7992 46.2152 50.6409 46.8243 51.25C47.4335 51.8591 48.2751 52.2357 49.2053 52.2357C50.1349 52.2357 50.9772 51.8591 51.5857 51.25C52.1954 50.6409 52.572 49.7992 52.572 48.869C52.572 47.9395 52.1954 47.0978 51.5857 46.488ZM42.2272 4.99695C41.4099 4.06311 40.5853 3.12073 40.1086 3.12073C39.6313 3.12073 38.8068 4.06311 37.9895 4.99695C36.8707 6.27502 35.7611 7.54272 34.2218 7.82227C32.6593 8.10608 31.159 7.27234 29.6667 6.44287C28.6267 5.86487 27.5922 5.29053 27.2381 5.42236C26.889 5.55237 26.488 6.67419 26.0889 7.79175C25.5206 9.38171 24.9548 10.9668 23.6047 11.7572C22.2455 12.5537 20.5768 12.262 18.9105 11.9702C17.76 11.7694 16.6101 11.568 16.3476 11.7902C16.0754 12.0197 16.0803 13.186 16.0858 14.3518C16.0937 16.0455 16.1011 17.7393 15.094 18.9337C14.09 20.1245 12.4225 20.4053 10.7532 20.686C9.59777 20.8807 8.43932 21.0754 8.25927 21.3837C8.07983 21.6895 8.47167 22.796 8.86535 23.9056C9.43175 25.5042 9.99999 27.1075 9.44823 28.5883C8.9038 30.05 7.44811 30.8966 5.98449 31.748C4.94079 32.3547 3.89037 32.9657 3.81774 33.3673C3.74389 33.7744 4.49462 34.7192 5.25207 35.6732C6.32629 37.0251 7.40966 38.3887 7.40966 40C7.40966 41.6119 6.32629 42.9749 5.25207 44.3274C4.49462 45.2808 3.74389 46.2256 3.81774 46.6333C3.89037 47.0349 4.94079 47.6453 5.98449 48.2526C7.44811 49.1034 8.9038 49.95 9.44823 51.4117C9.99999 52.8931 9.43175 54.4965 8.86535 56.095C8.47167 57.2046 8.07983 58.3105 8.25927 58.6169C8.43932 58.9246 9.59716 59.1199 10.7532 59.314C12.4231 59.5953 14.09 59.8755 15.094 61.0669C16.1011 62.2607 16.0937 63.9545 16.0858 65.6488C16.0803 66.8146 16.0754 67.9803 16.3476 68.2104C16.6107 68.432 17.76 68.2312 18.9105 68.0298C20.5768 67.7386 22.2455 67.4463 23.6047 68.2428C24.9548 69.0332 25.5212 70.6183 26.0889 72.2083C26.488 73.3258 26.889 74.4482 27.2381 74.5776C27.5922 74.7095 28.6267 74.1351 29.6667 73.5571C31.159 72.7283 32.6593 71.8945 34.2218 72.1783C35.7617 72.4573 36.8707 73.725 37.9895 75.0037C38.8068 75.9375 39.6313 76.8799 40.1086 76.8799C40.5853 76.8799 41.4099 75.9375 42.2272 75.0037C43.3459 73.725 44.4556 72.4573 45.9943 72.1783C47.5568 71.8945 49.0576 72.7283 50.5499 73.5571C51.59 74.1351 52.6245 74.7095 52.9785 74.5776C53.3276 74.4482 53.7286 73.3258 54.1278 72.2083C54.696 70.6183 55.2618 69.0338 56.6113 68.2428C57.9712 67.4463 59.6393 67.738 61.3055 68.0298C62.4567 68.2312 63.6059 68.4326 63.8696 68.2104C64.1412 67.9803 64.1363 66.8146 64.1309 65.6488C64.1229 63.9551 64.1156 62.2607 65.1227 61.0669C66.1267 59.8755 67.7936 59.5953 69.4629 59.314C70.6189 59.1199 71.7773 58.9246 71.9574 58.6169C72.1368 58.3105 71.745 57.2046 71.3513 56.095C70.7849 54.4965 70.2167 52.8931 70.7684 51.4117C71.3122 49.95 72.7685 49.1034 74.2316 48.2526C75.2759 47.6453 76.3257 47.0349 76.3989 46.6333C76.4728 46.2256 75.722 45.2808 74.9646 44.3274C73.8904 42.9749 72.807 41.6119 72.807 40C72.807 38.3887 73.8904 37.0251 74.9646 35.6732C75.722 34.7192 76.4728 33.7744 76.3989 33.3673C76.3257 32.9657 75.2759 32.3547 74.2316 31.748C72.7685 30.8966 71.3122 30.05 70.7684 28.5883C70.2167 27.1075 70.7849 25.5042 71.3513 23.9056C71.745 22.796 72.1368 21.6895 71.9574 21.3837C71.7773 21.0754 70.6189 20.8807 69.4629 20.686C67.7936 20.4053 66.1267 20.1245 65.1227 18.9337C64.1156 17.7393 64.1229 16.0455 64.1309 14.3518C64.1363 13.186 64.1412 12.0197 63.8696 11.7902C63.6059 11.568 62.4567 11.7694 61.3055 11.9702C59.6393 12.262 57.9712 12.5537 56.6119 11.7572C55.2618 10.9668 54.6954 9.38171 54.1278 7.79175C53.7286 6.67419 53.3276 5.55237 52.9785 5.42236C52.6245 5.29053 51.59 5.86487 50.5499 6.44287C49.057 7.27234 47.5568 8.10608 45.9943 7.82227C44.4549 7.54272 43.3459 6.27502 42.2272 4.99695Z" fill="#50CCCD"/>
</g>
<defs>
<clipPath id="clip0">
<rect width="79.8438" height="80" fill="white"/>
</clipPath>
</defs>
</svg>
