<svg width="50" height="26" viewBox="0 0 50 26" fill="none" xmlns="http://www.w3.org/2000/svg">
<g clip-path="url(#clip0)">
<path d="M47.9375 6.5H47.2875V3.25C47.2875 1.4625 45.825 0 44.0375 0H5.85C4.0625 0 2.6 1.4625 2.6 3.25V6.5H1.95C0.89375 6.5 0 7.39375 0 8.45V21.45C0 22.5063 0.89375 23.4 1.95 23.4H2.6V25.35C2.6 25.7156 2.88438 26 3.25 26H8.45C8.81562 26 9.1 25.7156 9.1 25.35V23.4H40.7875V25.35C40.7875 25.7156 41.0719 26 41.4375 26H46.6375C47.0031 26 47.2875 25.7156 47.2875 25.35V23.4H47.9375C48.9938 23.4 49.8875 22.5063 49.8875 21.45V8.45C49.8875 7.39375 48.9938 6.5 47.9375 6.5ZM3.9 3.25C3.9 2.19375 4.79375 1.3 5.85 1.3H44.0375C45.0938 1.3 45.9875 2.19375 45.9875 3.25V6.5H45.3375C44.2812 6.5 43.3875 7.39375 43.3875 8.45V13H6.5V8.45C6.5 7.39375 5.60625 6.5 4.55 6.5H3.9V3.25ZM43.3875 14.3V16.9H6.5V14.3H43.3875ZM7.8 24.7H3.9V23.4H7.8V24.7ZM45.9875 24.7H42.0875V23.4H45.9875V24.7ZM48.5875 21.45C48.5875 21.8156 48.3031 22.1 47.9375 22.1H46.6375H41.4375H8.45H3.25H1.95C1.58438 22.1 1.3 21.8156 1.3 21.45V8.45C1.3 8.08437 1.58438 7.8 1.95 7.8H4.55C4.91563 7.8 5.2 8.08437 5.2 8.45V13.65V17.55C5.2 17.9156 5.48438 18.2 5.85 18.2H44.0375C44.4031 18.2 44.6875 17.9156 44.6875 17.55V13.65V8.45C44.6875 8.08437 44.9719 7.8 45.3375 7.8H47.9375C48.3031 7.8 48.5875 8.08437 48.5875 8.45V21.45Z" fill="#50CCCD"/>
</g>
<defs>
<clipPath id="clip0">
<rect width="49.8875" height="26" fill="white"/>
</clipPath>
</defs>
</svg>
