<svg width="34" height="34" viewBox="0 0 34 34" fill="none" xmlns="http://www.w3.org/2000/svg">
<path d="M11.4594 26.0247C11.4507 25.9822 11.4381 25.9404 11.4215 25.8999C11.4049 25.8601 11.3843 25.8215 11.3604 25.7857C11.3365 25.7492 11.3086 25.7153 11.2781 25.6847C11.2475 25.6542 11.2137 25.6263 11.1771 25.6024C11.1413 25.5785 11.1028 25.5579 11.0623 25.5413C11.0224 25.5247 10.9806 25.5114 10.9381 25.5035C10.8524 25.4862 10.7641 25.4862 10.6791 25.5035C10.6366 25.5114 10.5948 25.5247 10.5543 25.5413C10.5144 25.5579 10.4759 25.5785 10.44 25.6024C10.4035 25.6263 10.3696 25.6542 10.3391 25.6847C10.3086 25.7153 10.2807 25.7492 10.2568 25.7857C10.2322 25.8215 10.2123 25.8601 10.1957 25.8999C10.1791 25.9404 10.1658 25.9822 10.1578 26.0247C10.1492 26.0672 10.1445 26.1111 10.1445 26.1542C10.1445 26.1974 10.1492 26.2412 10.1578 26.2837C10.1658 26.3262 10.1791 26.3681 10.1957 26.4079C10.2123 26.4484 10.2322 26.4869 10.2568 26.5228C10.2807 26.5593 10.3086 26.5932 10.3391 26.6237C10.3696 26.6543 10.4035 26.6822 10.44 26.7061C10.4759 26.73 10.5144 26.7506 10.5543 26.7672C10.5948 26.7838 10.6366 26.7971 10.6791 26.8051C10.7216 26.8137 10.7654 26.8184 10.8086 26.8184C10.8518 26.8184 10.8956 26.8137 10.9381 26.8051C10.9806 26.7971 11.0224 26.7838 11.0623 26.7672C11.1028 26.7506 11.1413 26.73 11.1771 26.7061C11.2137 26.6822 11.2475 26.6543 11.2781 26.6237C11.3086 26.5932 11.3365 26.5593 11.3604 26.5228C11.3843 26.4869 11.4049 26.4484 11.4215 26.4079C11.4381 26.3681 11.4507 26.3262 11.4594 26.2837C11.468 26.2412 11.4727 26.1974 11.4727 26.1542C11.4727 26.1111 11.468 26.0672 11.4594 26.0247Z" fill="black"/>
<path d="M30.5464 26.2293C30.5438 26.2226 30.5412 26.2161 30.5384 26.2095C29.9272 24.7794 28.4937 24.2508 26.7973 24.8302L22.1709 26.1095C21.9034 25.2995 21.2363 24.6102 20.2929 24.2601C20.287 24.258 20.2812 24.2559 20.2753 24.2539L15.1898 22.5278C14.7666 21.9807 13.4407 20.5807 10.9582 20.5807C9.22336 20.5807 7.68865 21.7709 6.81063 23.0681H0.664062C0.297301 23.0681 0 23.3654 0 23.7322V32.1045C0 32.4713 0.297301 32.7686 0.664062 32.7686H4.61238C4.97914 32.7686 5.27644 32.4713 5.27644 32.1045V31.5311H7.12805C7.49481 31.5311 7.79211 31.2338 7.79211 30.8671V30.676C8.87148 30.7701 9.22648 30.9749 10.2178 31.5465C10.9801 31.9861 12.1324 32.6505 14.2073 33.5834C14.2169 33.5877 14.2267 33.5919 14.2364 33.5957C14.6347 33.7524 15.4132 33.9985 16.3729 33.9985C17.041 33.9985 17.797 33.8791 18.573 33.5274L28.799 29.866C28.8172 29.8595 28.8351 29.8522 28.8527 29.8441C29.83 29.3945 31.2863 28.1272 30.5464 26.2293ZM3.94832 31.4404H1.32812V24.3962H3.94832V31.4404ZM6.46398 30.2029H5.27644V24.3962H6.46398V30.2029ZM28.322 28.626L18.1006 32.2857C18.0917 32.2889 18.0795 32.2937 18.0707 32.2973C18.0617 32.3009 18.0527 32.3048 18.0439 32.3088C16.6204 32.9631 15.2672 32.5714 14.7369 32.3652C12.7326 31.4633 11.6629 30.8465 10.8813 30.3958C9.79459 29.7692 9.27098 29.4672 7.79211 29.345V23.9966C8.42157 22.9649 9.64225 21.9088 10.9583 21.9088C13.2152 21.9088 14.1715 23.3767 14.2091 23.436C14.2902 23.5678 14.4148 23.6672 14.5614 23.717L19.839 25.5082C20.6819 25.8246 21.1273 26.5464 20.9226 27.2663C20.8281 27.5987 20.6098 27.8744 20.3079 28.0426C20.0086 28.2094 19.6626 28.2506 19.3329 28.1594L13.3833 26.274C13.0335 26.1631 12.6604 26.3568 12.5497 26.7064C12.4388 27.056 12.6325 27.4292 12.9821 27.5401L18.942 29.4287C18.9483 29.4307 18.9546 29.4326 18.961 29.4344C19.1989 29.5021 19.4412 29.5356 19.6819 29.5356C20.1228 29.5356 20.5587 29.4233 20.9544 29.2028C21.5662 28.8619 22.0086 28.3032 22.2001 27.6295C22.2153 27.5757 22.2289 27.5219 22.2406 27.4681L27.2266 26.0869C27.9467 25.8409 28.892 25.7523 29.3129 26.7216C29.7485 27.8596 28.6163 28.4856 28.322 28.626Z" fill="black"/>
<path d="M23.8429 8.73529C23.8342 8.69279 23.8216 8.65095 23.8043 8.61044C23.7877 8.5706 23.7678 8.53209 23.7432 8.49623C23.7193 8.4597 23.6914 8.42583 23.6609 8.39529C23.6304 8.36474 23.5965 8.33685 23.56 8.31294C23.5241 8.28904 23.4856 8.26845 23.4457 8.25185C23.4052 8.23525 23.3634 8.22197 23.3216 8.214C23.2359 8.19673 23.1476 8.19673 23.0619 8.214C23.0194 8.22197 22.9776 8.23525 22.9377 8.25185C22.8972 8.26845 22.8587 8.28904 22.8229 8.31294C22.7863 8.33685 22.7525 8.36474 22.7219 8.39529C22.6914 8.42583 22.6635 8.4597 22.6396 8.49623C22.6157 8.53209 22.5951 8.5706 22.5785 8.61044C22.5619 8.65095 22.5486 8.69279 22.5406 8.73529C22.532 8.77779 22.5273 8.82162 22.5273 8.86478C22.5273 8.90794 22.532 8.95177 22.5406 8.99427C22.5486 9.03677 22.5619 9.07861 22.5785 9.11845C22.5951 9.15896 22.6157 9.19748 22.6396 9.23334C22.6635 9.26986 22.6914 9.30373 22.7219 9.33427C22.7525 9.36482 22.7863 9.39271 22.8229 9.41662C22.8587 9.44052 22.8972 9.46111 22.9377 9.47771C22.9776 9.49431 23.0194 9.50693 23.0619 9.51556C23.1044 9.5242 23.1482 9.52884 23.1914 9.52884C23.2346 9.52884 23.2784 9.5242 23.3216 9.51556C23.3634 9.50693 23.4052 9.49431 23.4457 9.47771C23.4856 9.46111 23.5241 9.44052 23.56 9.41662C23.5965 9.39271 23.6304 9.36482 23.6609 9.33427C23.6914 9.30373 23.7193 9.26986 23.7432 9.23334C23.7678 9.19748 23.7877 9.15896 23.8043 9.11845C23.8216 9.07861 23.8342 9.03677 23.8429 8.99427C23.8515 8.95177 23.8555 8.90794 23.8555 8.86478C23.8555 8.82162 23.8515 8.77779 23.8429 8.73529Z" fill="black"/>
<path d="M33.335 2.25056H29.3867C29.0199 2.25056 28.7226 2.54786 28.7226 2.91462V3.48797H26.871C26.5042 3.48797 26.2069 3.78527 26.2069 4.15203V4.34315C25.1276 4.24892 24.7726 4.04426 23.7813 3.47263C23.019 3.03302 21.8668 2.36863 19.7918 1.43569C19.7821 1.4313 19.7724 1.42725 19.7625 1.4234C19.0871 1.15764 17.3169 0.634759 15.4263 1.4916L12.7541 2.44838L10.5017 0.196013C10.2423 -0.0633032 9.82187 -0.0633032 9.56255 0.196013L2.16768 7.59082C1.92849 7.83008 1.8826 8.24492 2.16768 8.53L14.8039 21.1662C15.0061 21.3685 15.4796 21.4297 15.7431 21.1662L22.4943 14.4151C22.6698 14.4303 22.852 14.4384 23.0408 14.4384C24.7757 14.4384 26.3103 13.2483 27.1883 11.9511H33.335C33.7018 11.9511 33.9991 11.6538 33.9991 11.2871V2.91462C33.9991 2.54786 33.7018 2.25056 33.335 2.25056ZM10.032 1.60469L11.5456 3.11822C11.0957 3.39646 10.5755 3.54535 10.032 3.54535C9.48851 3.54535 8.96841 3.39653 8.51851 3.11822L10.032 1.60469ZM5.08996 9.57397L3.57642 8.06037L5.08996 6.54684C5.3682 6.99674 5.51708 7.5169 5.51708 8.06037C5.51708 8.60384 5.36826 9.124 5.08996 9.57397ZM15.2736 19.7575L13.7603 18.2442C14.6842 17.6741 15.8628 17.6741 16.7868 18.2442L15.2736 19.7575ZM17.7435 17.2876C16.2761 16.2231 14.271 16.2231 12.8036 17.2876L6.04667 10.5306C6.56524 9.81742 6.84521 8.96071 6.84521 8.06037C6.84521 7.15997 6.5653 6.30333 6.04667 5.59013L7.56186 4.075C8.27506 4.59357 9.13171 4.87354 10.0321 4.87354C10.9325 4.87354 11.7892 4.59357 12.5024 4.075L13.9387 5.5113C13.6287 5.55706 13.3265 5.65919 13.0447 5.81624C12.5687 6.08147 12.1952 6.47864 11.9627 6.95916C11.2136 7.09788 10.5201 7.46053 9.97613 8.00446C8.50025 9.4804 8.50025 11.8819 9.97619 13.3578C10.7141 14.0957 11.6834 14.4647 12.6528 14.4647C13.6222 14.4647 14.5916 14.0958 15.3295 13.3578C15.8097 12.8777 16.146 12.2876 16.3145 11.6445L18.5566 12.4055C18.3042 13.5747 18.5627 14.8049 19.2601 15.7711L17.7435 17.2876ZM13.7062 10.759C13.712 10.7611 13.7179 10.7632 13.7238 10.7652L15.0516 11.2159C14.9513 11.6685 14.7244 12.0846 14.3904 12.4187C13.4323 13.3767 11.8734 13.3768 10.9154 12.4187C9.95727 11.4606 9.95727 9.90175 10.9154 8.94364C11.1465 8.71242 11.4192 8.53173 11.7164 8.40921C11.839 9.42934 12.5735 10.3386 13.7062 10.759ZM20.2169 14.8142C19.9606 14.3965 19.8155 13.9197 19.7926 13.4332C20.1107 13.6631 20.4995 13.8885 20.9638 14.0673L20.2169 14.8142ZM26.2069 11.0223C25.5775 12.0541 24.3568 13.1102 23.0408 13.1102C22.7945 13.1102 22.5638 13.0926 22.348 13.0614C22.3471 13.0613 22.3463 13.0612 22.3454 13.061C20.9113 12.8527 20.1399 12.0376 19.8856 11.7149C19.8721 11.695 19.8143 11.6195 19.8058 11.6069C19.7284 11.4687 19.6016 11.3575 19.4398 11.3026L14.16 9.51062C13.3174 9.19439 12.872 8.47289 13.0762 7.75331C13.0763 7.75285 13.0764 7.75238 13.0766 7.75192C13.0768 7.75139 13.0769 7.75079 13.077 7.75026C13.1719 7.41889 13.3899 7.14403 13.6911 6.97623C13.9903 6.80948 14.3362 6.76811 14.6661 6.85955L20.6157 8.74489C20.9654 8.85585 21.3386 8.66208 21.4493 8.31245C21.5601 7.96282 21.3665 7.58962 21.0169 7.47879L16.2851 5.97933L16.2438 5.93803C16.2434 5.93763 16.243 5.93717 16.2426 5.93677L13.7928 3.48704L15.8984 2.73306C15.9055 2.73047 15.9143 2.72722 15.9213 2.72436C15.9231 2.72363 15.9266 2.72231 15.9283 2.72158C15.9374 2.71792 15.9462 2.71407 15.9551 2.71002C17.3786 2.05579 18.7317 2.44738 19.262 2.65364C21.2664 3.55551 22.3362 4.17235 23.1178 4.62305C24.2045 5.24973 24.7281 5.55168 26.2069 5.6738V11.0223ZM28.7226 10.6229H27.5351V4.8161H28.7226V10.6229ZM32.6709 10.6229H30.0507V3.57868H32.6709V10.6229Z" fill="black"/>
</svg>
