<svg width="30" height="30" viewBox="0 0 30 30" fill="none" xmlns="http://www.w3.org/2000/svg">
<g clip-path="url(#clip0)">
<path d="M22.6585 17.8361C20.5733 17.8361 18.877 19.5325 18.877 21.6176C18.877 23.7028 20.5733 25.3992 22.6585 25.3992C24.744 25.3992 26.44 23.7028 26.44 21.6176C26.44 19.5325 24.7437 17.8361 22.6585 17.8361ZM22.6585 23.5084C21.6157 23.5084 20.7677 22.6604 20.7677 21.6176C20.7677 20.5749 21.6157 19.7269 22.6585 19.7269C23.7012 19.7269 24.5492 20.5749 24.5492 21.6176C24.5492 22.6604 23.7012 23.5084 22.6585 23.5084Z" fill="black"/>
<path d="M9.73855 17.8361C7.65338 17.8361 5.95703 19.5325 5.95703 21.6176C5.95703 23.7028 7.65338 25.3992 9.73855 25.3992C11.8237 25.3992 13.5201 23.7028 13.5201 21.6176C13.5201 19.5325 11.8237 17.8361 9.73855 17.8361ZM9.73855 23.5084C8.69582 23.5084 7.84779 22.6604 7.84779 21.6176C7.84779 20.5749 8.69582 19.7269 9.73855 19.7269C10.781 19.7269 11.6293 20.5749 11.6293 21.6176C11.6293 22.6604 10.7813 23.5084 9.73855 23.5084Z" fill="black"/>
<path d="M25.2047 7.01221C25.044 6.69299 24.7172 6.49161 24.3599 6.49161H19.3809V8.38237H23.7769L26.3511 13.5025L28.0408 12.6529L25.2047 7.01221Z" fill="black"/>
<path d="M19.8213 20.7038H12.668V22.5946H19.8213V20.7038Z" fill="black"/>
<path d="M6.90035 20.7038H3.62309C3.1009 20.7038 2.67773 21.1271 2.67773 21.6492C2.67773 22.1714 3.10096 22.5945 3.62309 22.5945H6.90041C7.4226 22.5945 7.84576 22.1713 7.84576 21.6492C7.84576 21.127 7.42254 20.7038 6.90035 20.7038Z" fill="black"/>
<path d="M29.8006 14.9243L27.9411 12.5294C27.7624 12.2987 27.4867 12.1638 27.1945 12.1638H20.3248V5.54618C20.3248 5.02399 19.9015 4.60083 19.3794 4.60083H3.62309C3.1009 4.60083 2.67773 5.02405 2.67773 5.54618C2.67773 6.06831 3.10096 6.49153 3.62309 6.49153H18.434V13.1092C18.434 13.6314 18.8572 14.0545 19.3794 14.0545H26.7316L28.1084 15.828V20.7037H25.4928C24.9706 20.7037 24.5474 21.1269 24.5474 21.649C24.5474 22.1712 24.9707 22.5944 25.4928 22.5944H29.0537C29.5759 22.5944 29.9991 22.1712 29.9991 21.649V15.5042C29.9991 15.2943 29.9292 15.0901 29.8006 14.9243Z" fill="black"/>
<path d="M6.83709 15.9139H2.48832C1.96613 15.9139 1.54297 16.3371 1.54297 16.8592C1.54297 17.3814 1.96619 17.8046 2.48832 17.8046H6.83703C7.35922 17.8046 7.78238 17.3814 7.78238 16.8592C7.78244 16.3371 7.35922 15.9139 6.83709 15.9139Z" fill="black"/>
<path d="M9.0126 12.1953H0.945352C0.423223 12.1953 0 12.6186 0 13.1408C0 13.6629 0.423223 14.0861 0.945352 14.0861H9.0126C9.53479 14.0861 9.95795 13.6629 9.95795 13.1408C9.95795 12.6186 9.53479 12.1953 9.0126 12.1953Z" fill="black"/>
<path d="M10.5556 8.47687H2.48832C1.96613 8.47687 1.54297 8.90009 1.54297 9.42222C1.54297 9.94441 1.96619 10.3676 2.48832 10.3676H10.5556C11.0778 10.3676 11.5009 9.94435 11.5009 9.42222C11.501 8.90009 11.0778 8.47687 10.5556 8.47687Z" fill="black"/>
</g>
<defs>
<clipPath id="clip0">
<rect width="30" height="30" fill="white"/>
</clipPath>
</defs>
</svg>
