<svg width="30" height="30" viewBox="0 0 30 30" fill="none" xmlns="http://www.w3.org/2000/svg">
<path d="M15 30C10.9934 30 7.22654 28.4397 4.39336 25.6066C1.56029 22.7735 0 19.0066 0 15C0 10.9934 1.56029 7.22654 4.39336 4.39336C7.22654 1.56029 10.9934 0 15 0C19.0066 0 22.7735 1.56029 25.6066 4.39336C28.4397 7.22654 30 10.9934 30 15C30 19.0066 28.4397 22.7735 25.6066 25.6066C22.7735 28.4397 19.0066 30 15 30ZM15 1.75781C11.4629 1.75781 8.1375 3.13523 5.63637 5.63637C3.13523 8.1375 1.75781 11.4629 1.75781 15C1.75781 18.5371 3.13523 21.8625 5.63637 24.3636C8.1375 26.8648 11.4629 28.2422 15 28.2422C18.5371 28.2422 21.8625 26.8648 24.3636 24.3636C26.8648 21.8625 28.2422 18.5371 28.2422 15C28.2422 11.4629 26.8648 8.1375 24.3636 5.63637C21.8625 3.13523 18.5371 1.75781 15 1.75781Z" fill="black"/>
<path d="M14.1211 3.51773H15.8789V5.86336H14.1211V3.51773Z" fill="black"/>
<path d="M20.8359 7.91946L22.4943 6.26111L23.7371 7.50388L22.0787 9.16224L20.8359 7.91946Z" fill="black"/>
<path d="M24.1367 14.1211H26.4823V15.8789H24.1367V14.1211Z" fill="black"/>
<path d="M20.834 22.0821L22.0768 20.8393L23.7351 22.4976L22.4923 23.7404L20.834 22.0821Z" fill="black"/>
<path d="M14.1211 24.1366H15.8789V26.4823H14.1211V24.1366Z" fill="black"/>
<path d="M6.25586 22.4961L7.91421 20.8378L9.15698 22.0805L7.49863 23.7389L6.25586 22.4961Z" fill="black"/>
<path d="M3.51758 14.1211H5.86321V15.8789H3.51758V14.1211Z" fill="black"/>
<path d="M6.25781 7.50232L7.50058 6.25954L9.15894 7.9179L7.91617 9.16068L6.25781 7.50232Z" fill="black"/>
<path d="M21.2046 15.8789H14.1211V8.79538H15.8789V14.1211H21.2046V15.8789Z" fill="black"/>
</svg>
