<svg width="80" height="80" viewBox="0 0 80 80" fill="none" xmlns="http://www.w3.org/2000/svg">
<path d="M74.2188 38.4573C73.0895 38.4573 72.0359 38.7839 71.1447 39.3459C70.13 36.4545 67.3742 34.375 64.1406 34.375H27.1094C25.3033 34.375 23.6464 35.0242 22.3581 36.1005C21.3369 33.3731 18.7044 31.4261 15.625 31.4261C14.1183 31.4261 12.7191 31.893 11.5625 32.6886V18.4375C11.5625 15.2497 8.96906 12.6562 5.78125 12.6562C2.59344 12.6562 0 15.2497 0 18.4375V74.2188C0 75.0816 0.699531 75.7812 1.5625 75.7812H10C10.863 75.7812 11.5625 75.0816 11.5625 74.2188V67.3438H34.2188C35.0817 67.3438 35.7812 66.6441 35.7812 65.7812C35.7812 64.9184 35.0817 64.2188 34.2188 64.2188H11.5625V45.8011H19.6875V53.313C19.6875 54.6073 20.3936 55.7961 21.53 56.4153C22.6666 57.0345 24.0481 56.9833 25.137 56.2809L25.1763 56.2556C26.4792 55.4148 28.1652 55.4117 29.4711 56.247L29.5995 56.3291C31.9331 57.822 34.945 57.8159 37.2725 56.3144L37.3638 56.2555C38.6667 55.4147 40.3527 55.4116 41.6586 56.2469L41.787 56.3289C44.1206 57.8219 47.1327 57.8158 49.46 56.3142L49.5512 56.2553C50.8541 55.4145 52.54 55.4114 53.8461 56.2467L53.9745 56.3288C55.1377 57.0728 56.4689 57.4445 57.8 57.4445C59.1397 57.4444 60.4792 57.0678 61.6458 56.315L61.7386 56.2552C63.0416 55.4145 64.7275 55.4113 66.0348 56.2475L66.1255 56.3053C66.8234 56.7519 67.6414 56.9298 68.4372 56.8373V64.2188H45.835C44.972 64.2188 44.2725 64.9184 44.2725 65.7812C44.2725 66.6441 44.972 67.3438 45.835 67.3438H68.4375V74.2188C68.4375 75.0816 69.137 75.7812 70 75.7812H78.4375C79.3005 75.7812 80 75.0816 80 74.2188V44.2386C80 41.0509 77.4066 38.4573 74.2188 38.4573ZM8.4375 44.2386V65.7812V72.6562H3.125V18.4375C3.125 16.9728 4.31656 15.7812 5.78125 15.7812C7.24594 15.7812 8.4375 16.9728 8.4375 18.4375V44.2386ZM15.625 42.6761C13.385 42.6761 11.5625 40.8538 11.5625 38.6136C11.5625 36.3736 13.385 34.5511 15.625 34.5511C17.865 34.5511 19.6875 36.3736 19.6875 38.6136C19.6875 40.8538 17.865 42.6761 15.625 42.6761ZM68.4377 41.875H52.8761C52.0131 41.875 51.3136 42.5747 51.3136 43.4375C51.3136 44.3003 52.0131 45 52.8761 45H68.4375V53.3298C68.4375 53.5297 68.3222 53.6347 68.2255 53.6877C68.1288 53.7408 67.9781 53.7812 67.8086 53.6727L67.718 53.6148C65.3844 52.1219 62.3725 52.1277 60.045 53.6295L59.9538 53.6884C58.6509 54.5294 56.9652 54.5325 55.6589 53.697L55.5305 53.615C53.1969 52.1222 50.185 52.1281 47.8575 53.6297L47.7663 53.6886C46.4634 54.5295 44.7775 54.5327 43.4714 53.6972L43.343 53.6152C42.1802 52.8713 40.8489 52.4995 39.518 52.4995C38.1778 52.4995 36.8378 52.8764 35.6702 53.6297L35.5789 53.6886C34.2761 54.5295 32.5902 54.5327 31.2841 53.6972L31.1556 53.6152C28.822 52.1225 25.8102 52.1283 23.4811 53.6309L23.4419 53.6562C23.2736 53.7648 23.1228 53.7247 23.0255 53.6717C22.9284 53.6189 22.8127 53.5137 22.8127 53.3134V41.7969C22.8127 39.4275 24.7402 37.5 27.1095 37.5H64.1408C66.5102 37.5 68.4377 39.4275 68.4377 41.7969V41.875ZM76.875 72.6562H71.5625V65.7812V53.3298V44.2386C71.5625 42.7739 72.7541 41.5823 74.2188 41.5823C75.6834 41.5823 76.875 42.7739 76.875 44.2386V72.6562Z" fill="#50CCCD"/>
<path d="M41.1047 64.6766C40.8141 64.3859 40.4109 64.2188 40 64.2188C39.5891 64.2188 39.1859 64.3858 38.8953 64.6766C38.6047 64.9672 38.4375 65.3703 38.4375 65.7812C38.4375 66.1922 38.6047 66.5953 38.8953 66.8858C39.1859 67.1764 39.5891 67.3438 40 67.3438C40.4109 67.3438 40.8141 67.1766 41.1047 66.8858C41.3953 66.5953 41.5625 66.1922 41.5625 65.7812C41.5625 65.3703 41.3953 64.9672 41.1047 64.6766Z" fill="#50CCCD"/>
<path d="M55.9914 12.6562H51.3261L57.0962 6.88609C57.5431 6.43922 57.6767 5.76703 57.4348 5.18328C57.193 4.59938 56.6233 4.21875 55.9912 4.21875H47.5537C46.6908 4.21875 45.9912 4.91828 45.9912 5.78125C45.9912 6.64422 46.6908 7.34375 47.5537 7.34375H52.2191L46.4489 13.1139C46.002 13.5608 45.8684 14.233 46.1103 14.8167C46.3522 15.4006 46.9219 15.7812 47.5539 15.7812H55.9914C56.8544 15.7812 57.5539 15.0817 57.5539 14.2188C57.5539 13.3558 56.8544 12.6562 55.9914 12.6562Z" fill="#50CCCD"/>
<path d="M40.0002 18.9062H37.5223L41.105 15.3236C41.5519 14.8767 41.6855 14.2045 41.4436 13.6208C41.2017 13.037 40.6319 12.6562 40 12.6562H33.75C32.887 12.6562 32.1875 13.3558 32.1875 14.2188C32.1875 15.0817 32.887 15.7812 33.75 15.7812H36.2278L32.6452 19.3639C32.1983 19.8108 32.0647 20.483 32.3066 21.0667C32.5484 21.6506 33.1181 22.0312 33.7502 22.0312H40.0002C40.8631 22.0312 41.5627 21.3317 41.5627 20.4688C41.5627 19.6058 40.8631 18.9062 40.0002 18.9062Z" fill="#50CCCD"/>
<path d="M26.9226 24.5312H25.6948L28.0275 22.1986C28.4744 21.7517 28.608 21.0795 28.3661 20.4958C28.1242 19.9119 27.5545 19.5312 26.9225 19.5312H21.9225C21.0595 19.5312 20.36 20.2308 20.36 21.0938C20.36 21.9567 21.0595 22.6562 21.9225 22.6562H23.1503L20.8176 24.9889C20.3708 25.4358 20.2372 26.108 20.479 26.6917C20.7209 27.2756 21.2906 27.6562 21.9226 27.6562H26.9226C27.7856 27.6562 28.4851 26.9567 28.4851 26.0938C28.4851 25.2308 27.7856 24.5312 26.9226 24.5312Z" fill="#50CCCD"/>
<path d="M48.6594 42.3328C48.3672 42.042 47.9657 41.875 47.5532 41.875C47.1422 41.875 46.7391 42.042 46.4485 42.3328C46.1578 42.6234 45.9907 43.0266 45.9907 43.4375C45.9907 43.8484 46.1578 44.2516 46.4485 44.542C46.7407 44.8327 47.1422 45 47.5532 45C47.9641 45 48.3672 44.8328 48.6594 44.542C48.95 44.2516 49.1157 43.8484 49.1157 43.4375C49.1157 43.0266 48.95 42.6234 48.6594 42.3328Z" fill="#50CCCD"/>
</svg>
