<svg width="80" height="80" viewBox="0 0 80 80" fill="none" xmlns="http://www.w3.org/2000/svg">
<g clip-path="url(#clip0)">
<path d="M78.8583 34.7568L78.8461 34.7141C78.7208 34.1957 78.3364 33.7701 77.8196 33.5987C77.6277 33.5349 73.0447 32.044 66.5011 32.5032C60.4772 32.9257 51.5727 35.1532 43.3593 43.3665C35.146 51.5799 32.9187 60.4843 32.4965 66.5079C32.0378 73.0516 33.5287 77.6341 33.5925 77.826C33.7478 78.2941 34.1151 78.6613 34.5831 78.8166C34.7495 78.8719 38.2164 80 43.4009 80C44.1957 80 45.0313 79.9735 45.9012 79.9125C51.9248 79.4902 60.8291 77.2629 69.0425 69.0497C83.575 54.5169 79.7689 37.9335 78.8583 34.7568ZM62.8119 36.1318C64.0471 35.8934 65.305 35.7252 66.5858 35.6301C69.7508 35.3951 72.4319 35.6695 74.2577 35.9804C74.1797 36.034 74.105 36.0943 74.0358 36.1635L62.8119 47.3874V36.1318ZM59.6869 36.9034V50.5124L49.2137 60.9857V42.5168C49.2137 42.4657 49.2109 42.4154 49.206 42.3655C52.4471 39.8563 55.9493 38.0318 59.6869 36.9034ZM35.6137 66.7263C36.1737 58.7379 39.5231 51.6219 45.569 45.5762C45.7413 45.404 45.9146 45.2344 46.0887 45.0665V64.0411C46.0887 64.0635 46.091 64.0851 46.092 64.1071L35.9648 74.2343C35.6609 72.4419 35.3962 69.8302 35.6137 66.7263ZM45.8163 76.7855C42.6709 77.0189 40.0031 76.7493 38.1779 76.4405L43.0588 71.5596C43.0642 71.5596 43.0692 71.5604 43.0745 71.5604H61.0891C56.4629 74.6211 51.3502 76.3746 45.8163 76.7855ZM66.8329 66.8397C66.2782 67.3944 65.7141 67.9261 65.1415 68.4355H46.1831L55.2518 59.3668H72.6147C71.1785 61.859 69.2932 64.3794 66.8329 66.8397ZM74.1994 56.2418H58.3766L76.2453 38.373C76.3121 38.3063 76.37 38.2345 76.4221 38.1598C77.0702 41.9296 77.4796 48.7829 74.1994 56.2418Z" fill="#50CCCD"/>
<path d="M36.6407 43.3664C28.4273 35.1531 19.5228 32.9256 13.4989 32.5031C6.95561 32.0442 2.37234 33.535 2.18046 33.5986C1.66359 33.7701 1.27921 34.1958 1.1539 34.7142L1.14172 34.7569C0.231092 37.9337 -3.575 54.5171 10.9576 69.0498C15.5682 73.6604 20.849 76.8652 26.6529 78.5749C26.8003 78.6183 26.949 78.639 27.0953 78.639C27.7703 78.639 28.3929 78.198 28.5934 77.5177C28.8373 76.6899 28.3638 75.8212 27.5362 75.5774C22.239 74.0168 17.4047 71.0771 13.1675 66.8401C9.4742 63.1468 7.07311 59.3182 5.54889 55.6528H21.0342L28.5757 63.1943C28.8809 63.4995 29.2807 63.652 29.6806 63.652C30.0804 63.652 30.4804 63.4995 30.7854 63.1943C31.3956 62.5841 31.3956 61.5948 30.7854 60.9845L29.0628 59.2621V41.1054C30.9343 42.3798 32.7253 43.8707 34.4309 45.5762C35.041 46.1864 36.0304 46.1864 36.6407 45.5762C37.251 44.9661 37.2509 43.9767 36.6407 43.3664ZM13.2803 35.6206C13.9645 35.6686 14.642 35.7386 15.3132 35.8275V45.5126L5.87483 36.0742C5.83889 36.0383 5.80124 36.0047 5.7628 35.9729C7.55561 35.6684 10.1714 35.4023 13.2803 35.6206ZM4.43936 52.5279V52.5278C2.67109 46.5712 3.03749 41.3189 3.5739 38.1831C3.6028 38.2175 3.63265 38.2515 3.66499 38.284L17.9089 52.5281H4.43936V52.5279ZM25.9379 56.1373L18.4381 48.6375V36.3981C21.049 37.0123 23.5515 37.9539 25.9379 39.2187V56.1373Z" fill="#50CCCD"/>
<path d="M29.511 70.2499C26.4917 69.3604 23.6251 67.9346 20.9909 66.0124C20.2937 65.5036 19.3164 65.6564 18.8076 66.3535C18.2989 67.0505 18.4517 68.028 19.1487 68.5368C22.0737 70.6715 25.2629 72.2563 28.6277 73.2476C28.7751 73.291 28.9238 73.3116 29.0701 73.3116C29.7451 73.3116 30.3677 72.8707 30.5682 72.1904C30.8121 71.3624 30.3388 70.4936 29.511 70.2499Z" fill="#50CCCD"/>
<path d="M17.2331 62.7847L17.2276 62.7793C16.6175 62.1694 15.6311 62.1721 15.0206 62.7821C14.4104 63.3922 14.4133 64.3844 15.0234 64.9946C15.3286 65.2997 15.7284 65.4522 16.1283 65.4522C16.5281 65.4522 16.9281 65.2997 17.2331 64.9946C17.8433 64.3844 17.8433 63.3951 17.2331 62.7847Z" fill="#50CCCD"/>
<path d="M20.0237 19.8434H11.5633V13.0467H17.3914C18.2543 13.0467 18.9539 12.3472 18.9539 11.4842C18.9539 10.6212 18.2543 9.9217 17.3914 9.9217H11.5633V3.12499H20.0236C20.8865 3.12499 21.5861 2.42546 21.5861 1.5625C21.5861 0.69953 20.8865 0 20.0236 0H10.0009C9.13794 0 8.43842 0.69953 8.43842 1.5625V21.4057C8.43842 22.2687 9.13794 22.9682 10.0009 22.9682H20.0237C20.8867 22.9682 21.5862 22.2687 21.5862 21.4057C21.5862 20.5428 20.8867 19.8434 20.0237 19.8434Z" fill="#50CCCD"/>
<path d="M59.9994 0C53.6671 0 48.5154 5.15171 48.5154 11.484C48.5154 17.8164 53.6671 22.9681 59.9994 22.9681C66.3317 22.9681 71.4834 17.8164 71.4834 11.484C71.4834 5.15171 66.3317 0 59.9994 0ZM59.9994 19.8432C55.3902 19.8432 51.6402 16.0934 51.6402 11.484C51.6402 6.87467 55.39 3.12484 59.9994 3.12484C64.6088 3.12484 68.3586 6.87467 68.3586 11.484C68.3586 16.0934 64.6086 19.8432 59.9994 19.8432Z" fill="#50CCCD"/>
<path d="M42.4273 17.3949C39.1682 20.6541 33.8648 20.6541 30.6057 17.3949C27.3465 14.1358 27.3465 8.83254 30.6057 5.57333C33.8648 2.31412 39.1681 2.31412 42.4273 5.57333C43.0374 6.18348 44.0268 6.18348 44.6371 5.57333C45.2473 4.96317 45.2473 3.9738 44.6371 3.36349C40.1595 -1.114 32.8739 -1.114 28.3962 3.36349C23.9186 7.84114 23.9186 15.1269 28.3962 19.6044C30.6349 21.8433 33.5757 22.9627 36.5167 22.9627C39.4576 22.9627 42.3984 21.8431 44.6373 19.6046C45.2474 18.9944 45.2474 18.005 44.6373 17.3947C44.027 16.7847 43.0376 16.7847 42.4273 17.3949Z" fill="#50CCCD"/>
<path d="M40.0106 26.6187C39.1476 26.6187 38.4481 27.3182 38.4481 28.1811V32.5997C38.4481 33.4627 39.1476 34.1622 40.0106 34.1622C40.8735 34.1622 41.5731 33.4627 41.5731 32.5997V28.1811C41.5729 27.3182 40.8734 26.6187 40.0106 26.6187Z" fill="#50CCCD"/>
<path d="M49.1288 30.923C48.5184 30.3127 47.5292 30.3129 46.9191 30.923L43.733 34.1089C43.1228 34.7191 43.1227 35.7085 43.733 36.3186C44.0382 36.6238 44.438 36.7763 44.8378 36.7763C45.2377 36.7763 45.6377 36.6236 45.9427 36.3186L49.1286 33.1327C49.7389 32.5224 49.7391 31.533 49.1288 30.923Z" fill="#50CCCD"/>
<path d="M36.2721 34.0626L33.0809 30.8712C32.4706 30.2609 31.4814 30.2612 30.8712 30.8712C30.2611 31.4813 30.2609 32.4707 30.8712 33.0809L34.0625 36.2723C34.3676 36.5774 34.7675 36.7299 35.1673 36.7299C35.5671 36.7299 35.9671 36.5773 36.2721 36.2723C36.8823 35.6621 36.8825 34.6728 36.2721 34.0626Z" fill="#50CCCD"/>
</g>
<defs>
<clipPath id="clip0">
<rect width="80" height="80" fill="white"/>
</clipPath>
</defs>
</svg>
