<svg width="80" height="80" viewBox="0 0 80 80" fill="none" xmlns="http://www.w3.org/2000/svg">
<g clip-path="url(#clip0)">
<path d="M69.0289 31.9087C68.4069 31.9087 67.7913 31.9607 67.1855 32.0632V23.2857C67.1855 16.1363 63.3295 9.48228 57.122 5.9204C56.4717 5.54712 55.6411 5.77165 55.2677 6.42259C54.8944 7.07337 55.1191 7.90353 55.7699 8.27712C61.1352 11.3562 64.4684 17.1071 64.4684 23.2859V32.9012C60.5991 34.6699 58.06 38.5634 58.06 42.8779V48.7932C57.01 48.0476 55.7284 47.6074 54.3452 47.6074H48.9092L52.1714 39.432C52.4495 38.7351 52.11 37.9448 51.413 37.6668C50.7167 37.389 49.9258 37.7281 49.6478 38.4252L45.9839 47.6074H41.3584V26.0999C41.3584 25.3496 40.7503 24.7413 39.9999 24.7413C39.2494 24.7413 38.6413 25.3496 38.6413 26.0999V47.6073H34.0166L27.2936 30.7587C27.0155 30.0618 26.2256 29.7221 25.5281 30.0004C24.8313 30.2785 24.4919 31.0688 24.7699 31.7659L31.0909 47.6073H25.6528C24.2705 47.6073 22.9897 48.0473 21.9402 48.7924V42.8777C21.9402 38.2346 19.0006 34.0774 14.6266 32.5335C13.417 32.1056 12.1491 31.896 10.848 31.9095C4.92314 31.9734 0.0568876 36.8459 0.000637555 42.7713C-0.0323312 46.2304 1.51751 49.4304 4.25267 51.5509C6.80486 53.5295 8.32861 56.7217 8.32861 60.0902V67.674C8.32861 68.4243 8.93689 69.0326 9.6872 69.0326H12.3228L13.5191 75.6073C13.6366 76.2531 14.1992 76.7226 14.8556 76.7226H20.0549C20.8052 76.7226 21.4134 76.1143 21.4134 75.364V69.0326H51.7906C52.5411 69.0326 53.1492 68.4243 53.1492 67.674C53.1492 66.9237 52.5411 66.3154 51.7906 66.3154H11.0459V63.1412H68.952V66.3154H56.3189C55.5684 66.3154 54.9603 66.9237 54.9603 67.674C54.9603 68.4243 55.5684 69.0326 56.3189 69.0326H58.5886V75.3642C58.5886 76.1145 59.1967 76.7227 59.9472 76.7227H65.1464C65.803 76.7227 66.3656 76.2531 66.483 75.607L67.6772 69.0326H70.3105C71.0609 69.0326 71.6691 68.4243 71.6691 67.674V59.9396C71.6691 56.6724 73.1966 53.5823 75.8597 51.4621C78.4909 49.3671 80 46.2384 80 42.8777C80.0002 36.8295 75.0784 31.9087 69.0289 31.9087ZM18.6966 69.0324V74.0054H15.9894L15.0845 69.0324H18.6966ZM19.223 60.424H11.0459V60.0904C11.0459 55.8879 9.12876 51.8929 5.91751 49.4035C3.85923 47.8079 2.69283 45.3999 2.71751 42.7973C2.75986 38.3399 6.42032 34.6746 10.8774 34.6267C11.8541 34.6151 12.8119 34.7737 13.7211 35.0954C17.0119 36.2571 19.2231 39.3845 19.2231 42.8779V60.424H19.223ZM64.0125 74.0056H61.3059V69.0326H64.9161L64.0125 74.0056ZM58.0602 60.424H21.9402V54.037C21.9402 51.9898 23.6056 50.3243 25.6528 50.3243H54.3453C56.3936 50.3243 58.0602 51.9898 58.0602 54.037V60.424ZM74.1675 49.3363C70.8531 51.9753 68.9524 55.8398 68.9524 59.9396V60.4238H60.7774V42.8777C60.7774 39.3845 62.9883 36.257 66.2806 35.0949C67.1599 34.7837 68.0845 34.626 69.0292 34.626C73.5806 34.626 77.2833 38.3277 77.2833 42.8779C77.2831 45.4059 76.1473 47.7601 74.1675 49.3363Z" fill="#50CCCD"/>
<path d="M52.3188 3.94453C50.6495 3.50203 48.9197 3.27734 47.177 3.27734H32.8233C21.7906 3.27734 12.8147 12.253 12.8147 23.2858V29.1378C12.8147 29.8881 13.423 30.4964 14.1733 30.4964C14.9236 30.4964 15.5319 29.8881 15.5319 29.1378V23.2858C15.5319 13.7513 23.2889 5.99453 32.8233 5.99453H47.177C48.6847 5.99453 50.1802 6.18828 51.622 6.57094C52.3472 6.76328 53.0911 6.33125 53.2835 5.60594C53.476 4.88094 53.0439 4.13703 52.3188 3.94453Z" fill="#50CCCD"/>
<path d="M54.4721 30C53.7758 29.7219 52.9849 30.0612 52.7069 30.7583L51.2746 34.3475C50.9966 35.0444 51.336 35.8347 52.033 36.113C52.198 36.1789 52.3685 36.21 52.536 36.21C53.0757 36.21 53.586 35.8862 53.7982 35.3547L55.2305 31.7655C55.5086 31.0686 55.1691 30.2783 54.4721 30Z" fill="#50CCCD"/>
<path d="M69.2075 39.1411C66.9603 39.1411 65.132 40.9694 65.132 43.2166C65.132 45.4638 66.9603 47.2921 69.2075 47.2921C71.4547 47.2921 73.2831 45.4638 73.2831 43.2166C73.2831 40.9692 71.4547 39.1411 69.2075 39.1411ZM69.2075 44.5749C68.4585 44.5749 67.8491 43.9655 67.8491 43.2164C67.8491 42.4674 68.4585 41.858 69.2075 41.858C69.9567 41.858 70.5661 42.4674 70.5661 43.2164C70.566 43.9655 69.9567 44.5749 69.2075 44.5749Z" fill="#50CCCD"/>
<path d="M10.7927 39.1411C8.54547 39.1411 6.71719 40.9694 6.71719 43.2166C6.71719 45.4638 8.54547 47.2921 10.7927 47.2921C13.0398 47.2921 14.8681 45.4638 14.8681 43.2166C14.8681 40.9692 13.0398 39.1411 10.7927 39.1411ZM10.7927 44.5749C10.0436 44.5749 9.43422 43.9655 9.43422 43.2164C9.43422 42.4674 10.0436 41.858 10.7927 41.858C11.5417 41.858 12.1511 42.4674 12.1511 43.2164C12.1511 43.9655 11.5417 44.5749 10.7927 44.5749Z" fill="#50CCCD"/>
</g>
<defs>
<clipPath id="clip0">
<rect width="80" height="80" fill="white"/>
</clipPath>
</defs>
</svg>
