<svg width="100" height="100" viewBox="0 0 100 100" fill="none" xmlns="http://www.w3.org/2000/svg">
<g clip-path="url(#clip0)">
<path d="M99.6908 41.164C98.7732 37.4144 95.6094 34.3606 91.8187 33.5671C91.0451 33.4052 90.267 33.3329 89.4973 33.3407C82.2488 22.3097 69.0098 16.6665 50.0031 16.6665C30.9338 16.6665 17.6744 22.3231 10.4504 33.3853C7.97852 33.387 5.56953 34.1991 3.67051 35.8132C1.33887 37.797 0 40.6899 0 43.7499C0 47.0071 1.5707 50.0833 4.16699 52.0405V66.6665C4.16699 71.2624 7.90469 74.9999 12.5008 74.9999V77.0833C12.5008 80.5298 15.3045 83.3333 18.7512 83.3333C22.1979 83.3333 25.0016 80.5298 25.0016 77.0833V74.9999H75.0047V77.0833C75.0047 80.5298 77.8084 83.3333 81.2551 83.3333C84.7018 83.3333 87.5055 80.5298 87.5055 77.0833V74.9999C92.1018 74.9999 95.8393 71.2626 95.8393 66.6665V52.0425C99.1699 49.5442 100.706 45.3206 99.6908 41.164ZM50 20.8333C66.7236 20.8333 78.4703 25.4188 85.1072 34.3597C84.3703 34.7101 83.6662 35.1366 83.0201 35.6606C80.5705 37.6505 79.1668 40.5983 79.1668 43.7499V49.9999H54.1668C52.5604 49.9999 51.1084 50.6261 50.0002 51.6255C48.892 50.6261 47.44 49.9999 45.8336 49.9999H20.8336V44.1954C20.8336 39.9159 18.3852 36.1276 14.848 34.3837C21.4648 25.4278 33.2266 20.8333 50 20.8333ZM83.3334 56.2499C83.3334 57.3993 82.3996 58.3333 81.25 58.3333H54.1666C53.0172 58.3333 52.0832 57.3995 52.0832 56.2499C52.0832 55.1003 53.017 54.1665 54.1666 54.1665H81.25C82.3994 54.1665 83.3334 55.1005 83.3334 56.2499ZM47.9166 56.2499C47.9166 57.3993 46.9828 58.3333 45.8332 58.3333H18.75C17.6006 58.3333 16.6666 57.3995 16.6666 56.2499C16.6666 55.1003 17.6006 54.1665 18.75 54.1665H45.8334C46.9828 54.1665 47.9166 55.1005 47.9166 56.2499ZM20.8334 77.0833C20.8334 78.2327 19.8996 79.1667 18.75 79.1667C17.6004 79.1667 16.6666 78.2329 16.6666 77.0833V74.9999H20.8332V77.0833H20.8334ZM83.3334 77.0833C83.3334 78.2327 82.3996 79.1667 81.25 79.1667C80.1006 79.1667 79.1666 78.2329 79.1666 77.0833V74.9999H83.3332V77.0833H83.3334ZM92.7021 49.1271C92.0613 49.4993 91.6666 50.1851 91.6666 50.9276V66.6665C91.6666 68.9634 89.7969 70.8331 87.5 70.8331H12.5C10.2031 70.8331 8.3334 68.9634 8.3334 66.6665V50.9276C8.3334 50.187 7.93867 49.5015 7.29785 49.1271C5.33652 47.9858 4.1666 45.9757 4.1666 43.7499C4.1666 41.9147 4.97031 40.1772 6.36992 38.9872C7.79199 37.7786 9.61699 37.2823 11.4807 37.5874C14.4367 38.0675 16.6666 40.9097 16.6666 44.1954V50.3837C14.2469 51.2466 12.5 53.5374 12.5 56.2499C12.5 59.6964 15.3035 62.4999 18.75 62.4999H45.8334C47.4398 62.4999 48.8918 61.8737 50 60.8743C51.1082 61.8737 52.5602 62.4999 54.1666 62.4999H81.25C84.6965 62.4999 87.5 59.6964 87.5 56.2499C87.5 53.5374 85.7531 51.2466 83.3334 50.3837V43.7499C83.3334 41.8577 84.1758 40.0897 85.6467 38.8956C87.1379 37.6851 89.0301 37.2396 90.9588 37.6444C93.2131 38.1165 95.093 39.9292 95.6361 42.1528C96.3217 44.9544 95.1701 47.6907 92.7021 49.1271Z" fill="white"/>
</g>
<defs>
<clipPath id="clip0">
<rect width="100" height="100" fill="white"/>
</clipPath>
</defs>
</svg>
