<svg width="100" height="100" viewBox="0 0 100 100" fill="none" xmlns="http://www.w3.org/2000/svg">
<path d="M93.3333 5H16.6667C12.9848 5 10 7.98479 10 11.6667V65H1.66667C0.74625 65 0 65.7463 0 66.6667C0 70.3485 2.98479 73.3333 6.66667 73.3333H55V93.3333C55.0002 94.2538 55.7465 94.9998 56.6671 94.9996C57.109 94.9996 57.5325 94.824 57.845 94.5117L66.6667 85.69L75.4883 94.5117C75.8008 94.8242 76.2246 95 76.6667 95C76.8858 95.0006 77.1027 94.9577 77.305 94.8733C77.9277 94.6152 78.3335 94.0073 78.3333 93.3333V73.3333H83.3333C87.0152 73.3333 90 70.3485 90 66.6667V13.3333H98.3333C99.2537 13.3333 100 12.5871 100 11.6667C100 7.98479 97.0152 5 93.3333 5ZM86.6667 11.6667V65H80V68.3333H86.2183C85.6231 69.3642 84.5235 69.9994 83.3333 70H78.3333V68.3333H75V89.31L67.845 82.155C67.1942 81.5044 66.1392 81.5044 65.4883 82.155L58.3333 89.31V68.3333H55V70H6.66667C5.47646 69.9994 4.37687 69.3642 3.78167 68.3333H11.6667H53.3333V65H13.3333V11.6667C13.3333 9.82563 14.8256 8.33333 16.6667 8.33333H87.5933C86.9935 9.34229 86.6735 10.4929 86.6667 11.6667ZM90.4483 10C91.3704 8.40667 93.4096 7.8625 95.0031 8.78479C95.5075 9.07667 95.9265 9.49583 96.2183 10H90.4483Z" fill="white"/>
<path d="M82.3791 57.1585L80.2441 53.3335L82.3874 49.5118C82.8391 48.7097 82.5551 47.6935 81.7532 47.2418C81.7128 47.2191 81.6714 47.1978 81.6291 47.1785L77.6507 45.3568L77.1374 41.0068C77.0289 40.0928 76.1997 39.4399 75.2857 39.5485C75.2432 39.5535 75.2009 39.5601 75.1591 39.5685L70.8624 40.4201L67.8907 37.2018C67.2255 36.5262 66.1386 36.5176 65.463 37.1828C65.4566 37.1891 65.4503 37.1955 65.4441 37.2018L62.4724 40.4201L58.1757 39.5685C57.2728 39.3899 56.3959 39.9772 56.2174 40.8801C56.2091 40.922 56.2024 40.9643 56.1974 41.0068L55.6841 45.3568L51.7057 47.1818C50.8688 47.5649 50.5009 48.5541 50.8841 49.391C50.9034 49.4333 50.9245 49.4747 50.9474 49.5151L53.0907 53.3335L50.9474 57.1551C50.4957 57.9572 50.7797 58.9735 51.5816 59.4251C51.622 59.4478 51.6634 59.4691 51.7057 59.4885L55.6841 61.3135L56.1974 65.6668C56.3059 66.5808 57.1351 67.2337 58.0491 67.1251C58.0916 67.1201 58.1338 67.1135 58.1757 67.1051L62.4724 66.2535L65.4441 69.4718C66.0693 70.1474 67.1236 70.1883 67.7993 69.5633C67.8309 69.5339 67.8613 69.5035 67.8907 69.4718L70.8624 66.2535L75.1591 67.1051C75.6145 67.1983 76.088 67.0941 76.4624 66.8185C76.8349 66.5439 77.0763 66.1266 77.1291 65.6668L77.6424 61.3168L81.6207 59.4918C82.4576 59.1087 82.8255 58.1195 82.4424 57.2826C82.423 57.2403 82.4018 57.1989 82.3791 57.1585ZM76.8807 54.1468L78.5957 57.2068L75.4091 58.6685C74.8807 58.911 74.517 59.4112 74.4491 59.9885L74.0391 63.4768L70.5941 62.7951C70.0263 62.6772 69.4386 62.8672 69.0474 63.2951L66.6674 65.8751L64.2874 63.2985C63.972 62.9574 63.5286 62.7635 63.0641 62.7635C62.9553 62.7628 62.847 62.7741 62.7407 62.7968L59.2957 63.4785L58.8857 59.9901C58.8178 59.4128 58.4541 58.9126 57.9257 58.6701L54.7391 57.2085L56.4541 54.1485C56.7407 53.6401 56.7476 53.0228 56.4541 52.5185V52.5251L54.7391 49.4651L57.9257 48.0035C58.4541 47.761 58.8178 47.2608 58.8857 46.6835L59.2957 43.1951L62.7407 43.8768C63.3082 43.9933 63.8953 43.8035 64.2874 43.3768L66.6674 40.7918L69.0474 43.3685C69.4384 43.7966 70.0263 43.9866 70.5941 43.8685L74.0391 43.1868L74.4491 46.6751C74.517 47.2524 74.8807 47.7526 75.4091 47.9951L78.5957 49.4568L76.8807 52.5168C76.597 53.023 76.597 53.6405 76.8807 54.1468Z" fill="white"/>
<path d="M66.6673 45C62.065 45 58.334 48.731 58.334 53.3333C58.3394 57.9333 62.0673 61.661 66.6673 61.6667C71.2696 61.6667 75.0007 57.9356 75.0007 53.3333C75.0007 48.731 71.2696 45 66.6673 45ZM66.6673 58.3333C63.9059 58.3333 61.6673 56.0948 61.6673 53.3333C61.6673 50.5719 63.9059 48.3333 66.6673 48.3333C69.4288 48.3333 71.6673 50.5719 71.6673 53.3333C71.6673 56.0948 69.4288 58.3333 66.6673 58.3333Z" fill="white"/>
<path d="M63.3327 15H36.666V18.3333H63.3327V15Z" fill="white"/>
<path d="M80 25H20V28.3333H80V25Z" fill="white"/>
<path d="M80 31.6665H20V34.9998H80V31.6665Z" fill="white"/>
<path d="M43.3327 53.3335H21.666V56.6668H43.3327V53.3335Z" fill="white"/>
</svg>
