<svg width="13" height="13" viewBox="0 0 13 13" fill="none" xmlns="http://www.w3.org/2000/svg">
<path d="M12.2778 9.02779C11.3786 9.02779 10.5083 8.88333 9.69946 8.61612C9.45029 8.53667 9.165 8.59446 8.96641 8.79308L7.37753 10.3856C5.33003 9.34558 3.65808 7.67362 2.61808 5.62975L4.20696 4.03362C4.40558 3.835 4.46333 3.54975 4.38391 3.30058C4.1167 2.4917 3.97224 1.62141 3.97224 0.722245C3.97221 0.321378 3.65083 0 3.25 0H0.722211C0.325 0 0 0.321378 0 0.722211C0 7.50388 5.49612 13 12.2778 13C12.6786 13 13 12.6786 13 12.2778V9.75C13 9.34917 12.6786 9.02779 12.2778 9.02779Z" fill="#248081"/>
</svg>
