<svg width="20" height="20" viewBox="0 0 20 20" fill="none" xmlns="http://www.w3.org/2000/svg">
<path d="M18 0H2C0.895431 0 0 0.895431 0 2V18C0 19.1046 0.895431 20 2 20H18C19.1046 20 20 19.1046 20 18V2C20 0.895431 19.1046 0 18 0Z" fill="#DC472E"/>
<path d="M11.5533 12.803C11.5528 12.7284 11.5309 12.6507 11.5032 12.5809C11.4664 12.4892 11.3874 12.4435 11.2882 12.4339C11.1719 12.4225 11.0789 12.4694 10.9946 12.544C10.9608 12.5735 10.9454 12.6173 10.9454 12.6173L10.9472 14.9858V15.0442C10.9472 15.0442 10.9674 15.0714 10.9705 15.0749C11.0389 15.1491 11.1188 15.2079 11.2211 15.229C11.3896 15.2636 11.5085 15.1934 11.5414 15.0372C11.5498 14.9981 11.5546 14.9578 11.5546 14.9178C11.5555 14.2126 11.5568 13.5078 11.5533 12.803ZM11.5533 12.803C11.5528 12.7284 11.5309 12.6507 11.5032 12.5809C11.4664 12.4892 11.3874 12.4435 11.2882 12.4339C11.1719 12.4225 11.0789 12.4694 10.9946 12.544C10.9608 12.5735 10.9454 12.6173 10.9454 12.6173L10.9472 14.9858V15.0442C10.9472 15.0442 10.9674 15.0714 10.9705 15.0749C11.0389 15.1491 11.1188 15.2079 11.2211 15.229C11.3896 15.2636 11.5085 15.1934 11.5414 15.0372C11.5498 14.9981 11.5546 14.9578 11.5546 14.9178C11.5555 14.2126 11.5568 13.5078 11.5533 12.803ZM14.2053 9.23113C11.4023 9.171 8.59801 9.171 5.7946 9.23113C4.8221 9.25175 4.04445 10.047 4.04445 11.0199V15.3979C4.04445 16.3713 4.8221 17.1665 5.7946 17.1871C8.59801 17.2473 11.4023 17.2473 14.2053 17.1871C15.1782 17.1665 15.9559 16.3713 15.9559 15.3979V11.0199C15.9559 10.047 15.1782 9.25175 14.2053 9.23113ZM6.6179 15.7969H5.80953V11.2271H4.97263V10.4626H7.45655V11.2253H6.6179V15.7969ZM9.51083 13.9001V15.7973H8.79506V15.3637C8.76917 15.3913 8.75468 15.4063 8.74108 15.4216C8.58704 15.5954 8.41238 15.7402 8.18944 15.817C8.0806 15.8543 7.96869 15.8671 7.85415 15.8473C7.69792 15.8214 7.59303 15.7315 7.52984 15.5893C7.47103 15.458 7.45611 15.3176 7.45567 15.1763C7.45392 14.6541 7.45479 11.8902 7.45479 11.8634H8.16881C8.17013 11.8875 8.17276 13.8716 8.1732 14.8393C8.1732 14.8919 8.17364 14.9459 8.18417 14.9972C8.2105 15.1271 8.31012 15.1829 8.4352 15.1372C8.57914 15.0846 8.68886 14.9854 8.78101 14.8665C8.79462 14.8494 8.79462 14.8186 8.79462 14.7941V11.859L9.51083 11.8572C9.51083 11.8573 9.51083 13.2427 9.51083 13.9001ZM12.2339 15.4181C12.1383 15.706 11.9276 15.8526 11.6248 15.8495C11.3786 15.8473 11.1789 15.7494 11.0143 15.5708C10.9959 15.5511 10.945 15.4971 10.945 15.4971V15.7964H10.2279V10.4621H10.945C10.945 11.03 10.945 12.218 10.945 12.218C10.945 12.218 10.9854 12.1372 11.0222 12.0955C11.1333 11.9713 11.2684 11.8752 11.4352 11.8331C11.7104 11.7642 12.0277 11.8493 12.1786 12.171C12.2677 12.361 12.2927 12.5638 12.2927 12.7701C12.2941 13.5157 12.2941 14.2613 12.2932 15.0069C12.2927 15.1465 12.2783 15.2843 12.2339 15.4181ZM14.8824 15.2681C14.7582 15.6319 14.5015 15.8337 14.125 15.889C13.8915 15.9233 13.6602 15.9184 13.4412 15.8193C13.1415 15.6841 12.9716 15.4397 12.8988 15.1285C12.865 14.9837 12.8483 14.8318 12.8466 14.6831C12.8409 14.099 12.8435 13.5144 12.8448 12.9303C12.8453 12.6248 12.9181 12.3431 13.1274 12.1092C13.3662 11.8419 13.6716 11.7423 14.0205 11.7647C14.1254 11.7713 14.2325 11.7884 14.3321 11.8213C14.6713 11.9328 14.8526 12.1869 14.9237 12.5239C14.9509 12.6538 14.961 12.7885 14.9632 12.9215C14.9689 13.2331 14.961 13.9199 14.961 13.9199H13.5878V14.9043C13.5878 15.0811 13.7309 15.2242 13.9077 15.2242C14.0841 15.2242 14.2272 15.0811 14.2272 14.9043V14.3983H14.9649C14.9649 14.3982 14.9759 14.9955 14.8824 15.2681ZM14.2272 12.7569C14.2272 12.5805 14.0841 12.437 13.9077 12.437C13.7309 12.437 13.5878 12.5805 13.5878 12.7569V13.3095H14.2272V12.7569ZM11.5032 12.581C11.4664 12.4892 11.3874 12.4436 11.2882 12.4339C11.1719 12.4225 11.0789 12.4695 10.9946 12.5441C10.9608 12.5735 10.9454 12.6174 10.9454 12.6174L10.9472 14.9859V15.0442C10.9472 15.0442 10.9674 15.0715 10.9705 15.075C11.0389 15.1491 11.1188 15.2079 11.2211 15.229C11.3896 15.2637 11.5085 15.1935 11.5414 15.0372C11.5498 14.9982 11.5546 14.9578 11.5546 14.9179C11.5555 14.2126 11.5568 13.5078 11.5533 12.803C11.5528 12.7284 11.5309 12.6507 11.5032 12.581Z" fill="white"/>
<path d="M13.3362 4.16895L13.336 8.12935H12.6022L12.603 7.70388C12.5219 7.7838 12.4527 7.85845 12.3766 7.9255C12.2417 8.04435 12.0888 8.13295 11.9101 8.16793C11.6357 8.2216 11.4019 8.13484 11.3144 7.85063C11.2853 7.75597 11.2677 7.65394 11.267 7.55511V4.16895H11.9953V7.18919C11.9953 7.22922 11.9985 7.26968 12.0055 7.30891C12.0276 7.43337 12.1196 7.49196 12.2395 7.4504C12.3856 7.39984 12.497 7.29869 12.5916 7.17949C12.605 7.16247 12.6026 7.13069 12.6026 7.10572V4.16895H13.3362Z" fill="white"/>
<path d="M7.26648 4.85711C7.10717 4.18561 6.77342 2.76807 6.77342 2.76807H5.93832C5.93832 2.76807 6.57993 4.89595 6.86685 5.84493C6.87717 5.87925 6.88191 5.9165 6.88191 5.95245L6.8816 8.12847H7.65166L7.65135 5.95245C7.65135 5.9165 7.65609 5.87925 7.6664 5.84493C7.95333 4.89595 8.59493 2.76807 8.59493 2.76807H7.75984C7.75984 2.76807 7.42604 4.18561 7.26678 4.85711H7.26648Z" fill="white"/>
<path d="M9.60005 4.06982C9.01971 4.06982 8.54926 4.54028 8.54926 5.12062V7.17705C8.54926 7.75739 9.01971 8.22785 9.60005 8.22785C10.1804 8.22785 10.6508 7.75739 10.6508 7.17705V5.12062C10.6509 4.54028 10.1804 4.06982 9.60005 4.06982ZM9.9033 7.21857C9.9033 7.38577 9.76726 7.52177 9.6001 7.52177C9.43294 7.52177 9.29689 7.38577 9.29689 7.21857V5.07906C9.29689 4.91186 9.43294 4.77585 9.6001 4.77585C9.76726 4.77585 9.9033 4.9119 9.9033 5.07906V7.21857Z" fill="white"/>
</svg>
