<svg width="24" height="24" viewBox="0 0 24 24" fill="none" xmlns="http://www.w3.org/2000/svg">
<circle cx="12" cy="12" r="12" fill="#834995"/>
<g clip-path="url(#clip0)">
<path d="M16.9964 13.0649C16.6775 15.6264 14.797 15.7863 14.4485 15.8983C14.3005 15.9462 12.9296 16.2852 11.2035 16.1733L9.33286 18.188L9.32957 15.8663L9.31642 15.8631C6.80464 15.1691 6.89012 12.5628 6.91642 11.1972C6.94601 9.83171 7.20245 8.70922 7.96847 7.9577C9.34272 6.71689 12.18 6.90237 12.18 6.90237C14.5734 6.91196 15.7208 7.6315 15.9871 7.87135C16.8748 8.62288 17.3252 10.4233 16.9964 13.0649ZM16.6446 7.22856C16.329 6.94074 15.06 6.02293 12.2293 6.01013C12.2293 6.01013 8.89231 5.80866 7.26491 7.29572C6.35751 8.19755 6.03861 9.51831 6.00573 11.1525C5.97286 12.7898 5.93012 15.8567 8.89889 16.6882H8.90217V17.9577C8.90217 17.9577 8.88245 18.4726 9.22437 18.575C9.63532 18.7029 9.87532 18.3127 10.2698 17.8906C10.4868 17.6603 10.7827 17.3214 11.0063 17.0623C13.0381 17.2318 14.5997 16.8417 14.774 16.7873C15.1849 16.653 17.5027 16.3588 17.8808 13.2919C18.2655 10.1291 17.6868 8.13039 16.6446 7.22856Z" fill="white"/>
<path d="M14.8339 13.4449C14.8339 13.4449 14.4526 13.1283 14.2685 12.994C14.0942 12.8661 13.8148 12.6934 13.6602 12.607C13.3808 12.4535 13.0948 12.5495 12.9764 12.703L12.7298 13.01C12.6049 13.1667 12.4109 13.1379 12.3616 13.1283C12 13.0387 11.6153 12.8213 11.2208 12.4503C10.823 12.0762 10.5797 11.686 10.4942 11.2799L10.4876 11.2543C10.4646 11.088 10.4942 11.0112 10.5633 10.8961L10.5764 10.8865C10.7408 10.7362 11.0498 10.5539 11.0893 10.3812C11.2109 10.0806 10.6849 9.45062 10.6126 9.34189C10.6126 9.34189 10.2312 8.8526 10.0964 8.75666C9.95175 8.63834 9.7249 8.57118 9.49477 8.70869L9.48161 8.71829C8.82737 9.14042 8.59066 9.38986 8.65641 9.75763L8.68929 9.90793C9.02134 10.9281 9.66572 12.0154 10.6224 12.9844C11.5693 13.9406 12.595 14.513 13.6044 14.9096C13.8674 14.9959 14.1402 14.9223 14.4197 14.6889L14.423 14.6857C14.6367 14.4906 14.8076 14.2828 14.9326 14.0589V14.0557C15.0575 13.819 15.0148 13.5984 14.8339 13.4449Z" fill="white"/>
<path d="M13.2625 11.2127C13.223 11.2127 13.1901 11.1807 13.1868 11.1423C13.1737 10.8769 13.1014 10.6754 12.9699 10.5411C12.8383 10.4068 12.6444 10.3333 12.3879 10.3173C12.3452 10.3141 12.3156 10.2789 12.3156 10.2373C12.3189 10.1958 12.3518 10.1638 12.3945 10.167C12.6904 10.183 12.9172 10.2725 13.0751 10.4356C13.2329 10.5987 13.3216 10.8321 13.3348 11.136C13.3381 11.1775 13.3052 11.2127 13.2625 11.2159" fill="white"/>
<path d="M14.0087 11.4622C13.966 11.4622 13.9331 11.427 13.9331 11.3854C13.9463 10.8769 13.7917 10.4484 13.4794 10.1094C13.3249 9.93992 13.1342 9.8056 12.9172 9.71286C12.7002 9.61692 12.4438 9.55936 12.1643 9.54017C12.1216 9.53698 12.092 9.5018 12.0953 9.46022C12.0986 9.41865 12.1347 9.38667 12.1775 9.38987C12.7791 9.43464 13.2558 9.64251 13.5945 10.0103C13.9331 10.378 14.1008 10.8449 14.0876 11.3918C14.0843 11.427 14.0515 11.4622 14.0087 11.4622Z" fill="white"/>
<path d="M14.7747 11.7594C14.732 11.7594 14.6991 11.7274 14.6991 11.6859C14.6958 11.2382 14.6268 10.832 14.492 10.4802C14.3572 10.1317 14.1567 9.82465 13.8936 9.56562C13.6306 9.30978 13.3282 9.11471 13.0027 8.98359C12.6739 8.85247 12.309 8.78531 11.9145 8.78531C11.8717 8.78531 11.8388 8.75014 11.8388 8.70856C11.8388 8.66699 11.8717 8.63501 11.9145 8.63501C12.743 8.64141 13.4432 8.91643 13.9988 9.45689C14.2783 9.72872 14.492 10.0549 14.6334 10.4259C14.7747 10.7936 14.8471 11.219 14.8504 11.6859C14.8504 11.7242 14.8175 11.7594 14.7747 11.7594Z" fill="white"/>
</g>
<defs>
<clipPath id="clip0">
<rect width="12" height="12.6" fill="white" transform="translate(5.99992 6)"/>
</clipPath>
</defs>
</svg>
