<svg width="24" height="24" viewBox="0 0 24 24" fill="none" xmlns="http://www.w3.org/2000/svg">
<g clip-path="url(#clip0)">
<path d="M11.8435 6.92871C9.92667 6.92871 8.36715 8.48823 8.36715 10.4051C8.36715 12.8144 11.847 16.93 11.847 16.93C11.847 16.93 15.3199 12.6959 15.3199 10.4051C15.3199 8.48823 13.7605 6.92871 11.8435 6.92871ZM12.8924 11.423C12.6032 11.7121 12.2234 11.8568 11.8435 11.8568C11.4637 11.8568 11.0838 11.7121 10.7947 11.423C10.2163 10.8447 10.2163 9.90363 10.7947 9.32525C11.0748 9.04506 11.4473 8.89075 11.8435 8.89075C12.2398 8.89075 12.6122 9.04512 12.8924 9.32525C13.4708 9.90363 13.4708 10.8447 12.8924 11.423Z" fill="white"/>
</g>
<circle cx="12" cy="12" r="11.5" stroke="white"/>
<defs>
<clipPath id="clip0">
<rect width="10.668" height="10.668" fill="white" transform="translate(6.59999 6.6001)"/>
</clipPath>
</defs>
</svg>
