<svg width="24" height="24" viewBox="0 0 24 24" fill="none" xmlns="http://www.w3.org/2000/svg">
<g clip-path="url(#clip0)">
<path d="M2.88263 13.1067C2.8363 12.7207 2.8125 12.3373 2.8125 12C2.8125 6.96552 6.96552 2.8125 12 2.8125C14.3483 2.8125 16.5469 3.75934 18.1641 5.2359L17.3531 6.06097C17.1703 6.24371 17.1 6.51086 17.1703 6.7641C17.2548 7.00305 17.4516 7.18597 17.7047 7.24219C17.8462 7.27057 22.496 8.76892 22.1999 8.70941C22.5765 8.83484 23.1335 8.43311 23.0297 7.87976C23.0012 7.73804 21.9717 2.57281 22.0312 2.86871C21.975 2.61566 21.7921 2.40472 21.5391 2.33441C21.3001 2.2641 21.0328 2.33441 20.85 2.51715L20.161 3.19208C18.0375 1.20941 15.1218 0 12 0C5.40472 0 0 5.40472 0 12V12.028C0 12.4244 0.0181275 12.7308 0.0391846 12.9651C0.0671997 13.2757 0.296082 13.53 0.601868 13.5914L2.04639 13.8801C2.5166 13.9742 2.93939 13.58 2.88263 13.1067Z" fill="#248081"/>
<path d="M23.4025 10.4078L21.9538 10.1126C21.483 10.0167 21.0573 10.4113 21.1151 10.8868C21.1653 11.2971 21.1876 11.6961 21.1876 12.0003C21.1876 17.0346 17.0346 21.1878 12.0001 21.1878C9.65182 21.1878 7.45327 20.2409 5.83608 18.7503L6.64706 17.9393C6.8298 17.7566 6.90011 17.4894 6.8298 17.2362C6.74538 16.997 6.54855 16.8143 6.29549 16.7581C6.15395 16.7295 1.50417 15.2313 1.80026 15.2909C1.56112 15.2487 1.32198 15.3191 1.16744 15.4877C0.998619 15.6424 0.928307 15.8955 0.970421 16.1205C0.998985 16.262 2.02859 21.3804 1.96908 21.0845C2.02511 21.3377 2.20803 21.5487 2.46108 21.6188C2.7546 21.6924 2.9996 21.6034 3.15011 21.4361L3.82522 20.7611C5.94851 22.744 8.86428 24.0003 12.0001 24.0003C18.5954 24.0003 24.0001 18.5955 24.0001 12.0003V11.958C24.0001 11.6463 23.9888 11.3404 23.9628 11.0362C23.9361 10.7255 23.7081 10.4702 23.4025 10.4078Z" fill="#248081"/>
</g>
<defs>
<clipPath id="clip0">
<rect width="24" height="24" fill="white"/>
</clipPath>
</defs>
</svg>
