<svg width="44" height="26" viewBox="0 0 44 26" fill="none" xmlns="http://www.w3.org/2000/svg">
<g clip-path="url(#clip0)">
<path d="M41.8438 6.5H41.1938V3.25C41.1938 1.4625 39.7313 0 37.9438 0H5.85C4.0625 0 2.6 1.4625 2.6 3.25V6.5H1.95C0.89375 6.5 0 7.39375 0 8.45V21.45C0 22.5063 0.89375 23.4 1.95 23.4H2.6V25.35C2.6 25.7156 2.88438 26 3.25 26H8.45C8.81562 26 9.1 25.7156 9.1 25.35V23.4H34.6938V25.35C34.6938 25.7156 34.9781 26 35.3438 26H40.5438C40.9094 26 41.1938 25.7156 41.1938 25.35V23.4H41.8438C42.9 23.4 43.7938 22.5063 43.7938 21.45V8.45C43.7938 7.39375 42.9 6.5 41.8438 6.5ZM3.9 3.25C3.9 2.19375 4.79375 1.3 5.85 1.3H37.9438C39 1.3 39.8937 2.19375 39.8937 3.25V6.5H39.2437C38.1875 6.5 37.2938 7.39375 37.2938 8.45V13H6.5V8.45C6.5 7.39375 5.60625 6.5 4.55 6.5H3.9V3.25ZM37.2938 14.3V16.9H6.5V14.3H37.2938ZM7.8 24.7H3.9V23.4H7.8V24.7ZM39.8937 24.7H35.9937V23.4H39.8937V24.7ZM42.4937 21.45C42.4937 21.8156 42.2094 22.1 41.8438 22.1H40.5438H35.3438H8.45H3.25H1.95C1.58438 22.1 1.3 21.8156 1.3 21.45V8.45C1.3 8.08437 1.58438 7.8 1.95 7.8H4.55C4.91563 7.8 5.2 8.08437 5.2 8.45V13.65V17.55C5.2 17.9156 5.48438 18.2 5.85 18.2H37.9438C38.3094 18.2 38.5938 17.9156 38.5938 17.55V13.65V8.45C38.5938 8.08437 38.8781 7.8 39.2437 7.8H41.8438C42.2094 7.8 42.4937 8.08437 42.4937 8.45V21.45Z" fill="#50CCCD"/>
</g>
<defs>
<clipPath id="clip0">
<rect width="43.7938" height="26" fill="white"/>
</clipPath>
</defs>
</svg>
