<svg width="30" height="26" viewBox="0 0 30 26" fill="none" xmlns="http://www.w3.org/2000/svg">
<path d="M28.022 6.5H27.3626V3.25C27.3626 1.4625 25.8791 0 24.0659 0H5.93407C4.12088 0 2.63736 1.4625 2.63736 3.25V6.5H1.97802C0.906593 6.5 0 7.39375 0 8.45V21.45C0 22.5063 0.906593 23.4 1.97802 23.4H2.63736V25.35C2.63736 25.7156 2.92582 26 3.2967 26H8.57143C8.94231 26 9.23077 25.7156 9.23077 25.35V23.4H20.7692V25.35C20.7692 25.7156 21.0577 26 21.4286 26H26.7033C27.0742 26 27.3626 25.7156 27.3626 25.35V23.4H28.022C29.0934 23.4 30 22.5063 30 21.45V8.45C30 7.39375 29.0934 6.5 28.022 6.5ZM3.95604 3.25C3.95604 2.19375 4.86264 1.3 5.93407 1.3H24.0659C25.1374 1.3 26.044 2.19375 26.044 3.25V6.5H25.3846C24.3132 6.5 23.4066 7.39375 23.4066 8.45V13H6.59341V8.45C6.59341 7.39375 5.68681 6.5 4.61538 6.5H3.95604V3.25ZM23.4066 14.3V16.9H6.59341V14.3H23.4066ZM7.91209 24.7H3.95604V23.4H7.91209V24.7ZM26.044 24.7H22.0879V23.4H26.044V24.7ZM28.6813 21.45C28.6813 21.8156 28.3929 22.1 28.022 22.1H26.7033H21.4286H8.57143H3.2967H1.97802C1.60714 22.1 1.31868 21.8156 1.31868 21.45V8.45C1.31868 8.08437 1.60714 7.8 1.97802 7.8H4.61538C4.98626 7.8 5.27472 8.08437 5.27472 8.45V13.65V17.55C5.27472 17.9156 5.56319 18.2 5.93407 18.2H24.0659C24.4368 18.2 24.7253 17.9156 24.7253 17.55V13.65V8.45C24.7253 8.08437 25.0137 7.8 25.3846 7.8H28.022C28.3929 7.8 28.6813 8.08437 28.6813 8.45V21.45Z" fill="#50CCCD"/>
</svg>
