<svg width="38" height="26" viewBox="0 0 38 26" fill="none" xmlns="http://www.w3.org/2000/svg">
<g clip-path="url(#clip0)">
<path d="M35.3438 6.5H34.6938V3.25C34.6938 1.4625 33.2313 0 31.4438 0H5.85C4.0625 0 2.6 1.4625 2.6 3.25V6.5H1.95C0.89375 6.5 0 7.39375 0 8.45V21.45C0 22.5063 0.89375 23.4 1.95 23.4H2.6V25.35C2.6 25.7156 2.88438 26 3.25 26H8.45C8.81562 26 9.1 25.7156 9.1 25.35V23.4H28.1938V25.35C28.1938 25.7156 28.4781 26 28.8438 26H34.0438C34.4094 26 34.6938 25.7156 34.6938 25.35V23.4H35.3438C36.4 23.4 37.2938 22.5063 37.2938 21.45V8.45C37.2938 7.39375 36.4 6.5 35.3438 6.5ZM3.9 3.25C3.9 2.19375 4.79375 1.3 5.85 1.3H31.4438C32.5 1.3 33.3937 2.19375 33.3937 3.25V6.5H32.7437C31.6875 6.5 30.7938 7.39375 30.7938 8.45V13H6.5V8.45C6.5 7.39375 5.60625 6.5 4.55 6.5H3.9V3.25ZM30.7938 14.3V16.9H6.5V14.3H30.7938ZM7.8 24.7H3.9V23.4H7.8V24.7ZM33.3937 24.7H29.4937V23.4H33.3937V24.7ZM35.9937 21.45C35.9937 21.8156 35.7094 22.1 35.3438 22.1H34.0438H28.8438H8.45H3.25H1.95C1.58438 22.1 1.3 21.8156 1.3 21.45V8.45C1.3 8.08437 1.58438 7.8 1.95 7.8H4.55C4.91563 7.8 5.2 8.08437 5.2 8.45V13.65V17.55C5.2 17.9156 5.48438 18.2 5.85 18.2H31.4438C31.8094 18.2 32.0938 17.9156 32.0938 17.55V13.65V8.45C32.0938 8.08437 32.3781 7.8 32.7437 7.8H35.3438C35.7094 7.8 35.9937 8.08437 35.9937 8.45V21.45Z" fill="#50CCCD"/>
</g>
<defs>
<clipPath id="clip0">
<rect width="37.2938" height="26" fill="white"/>
</clipPath>
</defs>
</svg>
