<svg width="40" height="40" viewBox="0 0 40 40" fill="none" xmlns="http://www.w3.org/2000/svg">
<circle cx="20" cy="20" r="20" fill="#834995"/>
<g clip-path="url(#clip0)">
<path d="M28.3284 21.7741C27.7969 26.0434 24.6626 26.3099 24.0818 26.4965C23.8352 26.5764 21.5503 27.1414 18.6736 26.9548L15.5558 30.3127L15.5503 26.4432L15.5284 26.4378C11.3421 25.2812 11.4846 20.9373 11.5284 18.6614C11.5777 16.3856 12.0051 14.5147 13.2818 13.2622C15.5722 11.1942 20.301 11.5033 20.301 11.5033C24.29 11.5193 26.2024 12.7186 26.6462 13.1183C28.1256 14.3708 28.8763 17.3716 28.3284 21.7741ZM27.7421 12.047C27.2161 11.5673 25.101 10.0376 20.3832 10.0163C20.3832 10.0163 14.8215 9.68048 12.1092 12.1589C10.5969 13.662 10.0654 15.8632 10.0106 18.5868C9.95579 21.3158 9.88455 26.4272 14.8325 27.813H14.838V29.929C14.838 29.929 14.8051 30.7871 15.375 30.9576C16.0599 31.1708 16.4599 30.5206 17.1174 29.817C17.4791 29.4333 17.9722 28.8683 18.3448 28.4366C21.7311 28.7191 24.3339 28.0688 24.6243 27.9782C25.3092 27.7543 29.1722 27.264 29.8024 22.1526C30.4435 16.8812 29.4791 13.55 27.7421 12.047Z" fill="white"/>
<path d="M24.7232 22.4081C24.7232 22.4081 24.0876 21.8805 23.7808 21.6566C23.4904 21.4434 23.0246 21.1556 22.7671 21.0117C22.3013 20.7558 21.8246 20.9157 21.6274 21.1716L21.2164 21.6832C21.0082 21.9444 20.6849 21.8964 20.6027 21.8805C20 21.7312 19.3589 21.3688 18.7013 20.7505C18.0383 20.1269 17.6328 19.4767 17.4904 18.7997L17.4794 18.7571C17.4411 18.48 17.4904 18.352 17.6054 18.1602L17.6274 18.1442C17.9013 17.8937 18.4164 17.5898 18.4822 17.302C18.6849 16.801 17.8082 15.751 17.6876 15.5698C17.6876 15.5698 17.052 14.7543 16.8274 14.5944C16.5863 14.3972 16.2082 14.2853 15.8246 14.5145L15.8027 14.5305C14.7123 15.234 14.3178 15.6497 14.4274 16.2627L14.4822 16.5132C15.0356 18.2135 16.1095 20.0256 17.7041 21.6406C19.2822 23.2343 20.9917 24.1883 22.6739 24.8492C23.1123 24.9931 23.5671 24.8706 24.0328 24.4815L24.0383 24.4761C24.3945 24.151 24.6794 23.8046 24.8876 23.4315V23.4261C25.0959 23.0317 25.0246 22.664 24.7232 22.4081Z" fill="white"/>
<path d="M22.1042 18.6878C22.0384 18.6878 21.9836 18.6345 21.9781 18.5706C21.9562 18.1282 21.8357 17.7924 21.6165 17.5685C21.3973 17.3447 21.074 17.2221 20.6466 17.1954C20.5754 17.1901 20.5261 17.1315 20.5261 17.0622C20.5315 16.9929 20.5863 16.9396 20.6576 16.9449C21.1507 16.9716 21.5288 17.1208 21.7918 17.3926C22.0548 17.6645 22.2028 18.0535 22.2247 18.5599C22.2302 18.6292 22.1754 18.6878 22.1042 18.6931V18.6931" fill="white"/>
<path d="M23.348 19.1036C23.2767 19.1036 23.2219 19.0449 23.2219 18.9756C23.2439 18.1282 22.9863 17.414 22.4658 16.849C22.2082 16.5665 21.8904 16.3426 21.5288 16.1881C21.1671 16.0282 20.7397 15.9322 20.274 15.9003C20.2028 15.8949 20.1534 15.8363 20.1589 15.767C20.1644 15.6977 20.2247 15.6444 20.2959 15.6498C21.2986 15.7244 22.0932 16.0708 22.6576 16.6838C23.2219 17.2967 23.5014 18.0749 23.4795 18.9863C23.474 19.0449 23.4192 19.1036 23.348 19.1036Z" fill="white"/>
<path d="M24.6247 19.5992C24.5534 19.5992 24.4986 19.5459 24.4986 19.4767C24.4932 18.7305 24.3781 18.0536 24.1534 17.4673C23.9288 16.8863 23.5945 16.3746 23.1562 15.9429C22.7178 15.5165 22.2137 15.1914 21.6712 14.9728C21.1233 14.7543 20.5151 14.6424 19.8575 14.6424C19.7863 14.6424 19.7315 14.5838 19.7315 14.5145C19.7315 14.4452 19.7863 14.3919 19.8575 14.3919C21.2384 14.4025 22.4055 14.8609 23.3315 15.7617C23.7973 16.2147 24.1534 16.7584 24.389 17.3766C24.6247 17.9896 24.7452 18.6985 24.7507 19.4767C24.7507 19.5406 24.6959 19.5992 24.6247 19.5992Z" fill="white"/>
</g>
<defs>
<clipPath id="clip0">
<rect width="20" height="21" fill="white" transform="translate(10 10)"/>
</clipPath>
</defs>
</svg>
