<svg width="32" height="32" viewBox="0 0 32 32" fill="none" xmlns="http://www.w3.org/2000/svg">
<g clip-path="url(#clip0)">
<path d="M30.8032 15.8102C30.7519 14.8954 30.3393 14.013 29.6416 13.3256C28.9442 12.6384 28.0559 12.2387 27.1403 12.2004C26.8561 12.1885 26.5761 12.2082 26.3034 12.2561V4.87012C26.3034 2.18475 24.1186 0 21.4332 0H10.5668C7.88138 0 5.69663 2.18475 5.69663 4.87012V6.68131C5.69663 6.94056 5.90676 7.15069 6.16601 7.15069C6.42526 7.15069 6.63538 6.94056 6.63538 6.68131V4.87012C6.63538 2.70237 8.39901 0.93875 10.5668 0.93875H21.4332C23.601 0.93875 25.3646 2.70237 25.3646 4.87012V12.5506C24.9858 12.7264 24.634 12.9648 24.3228 13.2633C23.5615 13.9932 23.1423 14.976 23.1423 16.0304V17.9405C22.4804 17.2115 21.5257 16.7531 20.4659 16.7531H11.5342C10.4744 16.7531 9.51963 17.2115 8.85782 17.9405V16.0304C8.85782 14.976 8.43857 13.9932 7.67732 13.2633C7.36613 12.9648 7.01432 12.7264 6.63545 12.5506V8.55881C6.63545 8.29956 6.42532 8.08944 6.16607 8.08944C5.90682 8.08944 5.6967 8.29956 5.6967 8.55881V12.2561C5.42401 12.2082 5.14401 12.1885 4.85976 12.2003C3.94426 12.2388 3.05588 12.6383 2.35838 13.3256C1.66076 14.0129 1.2482 14.8953 1.19688 15.8102C1.10301 17.4831 2.08126 18.991 3.6097 19.5939V20.9619C3.6097 21.2212 3.81982 21.4313 4.07907 21.4313C4.33832 21.4313 4.54845 21.2212 4.54845 20.9619V19.2591C4.54845 19.0506 4.41088 18.867 4.21076 18.8086C2.91201 18.4289 2.05813 17.2176 2.13413 15.8629C2.2137 14.4455 3.47988 13.1978 4.89907 13.1384C5.69557 13.105 6.45288 13.3899 7.02751 13.9409C7.60245 14.4922 7.91901 15.2343 7.91901 16.0305V28.3189C7.91901 28.5777 7.70845 28.7883 7.44963 28.7883H5.01776C4.75895 28.7883 4.54838 28.5777 4.54838 28.3189V22.8395C4.54838 22.5802 4.33826 22.3701 4.07901 22.3701C3.81976 22.3701 3.60963 22.5802 3.60963 22.8395V28.3189C3.60963 28.9906 4.08245 29.5535 4.71257 29.6934V30.6014C4.71257 31.3727 5.34001 32.0001 6.1112 32.0001C6.88238 32.0001 7.50982 31.3727 7.50982 30.6014V29.7256C8.25838 29.6939 8.85776 29.0753 8.85776 28.319V27.7827H23.1422V28.319C23.1422 29.0567 23.7125 29.6632 24.4353 29.722V30.6014C24.4353 31.3727 25.0628 32.0001 25.8339 32.0001C26.6052 32.0001 27.2326 31.3727 27.2326 30.6014V29.7043C27.8899 29.5858 28.3903 29.0099 28.3903 28.3189V26.8381C28.3903 26.5788 28.1802 26.3687 27.9209 26.3687C27.6617 26.3687 27.4516 26.5788 27.4516 26.8381V28.3189C27.4516 28.5777 27.241 28.7883 26.9822 28.7883H24.5503C24.2915 28.7883 24.0809 28.5777 24.0809 28.3189V16.0304C24.0809 15.2342 24.3975 14.4921 24.9724 13.9408C25.5471 13.3898 26.3044 13.1047 27.1009 13.1383C28.5201 13.1978 29.7863 14.4455 29.8658 15.8628C29.9418 17.2176 29.0879 18.4289 27.7892 18.8086C27.5891 18.8671 27.4515 19.0506 27.4515 19.2591V24.9605C27.4515 25.2198 27.6616 25.4299 27.9209 25.4299C28.1801 25.4299 28.3903 25.2198 28.3903 24.9605V19.5939C29.9188 18.991 30.8971 17.4831 30.8032 15.8102ZM6.57113 30.6013C6.57113 30.8549 6.36482 31.0613 6.11126 31.0613C5.8577 31.0613 5.65138 30.8549 5.65138 30.6013V29.7269H6.5712V30.6013H6.57113ZM26.2939 30.6013C26.2939 30.8549 26.0876 31.0613 25.834 31.0613C25.5804 31.0613 25.3741 30.8549 25.3741 30.6013V29.7269H26.294V30.6013H26.2939ZM11.5342 17.6919H20.4659C21.9416 17.6919 23.1423 18.8925 23.1423 20.3683V22.6505H8.85776V20.3683C8.85776 18.8925 10.0584 17.6919 11.5342 17.6919ZM8.85776 26.8438V23.5892H23.1422V26.8438H8.85776Z" fill="#50CCCD"/>
</g>
<defs>
<clipPath id="clip0">
<rect width="32" height="32" fill="white"/>
</clipPath>
</defs>
</svg>
