<svg width="63" height="13" viewBox="0 0 63 13" fill="none" xmlns="http://www.w3.org/2000/svg">
<path d="M10.83 0.199999V10H9.836V2.16L5.986 8.754H5.496L1.646 2.202V10H0.652V0.199999H1.506L5.762 7.466L9.976 0.199999H10.83ZM16.4285 2.58C17.3898 2.58 18.1271 2.82267 18.6405 3.308C19.1538 3.784 19.4105 4.49333 19.4105 5.436V10H18.4585V8.852C18.2345 9.23467 17.9031 9.53333 17.4645 9.748C17.0351 9.96267 16.5218 10.07 15.9245 10.07C15.1031 10.07 14.4498 9.874 13.9645 9.482C13.4791 9.09 13.2365 8.572 13.2365 7.928C13.2365 7.30267 13.4605 6.79867 13.9085 6.416C14.3658 6.03333 15.0891 5.842 16.0785 5.842H18.4165V5.394C18.4165 4.75933 18.2391 4.27867 17.8845 3.952C17.5298 3.616 17.0118 3.448 16.3305 3.448C15.8638 3.448 15.4158 3.52733 14.9865 3.686C14.5571 3.83533 14.1885 4.04533 13.8805 4.316L13.4325 3.574C13.8058 3.25667 14.2538 3.014 14.7765 2.846C15.2991 2.66867 15.8498 2.58 16.4285 2.58ZM16.0785 9.286C16.6385 9.286 17.1191 9.16 17.5205 8.908C17.9218 8.64667 18.2205 8.27333 18.4165 7.788V6.584H16.1065C14.8465 6.584 14.2165 7.02267 14.2165 7.9C14.2165 8.32933 14.3798 8.67 14.7065 8.922C15.0331 9.16467 15.4905 9.286 16.0785 9.286ZM27.2366 3.518H24.4506V10H23.4566V3.518H20.6706V2.636H27.2366V3.518ZM32.4678 2.58C33.1584 2.58 33.7838 2.73867 34.3438 3.056C34.9038 3.364 35.3424 3.80267 35.6598 4.372C35.9771 4.94133 36.1358 5.59 36.1358 6.318C36.1358 7.05533 35.9771 7.70867 35.6598 8.278C35.3424 8.84733 34.9038 9.29067 34.3438 9.608C33.7931 9.916 33.1678 10.07 32.4678 10.07C31.8704 10.07 31.3291 9.94867 30.8438 9.706C30.3678 9.454 29.9758 9.09 29.6678 8.614V12.716H28.6738V2.636H29.6258V4.092C29.9244 3.60667 30.3164 3.23333 30.8018 2.972C31.2964 2.71067 31.8518 2.58 32.4678 2.58ZM32.3978 9.188C32.9111 9.188 33.3778 9.07133 33.7978 8.838C34.2178 8.59533 34.5444 8.25467 34.7778 7.816C35.0204 7.37733 35.1418 6.878 35.1418 6.318C35.1418 5.758 35.0204 5.26333 34.7778 4.834C34.5444 4.39533 34.2178 4.05467 33.7978 3.812C33.3778 3.56933 32.9111 3.448 32.3978 3.448C31.8751 3.448 31.4038 3.56933 30.9838 3.812C30.5731 4.05467 30.2464 4.39533 30.0038 4.834C29.7704 5.26333 29.6538 5.758 29.6538 6.318C29.6538 6.878 29.7704 7.37733 30.0038 7.816C30.2464 8.25467 30.5731 8.59533 30.9838 8.838C31.4038 9.07133 31.8751 9.188 32.3978 9.188ZM40.7644 2.58C41.7257 2.58 42.4631 2.82267 42.9764 3.308C43.4897 3.784 43.7464 4.49333 43.7464 5.436V10H42.7944V8.852C42.5704 9.23467 42.2391 9.53333 41.8004 9.748C41.3711 9.96267 40.8577 10.07 40.2604 10.07C39.4391 10.07 38.7857 9.874 38.3004 9.482C37.8151 9.09 37.5724 8.572 37.5724 7.928C37.5724 7.30267 37.7964 6.79867 38.2444 6.416C38.7017 6.03333 39.4251 5.842 40.4144 5.842H42.7524V5.394C42.7524 4.75933 42.5751 4.27867 42.2204 3.952C41.8657 3.616 41.3477 3.448 40.6664 3.448C40.1997 3.448 39.7517 3.52733 39.3224 3.686C38.8931 3.83533 38.5244 4.04533 38.2164 4.316L37.7684 3.574C38.1417 3.25667 38.5897 3.014 39.1124 2.846C39.6351 2.66867 40.1857 2.58 40.7644 2.58ZM40.4144 9.286C40.9744 9.286 41.4551 9.16 41.8564 8.908C42.2577 8.64667 42.5564 8.27333 42.7524 7.788V6.584H40.4424C39.1824 6.584 38.5524 7.02267 38.5524 7.9C38.5524 8.32933 38.7157 8.67 39.0424 8.922C39.3691 9.16467 39.8264 9.286 40.4144 9.286ZM49.4725 10.07C48.7445 10.07 48.0912 9.91133 47.5125 9.594C46.9432 9.27667 46.4952 8.83333 46.1685 8.264C45.8418 7.68533 45.6785 7.03667 45.6785 6.318C45.6785 5.59933 45.8418 4.95533 46.1685 4.386C46.4952 3.81667 46.9432 3.37333 47.5125 3.056C48.0912 2.73867 48.7445 2.58 49.4725 2.58C50.1072 2.58 50.6718 2.706 51.1665 2.958C51.6705 3.20067 52.0672 3.56 52.3565 4.036L51.6145 4.54C51.3718 4.176 51.0638 3.90533 50.6905 3.728C50.3172 3.54133 49.9112 3.448 49.4725 3.448C48.9405 3.448 48.4598 3.56933 48.0305 3.812C47.6105 4.04533 47.2792 4.38133 47.0365 4.82C46.8032 5.25867 46.6865 5.758 46.6865 6.318C46.6865 6.88733 46.8032 7.39133 47.0365 7.83C47.2792 8.25933 47.6105 8.59533 48.0305 8.838C48.4598 9.07133 48.9405 9.188 49.4725 9.188C49.9112 9.188 50.3172 9.09933 50.6905 8.922C51.0638 8.74467 51.3718 8.474 51.6145 8.11L52.3565 8.614C52.0672 9.09 51.6705 9.454 51.1665 9.706C50.6625 9.94867 50.0978 10.07 49.4725 10.07ZM57.3752 5.24C58.2992 5.24933 59.0039 5.45467 59.4892 5.856C59.9745 6.25733 60.2172 6.836 60.2172 7.592C60.2172 8.376 59.9559 8.978 59.4332 9.398C58.9105 9.818 58.1639 10.0233 57.1932 10.014L54.2812 10V2.636H55.2752V5.212L57.3752 5.24ZM61.4492 2.636H62.4432V10H61.4492V2.636ZM57.1372 9.258C57.8185 9.26733 58.3319 9.132 58.6772 8.852C59.0319 8.56267 59.2092 8.14267 59.2092 7.592C59.2092 7.05067 59.0365 6.64933 58.6912 6.388C58.3459 6.12667 57.8279 5.99133 57.1372 5.982L55.2752 5.954V9.23L57.1372 9.258Z" fill="black"/>
</svg>
