<svg width="32" height="32" viewBox="0 0 32 32" fill="none" xmlns="http://www.w3.org/2000/svg">
<path d="M20.8007 1.73956H15.0122C14.7533 1.73956 14.5435 1.94938 14.5435 2.20831C14.5435 2.46725 14.7533 2.67706 15.0121 2.67706H20.6282V10.3356L15.8875 4.22775C15.7288 4.02331 15.4344 3.98613 15.2298 4.14488C15.0253 4.30363 14.9882 4.59806 15.147 4.80256L20.4993 11.6986C20.5359 11.7458 20.58 11.7836 20.6282 11.8126V16.4204L18.0915 13.1521C17.9327 12.9476 17.6382 12.9106 17.4338 13.0692C17.2293 13.2279 17.1921 13.5224 17.3509 13.7269L20.4993 17.7833C20.536 17.8305 20.58 17.8684 20.6283 17.8974V23.6609H18.8054C18.5465 23.6609 18.3366 23.8708 18.3366 24.1297C18.3366 24.3886 18.5465 24.5984 18.8054 24.5984H20.8007C21.2226 24.5984 21.5658 24.2521 21.5658 23.8263V2.51169C21.5658 2.08594 21.2226 1.73956 20.8007 1.73956Z" fill="#50CCCD"/>
<path d="M22.25 0H9.75C9.14694 0 8.65625 0.490687 8.65625 1.09375V24.6352V25.3247V31.2279C8.65625 31.6536 8.99944 32 9.42131 32H10.6067C11.0286 32 11.3717 31.6536 11.3717 31.2279V28.8452H20.6283V31.2279C20.6283 31.6536 20.9714 32 21.3933 32H22.5787C23.0006 32 23.3438 31.6536 23.3438 31.2279V25.3247V25.0851V1.09375C23.3438 0.490687 22.8531 0 22.25 0ZM10.4342 31.0625H9.59375V26.406C9.64494 26.4134 9.69681 26.4185 9.75 26.4185H10.4342V31.0625ZM20.6283 27.9077H11.3717V26.4184H20.6283V27.9077ZM22.4062 31.0625H21.5658V26.4184H22.25C22.3032 26.4184 22.3551 26.4133 22.4062 26.4059V31.0625ZM22.4062 25.0851V25.3247C22.4062 25.4109 22.3362 25.4809 22.25 25.4809H9.75C9.66387 25.4809 9.59375 25.4109 9.59375 25.3247V24.6352V1.09375C9.59375 1.00756 9.66387 0.9375 9.75 0.9375H22.25C22.3362 0.9375 22.4062 1.00756 22.4062 1.09375V25.0851Z" fill="#50CCCD"/>
<path d="M17.0867 23.6608H11.3717V16.0023L16.1125 22.1101C16.2049 22.2291 16.3433 22.2914 16.4831 22.2914C16.5836 22.2914 16.6848 22.2594 16.7702 22.193C16.9747 22.0343 17.0118 21.7398 16.8531 21.5353L11.5006 14.6393C11.4641 14.5922 11.42 14.5544 11.3718 14.5254V9.91756L13.9085 13.1859C14.0009 13.3049 14.1393 13.3673 14.2791 13.3673C14.3795 13.3673 14.4807 13.3352 14.5662 13.2688C14.7707 13.1101 14.8078 12.8156 14.6491 12.6111L11.5006 8.55463C11.464 8.5075 11.42 8.46969 11.3717 8.44069V2.67706H13.2143C13.4732 2.67706 13.6831 2.46725 13.6831 2.20831C13.6831 1.94938 13.4732 1.73956 13.2143 1.73956H11.1993C10.7774 1.73956 10.4342 2.08594 10.4342 2.51169V23.8263C10.4342 24.252 10.7774 24.5984 11.1993 24.5983H17.0867C17.3456 24.5983 17.5555 24.3885 17.5555 24.1296C17.5555 23.8706 17.3456 23.6608 17.0867 23.6608Z" fill="#50CCCD"/>
</svg>
