<svg width="32" height="32" viewBox="0 0 32 32" fill="none" xmlns="http://www.w3.org/2000/svg">
<g clip-path="url(#clip0)">
<path d="M32 12.7709V12.3021C32 11.0098 30.9486 9.95838 29.6562 9.95838H28.5814C28.718 9.67788 28.7708 9.36044 28.7278 9.04513L28.2217 5.33338H27.7784L29.0856 4.14957L28.4562 3.45476L26.6772 5.06601V2.88544H25.7397V5.08482L23.9398 3.45469L23.3104 4.14951L24.6176 5.33332H24.1951L23.689 9.04507C23.646 9.36044 23.6988 9.67782 23.8354 9.95832H2.34375C1.05138 9.95832 0 11.0097 0 12.3021V12.7708H1.78125V15.9696C0.6985 18.9789 1.3535 20.5874 2.0465 22.2896C2.86162 24.2917 3.70444 26.3619 1.81156 31.3653L1.57156 32H4.44887L4.56344 31.6971C6.58656 26.3494 5.632 24.0048 4.78988 21.9361C4.63613 21.5585 4.49088 21.2018 4.36688 20.8343C4.02775 19.8293 4.18931 18.7571 4.81006 17.8924C5.43587 17.0208 6.40963 16.5209 7.48169 16.5209H24.5065C25.5785 16.5209 26.5522 17.0208 27.1781 17.8924C27.7989 18.757 27.9604 19.8293 27.6214 20.8343C27.4974 21.2018 27.3522 21.5584 27.1984 21.9361C26.3562 24.0048 25.4016 26.3494 27.4248 31.6971L27.5394 32H30.4167L30.1766 31.3654C28.2837 26.362 29.1266 24.2918 29.9417 22.2897C30.6347 20.5874 31.2897 18.979 30.2069 15.9696V12.7709H32ZM24.6178 9.17182L25.0134 6.27088H27.4034L27.799 9.17182C27.825 9.36238 27.7696 9.54713 27.6431 9.69201C27.5167 9.83688 27.3411 9.9167 27.1488 9.9167H25.2681C25.0757 9.9167 24.9001 9.83695 24.7737 9.69201C24.6471 9.54713 24.5918 9.36238 24.6178 9.17182ZM29.0734 21.9362C28.2653 23.9211 27.3538 26.1602 29.0686 31.0625H28.1891C26.4433 26.2777 27.2682 24.2508 28.0667 22.2896C28.219 21.9156 28.3765 21.5287 28.5096 21.1341C28.9464 19.8394 28.7387 18.4586 27.9396 17.3457C27.1355 16.2258 25.8842 15.5834 24.5065 15.5834H7.48175C6.10406 15.5834 4.85269 16.2258 4.04856 17.3458C3.2495 18.4587 3.04181 19.8394 3.47863 21.1341C3.61175 21.5287 3.76925 21.9156 3.92156 22.2897C4.72 24.2509 5.54494 26.2778 3.79919 31.0625H2.91963C4.6345 26.1601 3.723 23.9211 2.91481 21.9362C2.25881 20.3249 1.69225 18.9333 2.69006 16.2136L2.71875 16.1354V12.7709H29.2694V16.1354L29.2982 16.2136C30.296 18.9333 29.7294 20.3248 29.0734 21.9362ZM1.78125 11.8334H1.01787C1.21131 11.2878 1.73269 10.8959 2.34381 10.8959H29.6563C30.2674 10.8959 30.7888 11.2878 30.9823 11.8334H30.207H1.78125Z" fill="#50CCCD"/>
<path d="M20.0625 13.6875H19.125V14.625H20.0625V13.6875Z" fill="#50CCCD"/>
<path d="M18.1875 13.6875H13.8125V14.625H18.1875V13.6875Z" fill="#50CCCD"/>
<path d="M12.875 13.6875H11.9375V14.625H12.875V13.6875Z" fill="#50CCCD"/>
<path d="M27.6145 1.39508L27.1848 1.40239H26.6771L26.6771 1.40908C26.6761 1.57477 26.5865 1.72908 26.4427 1.81239L26.9128 2.62358C27.3457 2.37271 27.6146 1.90627 27.6146 1.40627L27.6145 1.39508Z" fill="#50CCCD"/>
<path d="M25.7396 1.40726L24.8021 1.40919C24.8031 1.90926 25.0731 2.37513 25.5066 2.62507L25.9748 1.81294C25.8301 1.72944 25.7399 1.57407 25.7396 1.40726Z" fill="#50CCCD"/>
<path d="M26.2083 0C25.9598 6.25e-05 25.7154 0.0659375 25.5016 0.190375L25.9732 1.00069C26.1162 0.917375 26.2977 0.916812 26.4411 0.999125L26.9078 0.186C26.6956 0.0643125 26.4538 0 26.2083 0Z" fill="#50CCCD"/>
</g>
<defs>
<clipPath id="clip0">
<rect width="32" height="32" fill="white"/>
</clipPath>
</defs>
</svg>
