<svg width="32" height="32" viewBox="0 0 32 32" fill="none" xmlns="http://www.w3.org/2000/svg">
<path d="M23.9961 17.562L25.7151 3.81009C25.7591 3.45834 25.7278 3.10127 25.6232 2.76256C25.5186 2.42385 25.3432 2.11125 25.1086 1.84551C24.874 1.57976 24.5856 1.36694 24.2625 1.22117C23.9394 1.0754 23.5889 1.00001 23.2344 1H16.386C15.8775 1.00163 15.3814 1.15759 14.9634 1.44724C14.5455 1.7369 14.2252 2.14661 14.0452 2.62219L10.8587 11.1193C10.65 11.6707 10.2788 12.1457 9.79419 12.4815C9.30961 12.8173 8.73452 12.9981 8.14496 13H5C4.60231 13.0005 4.22105 13.1586 3.93984 13.4398C3.65864 13.721 3.50045 14.1023 3.5 14.5V17.5C3.5 17.5657 3.51293 17.6307 3.53806 17.6913C3.56318 17.752 3.60001 17.8071 3.64644 17.8536C3.69287 17.9 3.74799 17.9368 3.80866 17.9619C3.86932 17.9871 3.93434 18 4 18H5.41721L3.64139 29.5428C3.59161 29.8663 3.6692 30.1966 3.85784 30.4641C4.04649 30.7316 4.33151 30.9156 4.65298 30.9773C4.97445 31.039 5.30733 30.9737 5.58166 30.7951C5.85599 30.6165 6.05038 30.3385 6.12399 30.0196L8.89774 18H10.7907L9.01489 29.5428C8.9651 29.8663 9.04269 30.1966 9.23133 30.4641C9.41998 30.7316 9.705 30.9156 10.0265 30.9773C10.348 31.0391 10.6808 30.9738 10.9552 30.7952C11.2295 30.6165 11.4239 30.3385 11.4975 30.0196L14.2712 18H16.2288L19.0025 30.0196C19.0761 30.3385 19.2705 30.6165 19.5448 30.7951C19.8191 30.9737 20.152 31.039 20.4735 30.9773C20.795 30.9156 21.08 30.7316 21.2686 30.4641C21.4573 30.1966 21.5349 29.8664 21.4851 29.5428L19.7093 18H20.2288L23.0025 30.0196C23.0761 30.3385 23.2705 30.6165 23.5448 30.7951C23.8191 30.9737 24.152 31.039 24.4735 30.9773C24.795 30.9156 25.08 30.7316 25.2686 30.4641C25.4573 30.1966 25.5349 29.8664 25.4851 29.5428L23.7026 17.9566C23.7814 17.9218 23.8499 17.8671 23.9013 17.798C23.9527 17.7288 23.9854 17.6475 23.9961 17.562ZM7 14H8.14496C8.93793 13.9975 9.71145 13.7543 10.3632 13.3026C11.015 12.8509 11.5143 12.2121 11.7951 11.4705L14.9815 2.97333C15.0895 2.68798 15.2817 2.44215 15.5324 2.26835C15.7832 2.09455 16.0809 2.00098 16.386 2H23.2344C23.4471 2 23.6574 2.04523 23.8513 2.1327C24.0451 2.22016 24.2182 2.34785 24.3589 2.50729C24.4997 2.66674 24.605 2.8543 24.6677 3.05752C24.7304 3.26074 24.7492 3.47499 24.7229 3.68603L23.8759 10.4612C23.8024 11.0423 23.5548 11.5876 23.1657 12.0255C22.7765 12.4634 22.2641 12.7733 21.6956 12.9147C22.3431 12.2965 22.7573 11.4737 22.8682 10.5854L23.4961 5.56201L22.5039 5.43799L21.8759 10.4613C21.7874 11.1619 21.4465 11.8061 20.9171 12.2734C20.3877 12.7408 19.7061 12.9991 19 13C18.6023 13.0005 18.221 13.1586 17.9398 13.4398C17.6586 13.721 17.5005 14.1023 17.5 14.5V15.086C17.3395 15.029 17.1704 14.9999 17 15H7C6.82965 14.9999 6.66054 15.029 6.5 15.086V14.5C6.50015 14.3674 6.55288 14.2403 6.64661 14.1466C6.74035 14.0529 6.86744 14.0002 7 14ZM20.5 17V14.5C20.5002 14.3674 20.5529 14.2403 20.6466 14.1466C20.7403 14.0529 20.8674 14.0002 21 14C21.9385 13.9999 22.8453 13.6604 23.5531 13.0442L23.0586 17H20.5ZM19.5857 14C19.5288 14.1606 19.4998 14.3297 19.5 14.5V17H18.5V14.5C18.5002 14.3674 18.5529 14.2403 18.6466 14.1466C18.7403 14.0529 18.8674 14.0002 19 14H19.5857ZM17.5 17H6.5V16.5C6.50015 16.3674 6.55288 16.2403 6.64661 16.1466C6.74035 16.0529 6.86744 16.0002 7 16H17C17.1326 16.0002 17.2597 16.0529 17.3534 16.1466C17.4471 16.2403 17.4998 16.3674 17.5 16.5V17ZM4.5 14.5C4.50015 14.3674 4.55288 14.2403 4.64661 14.1466C4.74035 14.0529 4.86744 14.0002 5 14H5.58569C5.52882 14.1606 5.49984 14.3297 5.5 14.5V17H4.5V14.5ZM5.14962 29.7947C5.13421 29.8615 5.0935 29.9197 5.03606 29.9571C4.97861 29.9945 4.9089 30.0082 4.84158 29.9953C4.77426 29.9823 4.71458 29.9438 4.67507 29.8878C4.63557 29.8318 4.61933 29.7626 4.62976 29.6949L6.42894 18H7.87149L5.14962 29.7947ZM10.5231 29.7947C10.5077 29.8615 10.467 29.9197 10.4096 29.9571C10.3521 29.9945 10.2824 30.0082 10.2151 29.9953C10.1478 29.9823 10.0881 29.9438 10.0486 29.8878C10.0091 29.8318 9.99283 29.7626 10.0033 29.6949L11.8024 18H13.245L10.5231 29.7947ZM20.4968 29.6949C20.5072 29.7626 20.4909 29.8318 20.4514 29.8878C20.4119 29.9438 20.3522 29.9823 20.2849 29.9952C20.2176 30.0082 20.1479 29.9945 20.0904 29.9571C20.033 29.9197 19.9923 29.8615 19.9769 29.7947L17.255 18H18.6976L20.4968 29.6949ZM24.436 29.9076C24.4041 29.9448 24.3625 29.9724 24.3158 29.9873C24.2692 30.0023 24.2193 30.004 24.1717 29.9923C24.1241 29.9806 24.0807 29.956 24.0463 29.9211C24.0119 29.8862 23.9879 29.8424 23.9769 29.7947L21.255 18H22.6976L24.4968 29.6949C24.5028 29.7326 24.5004 29.7712 24.49 29.808C24.4795 29.8447 24.461 29.8787 24.436 29.9076H24.436Z" fill="#50CCCD"/>
</svg>
